/* XPM */
static char *result[] = {
/* columns rows colors chars-per-pixel */
"80 80 246 2 ",
"   c #010101",
".  c #01020B",
"X  c #060807",
"o  c #010313",
"O  c #0A0A15",
"+  c #040B1C",
"@  c #0D0D1D",
"#  c #030618",
"$  c #100F1E",
"%  c #0E101D",
"&  c #0B1018",
"*  c #12121D",
"=  c #121316",
"-  c #0D0D21",
";  c #070B24",
":  c #110E23",
">  c #120E2A",
",  c #0E1123",
"<  c #0B122A",
"1  c #131324",
"2  c #15142B",
"3  c #18162C",
"4  c #151A2C",
"5  c #1A1A2D",
"6  c #171926",
"7  c #161432",
"8  c #1A1533",
"9  c #151C34",
"0  c #1C1C33",
"q  c #1A163A",
"w  c #1D1B3B",
"e  c #16193A",
"r  c #130F30",
"t  c #201E35",
"y  c #211E3C",
"u  c #201F2E",
"i  c #1E212D",
"p  c #1C2234",
"a  c #1C243C",
"s  c #182338",
"d  c #222235",
"f  c #23233C",
"g  c #24293D",
"h  c #2A2A3F",
"j  c #28273B",
"k  c #22212F",
"l  c #1E1C43",
"z  c #1C1642",
"x  c #211E44",
"c  c #231F4B",
"v  c #1D2541",
"b  c #1D2A44",
"n  c #1F2D4B",
"m  c #242343",
"M  c #232A44",
"N  c #2B2C43",
"B  c #25234B",
"V  c #29254D",
"C  c #242C4B",
"Z  c #2A2B4C",
"A  c #292642",
"S  c #24324D",
"D  c #2B314C",
"F  c #233047",
"G  c #32334C",
"H  c #353446",
"J  c #252353",
"K  c #2A2654",
"L  c #242D51",
"P  c #2C2C54",
"I  c #2C2B5B",
"U  c #29275A",
"Y  c #312D5D",
"T  c #302D55",
"R  c #253354",
"E  c #2B3354",
"W  c #2B3956",
"Q  c #273559",
"!  c #2B345A",
"~  c #2C3A5C",
"^  c #243A5F",
"/  c #323454",
"(  c #32355C",
")  c #333B5D",
"_  c #363A55",
"`  c #302E43",
"'  c #2D2D65",
"]  c #332E63",
"[  c #362E6A",
"{  c #2E3363",
"}  c #2D3C63",
"|  c #2A3C6A",
" . c #333463",
".. c #343C64",
"X. c #393C65",
"o. c #34346B",
"O. c #3A346A",
"+. c #343D6A",
"@. c #3B3D6C",
"#. c #393566",
"$. c #3C3C73",
"%. c #3A3874",
"&. c #2B3F73",
"*. c #423D79",
"=. c #403E69",
"-. c #38425B",
";. c #2E426D",
":. c #334165",
">. c #3A4265",
",. c #35436B",
"<. c #3B436C",
"1. c #3B4A6D",
"2. c #2D4476",
"3. c #344472",
"4. c #3C4473",
"5. c #364973",
"6. c #3C4B74",
"7. c #3D4479",
"8. c #3D4C7B",
"9. c #34497A",
"0. c #3B527D",
"q. c #40455E",
"w. c #41446C",
"e. c #464B69",
"r. c #4A5169",
"t. c #424474",
"y. c #434B75",
"u. c #43457B",
"i. c #434B7B",
"p. c #494D7C",
"a. c #4A4D71",
"s. c #44527C",
"d. c #4A547D",
"f. c #475275",
"g. c #535879",
"h. c #52536E",
"j. c #453D80",
"k. c #3D4E82",
"l. c #3C5283",
"z. c #3C5687",
"x. c #454482",
"c. c #444B83",
"v. c #4A4C84",
"b. c #4C4B8B",
"n. c #494487",
"m. c #445483",
"M. c #4B5483",
"N. c #4C5A85",
"B. c #445589",
"V. c #4B558B",
"C. c #445A8D",
"Z. c #4C5A8C",
"A. c #455884",
"S. c #525A85",
"D. c #51528C",
"F. c #535C8C",
"G. c #565A88",
"H. c #4C5D92",
"J. c #4A5992",
"K. c #545D93",
"L. c #565599",
"P. c #575A97",
"I. c #514E8F",
"U. c #53618C",
"Y. c #5B6289",
"T. c #4D6294",
"R. c #4B6B9B",
"E. c #486496",
"W. c #536295",
"Q. c #5B6394",
"!. c #56649B",
"~. c #5B659C",
"^. c #536B9C",
"/. c #5B6B9C",
"(. c #576995",
"). c #496A94",
"_. c #62699B",
"`. c #626696",
"'. c #64739A",
"]. c #696F93",
"[. c #5D5CA1",
"{. c #605FA5",
"}. c #546DA2",
"|. c #5C6CA3",
" X c #5B65A3",
".X c #5273A5",
"XX c #5C71A3",
"oX c #5877AB",
"OX c #5E7CB2",
"+X c #4C6DA1",
"@X c #636DA4",
"#X c #636DAA",
"$X c #696BA7",
"%X c #6372A4",
"&X c #6473AB",
"*X c #6A75AC",
"=X c #647AAD",
"-X c #6C7BAD",
";X c #6A75A4",
":X c #7477AA",
">X c #6B6BB2",
",X c #6B74B1",
"<X c #6C7BB3",
"1X c #667AB2",
"2X c #727CB5",
"3X c #747DBA",
"4X c #7778B8",
"5X c #605E9F",
"6X c #7D79C5",
"7X c #5D83B1",
"8X c #6E82B3",
"9X c #6B84BA",
"0X c #6689B9",
"qX c #7383B3",
"wX c #7483BB",
"eX c #7983BB",
"rX c #758ABD",
"tX c #7A87B7",
"yX c #7C91BC",
"uX c #6C89B1",
"iX c #74829F",
"pX c #7B86C1",
"aX c #7C8BC4",
"sX c #7785C2",
"dX c #6D92C3",
"fX c #7697C7",
"gX c #7092C9",
"hX c #7CA1CD",
"jX c #7EA5D2",
"kX c #8488B6",
"lX c #8894B9",
"zX c #848CC8",
"xX c #8597C7",
"cX c #8999D2",
"vX c #959BD8",
"bX c #9090CD",
"nX c #88A6D4",
"mX c #97A7D8",
"MX c #8CB1D9",
"NX c #8DB0D8",
"BX c #A2ACD3",
"VX c #95BCE1",
"CX c #A5A5E6",
"ZX c #A8B4E6",
"AX c #B9C7F5",
"SX c #98C0E4",
/* pixels */
"dXgXjXjXdX.XC.E.W.W./.K././.W.S.p.:.:.) ( Z V / <.X.Y ) E ! ....6.F.'.tXmXZXAXAXZXpX,X,X#X[.$X$XP.M.t.X.P V P / ( / P V b B B m Z Z Z ) X. .{  .] U m q 8 8 > : ",
"dXgXjXhXOXE.C.B.z.V.B.B.Z.V.8.6.4...>..._ R ( ) >.>.( ( ! .. .+.p.N.;XcXBXAXAXmXeX*X>X X X[.~.P.v.t.@. .! P E E ~ ) E C B L C B B Z / (  .#. . .#.Y V q 8 3 3 $ ",
"gXgXjXgX.XC.J.k.8.l.4.8.6.4.+.+.<...>.....) ! ..X.<.>.@.4.@.+.c.c.K.aXmXZXZXlX&X/.>X#XP.J.K.V.x.$.@.X. .I ! ( X.<.y.@.I C V P C w v P P  .( !  .( Y x q 8 8 3 : ",
"gXdXgX0XoX}.E.l.9.4.5.+.+.} } ..<.:.X...w.w.<...<.y.i.i.u.7.c.K.!.2XvXvXcXeX/.~.P.~.L.V.x.c.i.i.4.+.@.X.@.=.t.p.u.u.*.{  .P P Z m m Z E ! ( #.I Y P V A 8 t 3 1 ",
"oX.X.XoXoXoXE.l.5.,.:.~ ! E ( ) ..) ..+.d.G.M.y.c.M.y.c.8.c.J.P.>XzXcXzX:XP.W.;XP.D.u.7.@.+.+.<.@.@.t.4.p.p.u.v.v.c.n.u.i.@.( P P P Z U  .o.%.O.#.( K c x t 3 : ",
"+X+X+X+X+XOX1XE.8.,.L n R R W ! ! ! ..6.S.Q.V.m.Z.V.8.c.b.V. X$X3XzXsX,XV.c.F.P.V.u.u.@.+.....#...t.p.t.t.u.u.I.I.v.I.v.p.d.w.I P P I  ...o.$.*.u.*.] c V y 8 : ",
"z.E.+XoX.XgXOX XN.1.W D S D / W Q } ,.d.F.~.Z.Z.K.Z.V.V.H.!.2XaX3X3XoXI.x.k.c.6.t.6.4.+.<.X.X. .(  .@.@.%.u.v.`.~.P.P.D.p.p.t.X.P J  .@.%.%.n.b.D.L.*.=.T x 8 > ",
"9.).+X7XgXjX1X XA.-.) C M M E E E  .3.A.W.~.W. XXX!.H.J.W.2XsXeX&X XP.B.c.v.M.u.M.y.4.<.w.t.w.w.i.t.u.S._.;X$X:X:X;X_.D.u.$.@.#.U I #.%.V.I.[.L.L.[.n.j.Y K x 8 ",
"z.}..XdXnXfX}.z.y.~ S M M S S ( ..} N.~./.,X3X1X#XoX+X XoX2X*X@X!.V.V.J.K.c.P._.W.N.p.y.y.p.S.S.G.`._._.`.Q.G.M.p.p.p.w.t.<.#.( ( Y ( *.K.$XbXbX6X>Xj.j.[ ] K q ",
"z.+X.XgXfX}.l.{ } ~ ~ S a S ) >.:.1.(./.|.xXaX9X,X X X}.|.wXXXC.V.V.J.J.!.P._.P.i.u.6.t.t.y.t.w.w.@.$.6.@.@. . .I ( ..(  .) ! P P Z P O.I.:XCXCXvX6Xj.j.*.[ Y z ",
"z.E.OXsXsXz.9.| } ,.>.W C R >.:.1.U.qX-XrXmXsX<X1X!. X X,X XJ.H.!.F.V.D.K.c.c.x.7.+.o.t.( I U I I { I I {  .X.@.X.) ( C Z E D Z B m A ( p.$XCXCXCX6Xj.j.j.%.[ V ",
"R.+XgXgXOXz.9.| } 1.f.:.) ~ :.1.U.8XlXzXcXmX<X|. X!.&X|.|. XW.!.W.K.G.i.@.@.+. .! U U ..X.) ..#.@.t.$.+. . . .! E P E Z P E D Z m M B P P p.:X4X>X[.j.*.*.*.[ K ",
"R.7XdX0XR.C.0.8.6.4.d.6...+.,.A.qXyXxXnXmXxX8X X X#X,X#X|.#X@X_.M.w.>.( ( ( ! ( <.a.e.r.a.a.a.w.<.t.t.t.t.p.y.t.>.X.@.X.) ! / Z A B B V U ' c.I.I.I.j.n.%.] Y K ",
".X.XoXoX}.E.l.N.Z.8.N.6.+.6.s.(.lXxXxXnXnX<XXX&X#X1X#X X$X,X_.p.>.) _ D G Z G G G g j _ q.e.h.a.g.S.v.t.*.a.t.t.t.t.w.<.t.<.X. ./ T / P U J ' %.[ j.%.[ ] I K V ",
"7X0X0X0X8X(.8.k.A.6.m.c.3.8.Z.%XyXyXxXnXrXXX|.<X<X#X X#X:XQ.y.X.G 9 @ + . o # . . .   . . ; s / a.G.`.`.$X$XK.v.u.u.t.t.c.u.u.t.=.=.=.@.{ U ' ' ' o.[ U K c V m ",
"7X0XhXVXfXXXC.m.i.3.8.4.7.8.W.-XtXyXnXaX^.=XsXwX#XP.@X:XY.w.v ; # . X         .       . . . o o # 0 r.:X:XkXkX4X,X`.D.c.x.u.u.p.t.t.t.6.$.%.o.o.o.o.' U c z x x ",
"0XjXVXMXMXyXiX0.| 3.4.4.4.9.W.%XrXrXcX=X=XfX3X#XP.Q.iXg.f @   . .                             .   . o - h.kXlXkXkX4X4X>XK.i.u.u.4.u.t.$.%.o.o.o.o.*.X.Y c l x y ",
"jXSXVXMXMXyXuX).,.| 6.4.$.9.~.%X<XxX8XXXrXsX#XK.K.;Xe.- .     .                               X       O . 2 h.:XkXzXzX4X*X_.V.6.7.n.u.x.4.o.o.o. .@.( Y c z x z ",
"jXMXSXVXNXhXuX).;.| y.9.4.H.~.<XrXrXXX&XxX=XK.M.g.m ; .               X                                 . o # P G._.:XeXeX*X@XP.c.k.x.c.u.$.@. .{  .( Y K c x x ",
"dXhXjXMXNXMXyX).2.3.y.,.9.~.!.qXaX&X|.aXaXK.s.e.< # . . X X                             .               . . o # 7 w.S._.:X4X4X4XP.x.7.c.v.t.4.#.I I I I ] K c x ",
"7XdXhXhXhXhXhX7Xl.8.3.8.z.Z./.8XqX}.<XcX@Xd.) ; X X X                                     .               X . o o + / a.D.$X4X4X>X{.n.%.u.$.t.@.Y Y I I o.Y c z ",
"7X0X0XhXyXdX0XiXC.0.;.0.T.Z.}.1X*X XcXeXi.<.+ X               X                         . .                     . . + w.i.b.L.>X>X>XP.j.%.@.=.<.#.#.] Y #.Y J z ",
"7X7X0X0XnX0XdX0X^.m.5.A.^.}.=X8X<X&XnXF.~ ; o                                             .                       . . + e.u.x.L.L.{.{.L.$.o. . .Y ( I U I P c q ",
"0.0.+X7X0X0X0X0X^.B.A.Z.^.oXsX8X9XqXqXy.< .   X X                                         .             X   X         o > @.$.$.I.L.L.@Xn.+.U J J U J c x x q > ",
"1.0.).).+XOXOX}.E.m.T.Z.XX}.9X9X%XxX].1 .           X                                                       .           o < T #.o.n.L.I.I.n.o.U J V c x t 8 2 > ",
"^ ^ 0.0.E.}.oX}.H.k.Z.T.OX8X1X1X-XxXD o X X       . .                                                 X         .   .     . 3 Z Y %.x.I.n.n.t.U B V x m t 5 > > ",
"^ ^ ;.0.E.R.^.E.C.l.T.^.oX=XrXoXqXiX+ X           . .                                                             .         o 5 Z P @.v.x.x.n.O.J B w x 8 2 > : ",
"S ^ ^ 5.C.!.R.A.B.C.}.XXOX9XcX'.tX_ . X     X     . .                                                   X         . .         O 0 B U *.v.$.*.@.J B q y t 3 : : ",
"F ^ W ^ 0.).^.T.C.C.oX1X1XcXrX'.iX+ .             .                                                         .                 X * p w U p.*.%.O.I B y w 8 8 2 : ",
"F F ^ 1.1.).=X^.C.2.J.dX9XcXuXiX-.o .       X                                                                                   & 6 2 v ( p.*.] ] V x y y 8 3 > ",
"b F ^ ^ 1.).iX^.l.&.z.3XdXrX-X(.+ . . .   X           X                                         .   .                   .       X = 1 e l @.*.] K K A m y q y 2 ",
"b F F S -.).oX^.z.2.z.OX<XsX'.r.& X   . .                                                                                   X     & 1 2 q B t.#.c V Z y y x 8 r ",
"b F n R ! N.%XXXC.&.k.OX9XrX'.a   .   .   .   X                                                                                   X 6 : 3 w T =.K c A x q q 8 8 ",
"F S n S R 6./.%XJ.&.9.=X9XuXY.,   .                                                                                             . X 6 1 > 7 A ( V V m A y q y y ",
"F -.S R Q } N.XXT.&.9.=X9XuXg.o .       .     X                                                                                   . 6 6 > > 8 T Z B x x w w q y ",
"b F S R Q +.y.W.W.;.5.oX8XqXf.o .             X X                                                                             X .   * 6 2 > 8 m P K x w y q y y ",
"g S S ^ R +.;.Z./.9.3.}.yXuX-.#       X   .                                                                                       . $ 5 : 2 7 y Z T B z y q q 8 ",
"s S n -.Q } Q s./.0.;./.yXrXv #                 X                                                                                 . O u 6 2 > 8 Z / K x w 8 7 7 ",
"b n n R ~ } ~ } U.A.;.(.yXyX9 .                                                                                                     O k 3 : 1 > A P Y V x w 7 r ",
"n S n S Q ~ :.^ A.U.| A.8XyXs . X               X                                                                         X         O d u : : : y A Y P z q 7 r ",
"S ^ W S ^ ^ -.:.:.(.,.5.uXxX9 o                                                                                                   . O u 5 6 $ 1 5 c Y Y c q y 8 ",
"F -.-.^ S ^ :.R :.N.6.;.'.lXv .           X     X                                                                         .         o t 5 3 $ 1 2 y T =.T x y q ",
"S ;.1.:.R S R ^ ! s.A.| N.iXW .           .     X                                                                                   O t t 6 $ 1 6 8 K =.=.c c x ",
"n ^ :.1.:.S ^ S ! 1.S.,.0.'.e..                                                                                                     : t t 3 * * 1 8 c =.*.Y z z ",
"n ^ :.1.:.-.n n ! ~ A.6.5.U.f..           .     X                                                                       X         . 6 8 y 5 * * 1 3 B ] *.K c c ",
"R :.;.:.1.:.R n Q Q 6.M.3.d.h.#         .       X                                                                               X . t t y 5 * * * 5 x I *.[ c c ",
"W ;.;.:.:.^ :.b R Q +.M.8.6.h.% .         . .     X                                                                             . O j 8 y u * = % 3 m U *.[ K K ",
"W :.;.:.:.:.:.n n ! R 6.B.s.g.2 .   .                                                                                       X   . O N 8 y 5 6 & % 3 x I [ *.U c ",
"S :.:.:.:.W R S S L R ) M.y.y.-.. X                                                                                 X   X   X   . y j 8 5 5 , 1 , 2 B J [ =.=.T ",
"R :.1.;.:.^ ^ ^ R R E ! u.B.1.r.o o   .                                                                                     . . @ ` t u 5 3 1 1 , 2 M V K =.[ K ",
"n -.>.1.:.:.R :.~ R R Q | d.d.r.a o .                                                                                       . . 5 H 5 t 5 1 1 1 > 2 m Z K [ Y K ",
"b S :.:.;.:.^ R ~ R E Q Q ,.U.g.a.# .             .                                                                     X   . o j H 5 5 6 * % 2 2 2 m V K Y T c ",
"b S :.:.5.:.-.:.! Q Q Q } ~ y.Q.g.C o .           . .   X X                                           .         X           . 1 ` h 5 3 1 @ 1 1 2 2 f Z K I K c ",
"b b R :.1.1.1.:.} ! Q Q ! ~ } S.Y.a.+ . X         .                                     .   .                           . . o t ` t t 5 , & 1 3 2 4 w A K K c x ",
"s v n ^ :.;.0.1.,.,.:.~ R ! ! +.S.G.D #               .                                   .                           . . o 1 j ` 8 0 5 , @ 1 3 1 4 0 A c c c y ",
"s b b n -.:.1.1.f.d.s.,.} Q | { ..F.Y.7 .                                                   .                   X       . @ t N N 5 0 0 , , 5 3 4 9 p A j x y 8 ",
"s 9 a n b S ~ ~ ,.6.d.N.N.y.R +.} +.d.g., . X X     X                                       X                   X   X . @ t h h 0 0 j , - 2 5 u 3 8 t t 8 8 8 8 ",
"9 s s v v n S R W :.1.f.N.(.3.+.4.' #.f.r.@       X         X X                                               . . X X . h t h h 8 0 4 1 - 1 u 5 3 3 u 3 3 r 3 3 ",
"4 4 s s v b C n L R } ,.+.d.Q.y.4.4.6.#.e.q.&       X .                                                     .   . . . H N t ` f 2 0 2 - - 5 t 8 1 3 3 > : : : : ",
"4 9 9 s s b S D R R ~ } ,.+.4.N.U.6.7.<.,.1.-.=   X .                                                     X   . . O H h 0 A j 8 9 4 2 @ > 0 t 5 3 3 3 : : $ $ $ ",
"4 4 s s a M F S S S ~ ) ,.+.,.,.m._.A.3.6.<._ D 1 . .     .                                             . . . o @ G Z 0 N N 2 8 t > : - 3 y y t 3 > : $ $ $ $ $ ",
"4 s p s a a g b M S E ( ..} } y.6.U.Q.V.4.4.<.>.E 4 # .               X                                 . . . t _ / f f m 8 9 d 5 : - - 3 j j 8 3 3 > $ $ $ $ $ ",
"i s i g p p w a v C S ( >.:.<.4.u.m.M.~.!.c.%.| >.e.D . X                                           . o X 6 q.e./ w v Z 7 7 d 0 : $ $ : t j j y 8 3 > : * * $ $ ",
"i s i p p 4 s a v C R E ~ 1.<.8.U.A.B.Z.H.*X~.v.t.) >.q.p O   . X                               . . o , h.g.h.q.m a B w w d p 5 : $ : : y h j y t 8 > > 3 1 1 > ",
"4 i s 4 4 < s s S C ) @.1...4.6.k.V.V.B.K.W. X*X*XF.6.:.-./ j @ . .               X         . o # 0 g.BXY.a.T y e m j 2 0 j 0 , * % $ 2 f j A A y 8 > > 3 1 8 3 ",
"s s s < 4 4 g F W W } ,...4.y.A.F.Z.W.~.W.@X^.|.,X<X-X~.p.d.w.) D 0 1 + o o o . . . . . . - s _ ].BXkXY.h.T z m f 0 5 5 0 0 1 & * & = 3 5 0 y y t 3 6 : > 8 8 8 ",
"i 4 4 4 s s F -.~ W ! ~ :...} <.4.8.Z.Z.~.&X<X,X&X%X@X#X2X@X;X_.U.d.1.y.d.t.<.@.<.a.i.d.Y.kX4XkXkXkXg.( m e 0 a p 5 t d 5 1 % @ @ O * 3 > 3 r 8 8 3 > : > 3 8 8 ",
"s 6 4 4 s a -.S :.+.,.:.1.>.,.d.y.,.m.m._.!.-X<XeXzX<XeXpX<X&X-X-X@X-XzXwX$X@X@X*X3X4XzXzXbX4X$XK.e.V m 9 p d 8 2 d d 0 2 @ @ % @ @ 1 * 5 3 r 3 3 3 1 : 1 3 8 8 ",
"9 4 4 9 s F W R :.:.1.,.1.6.>.6.N.8.u.Z.&X!.@X~.*XzX2X4XzXsX<X<X%X|.%X,X&X>X2XsXaXzXaXzXbX4XL.$. .n e 2 a p p p d d 8 : ; @ % % $ * 6 : 8 8 5 3 3 3 1 1 3 3 r 8 ",
"p p p a s b S R } ~ ,.+.R :.W 1.N.6.3.8.Z.M.V.K.Q._._.@X-X2XzXwXeXxXwX2XeX3XpXeXeX2X_.Q.v.%. .l z e f a 0 4 5 j h 0 2 > , % % & $ 3 5 6 5 5 3 2 3 > 1 > > > 8 8 ",
"p a b M n n :.;.0.0.s.6.:.;.,.6.6.,.6.m.u.8.c.K.F.G.S.M.6.S.M.U.`.`.'.U.Q.U.S.p.y.e.( S w 9 9 s a w s 0 4 0 j f t 1 - : , % 1 1 1 6 u u 3 3 2 2 > 6 1 3 > 8 > 8 ",
"4 a n S W Q 1.0.A.A.A.5.5.1.y.s.N.s.3.8.8.4.y.6.t.M.4. .X.( ( ( ) ( T E P Z C a e a 8 4 5 i i j i 9 4 9 d N g 5 1 1 $ $ % , 1 6 5 5 3 5 5 5 5 3 6 1 3 1 u > > > ",
"a b S R :.5.A.R././.T.C.8.s.A.A.N.Z.V.m.5.4.+.{ I Q E P P V C v l a w w v l w 0 p i d d k i i i 4 9 0 f N g 0 1 * = = = & 6 6 2 6 3 3 3 3 6 1 3 6 > 6 3 1 : > : ",
"a C W Q 5.Z.XX=X1XXXC.C.k.k.k.m.Z.H.Z.8.4.4.,.......( P C Z Z C v d m w a f w w a j d i i 6 6 4 4 0 M N M p 3 * = = = = * 6 4 4 3 5 3 3 3 > 1 1 1 1 1 * : : : : ",
"s n W :.l.=X<X.X}.^.T.A.m.C.c.9.C.%X}.F.m.c.s.y.4.w.>.) D D Z F M M M M m m m M g f p 8 4 4 3 8 8 j M g 0 9 1 , $ * * * 6 1 2 4 u t u 3 3 > 1 1 1 : $ 1 : : $ $ ",
"s b R :.B.XXoXJ.E.H.l.C.m.J.8.9.H.|.%X/.H.W.Q.Q.U.M.y.>.) E Z M M M g a M Z m M a w 9 0 0 8 0 w f M A 0 4 4 2 , 1 1 1 6 1 1 4 5 t y y t u 3 1 1 $ $ $ $ : $ $ $ ",
"s b W :.0.E.J.l.C.l.9.0.8.m.k.J.|.!. X|.XX#X&X-X-X_.F.d.1.) E F M M M g F M M f w 9 9 0 8 0 w d g N g 0 4 2 1 2 2 2 2 2 2 2 5 5 y y y y t 5 6 $ $ $ : : 1 : $ $ ",
"s a R :.6.T.T.l.k.k.9.,.3.l.m.T././.|.%X<X<X<XeXeX*X/.Z.t.<.) E C N D D N m a a p 0 0 9 0 t t f g h j p 4 4 2 4 8 3 2 2 1 3 0 0 y y A y t 5 1 $ $ $ : 1 1 1 1 * ",
"p a S W 3.m.T.R.H.A.0.,.3.i.8.J.!.|.<X<X,X2XwXeXeXeX-XK.v.u.t. .E Z S G N N p 0 5 p 5 0 t 0 t f f d d 5 5 4 6 5 5 3 2 6 1 6 5 w y x A A t 5 6 1 : : 1 3 3 3 1 > ",
"p s F R ;.9.C.Z.H.~./.s.V.m.8.W.@X|.9XsXoXsXaXwXeXcXzX4X XP.D.u.@.../ G D N j d 5 5 5 5 t 0 0 d 0 5 p u 5 6 6 5 u 6 6 1 5 5 0 0 x A x t 8 3 1 6 1 1 > 3 8 3 3 1 "
};
