/* XPM */
static char *result[] = {
/* columns rows colors chars-per-pixel */
"80 80 245 2 ",
"   c #191615",
".  c #251E1B",
"X  c #2C231C",
"o  c #37291D",
"O  c #2B2524",
"+  c #3C322B",
"@  c #393736",
"#  c #372E29",
"$  c #241F21",
"%  c #46352C",
"&  c #4B3C35",
"*  c #4C3826",
"=  c #543A2E",
"-  c #53433C",
";  c #5A4539",
":  c #4F4234",
">  c #634C3C",
",  c #684D3C",
"<  c #6A513E",
"1  c #74533E",
"2  c #6C562A",
"3  c #7E642E",
"4  c #363D4B",
"5  c #464446",
"6  c #5C4C43",
"7  c #594A46",
"8  c #5E514B",
"9  c #565556",
"0  c #4E4F54",
"q  c #624D42",
"w  c #794D46",
"e  c #645244",
"r  c #6B5443",
"t  c #63544C",
"y  c #6C584A",
"u  c #745946",
"i  c #735C4B",
"p  c #775948",
"a  c #685A53",
"s  c #735A55",
"d  c #7C624D",
"f  c #75604E",
"g  c #6E615B",
"h  c #6B6354",
"j  c #73645B",
"k  c #796657",
"l  c #4F596C",
"z  c #56687A",
"x  c #5C6466",
"c  c #686765",
"v  c #776B65",
"b  c #7B726B",
"n  c #646C76",
"m  c #777674",
"M  c #6C7873",
"N  c #5E605F",
"B  c #835B48",
"V  c #8C5C53",
"C  c #86644E",
"Z  c #876857",
"A  c #956957",
"S  c #997459",
"D  c #8D6D52",
"F  c #A76C57",
"G  c #A7775A",
"H  c #B5775C",
"J  c #B36D5A",
"K  c #876C65",
"L  c #986A62",
"P  c #86766B",
"I  c #987768",
"U  c #847A74",
"Y  c #887C75",
"T  c #967B76",
"R  c #A77866",
"E  c #B67B64",
"W  c #A87A74",
"Q  c #A97670",
"!  c #C67B64",
"~  c #C1755F",
"^  c #7A837D",
"/  c #A9873A",
"(  c #89837D",
")  c #95857A",
"_  c #9B826D",
"`  c #A88368",
"'  c #B8876A",
"]  c #A98778",
"[  c #B58678",
"{  c #BA9276",
"}  c #BC916E",
"|  c #9E8E59",
" . c #C49E41",
".. c #C48A6C",
"X. c #CC8A6D",
"o. c #C48469",
"O. c #D4896C",
"+. c #C88A76",
"@. c #D28C73",
"#. c #D38A77",
"$. c #C89777",
"%. c #D39373",
"&. c #DA9B76",
"*. c #D39B7C",
"=. c #DB9C7A",
"-. c #D79578",
";. c #CB926D",
":. c #CEA17C",
">. c #D2A27D",
",. c #DCA27D",
"<. c #D9A87F",
"1. c #E1A57E",
"2. c #DEAD54",
"3. c #F1C74D",
"4. c #5D7486",
"5. c #697888",
"6. c #6B7B8D",
"7. c #7C8884",
"8. c #6A8497",
"9. c #75889A",
"0. c #6F828F",
"q. c #7995AB",
"w. c #7A9BB5",
"e. c #6F8BA7",
"r. c #7DA1BA",
"t. c #7BA2C0",
"y. c #8B8784",
"u. c #938A84",
"i. c #978B87",
"p. c #9D938D",
"a. c #94948C",
"s. c #9B9994",
"d. c #869297",
"f. c #A88A84",
"g. c #B98A85",
"h. c #A7948A",
"j. c #B8968A",
"k. c #A39A94",
"l. c #AC9B94",
"z. c #A79A96",
"x. c #B99993",
"c. c #97A39B",
"v. c #A7A59B",
"b. c #B9A59B",
"n. c #BEA58F",
"m. c #8699AA",
"M. c #889DB4",
"N. c #8C94A3",
"B. c #88A5B8",
"V. c #99ABB8",
"C. c #97ABAA",
"Z. c #A9ABA4",
"A. c #B8A9A3",
"S. c #A9B7AA",
"D. c #B6B6AA",
"F. c #AAB9B5",
"G. c #B9BBB4",
"H. c #A1ABB4",
"J. c #C58B87",
"K. c #C89888",
"L. c #D39B84",
"P. c #DA9C82",
"I. c #D19D8B",
"U. c #D49584",
"Y. c #C79A96",
"T. c #DD9F9A",
"R. c #CAA385",
"E. c #D6A483",
"W. c #DBA483",
"Q. c #DCAB84",
"!. c #D4A18C",
"~. c #D9A888",
"^. c #CBA49C",
"/. c #C8A39A",
"(. c #D1A294",
"). c #D1A59B",
"_. c #D6AB99",
"`. c #CEB29B",
"'. c #E1A582",
"]. c #E2AB85",
"[. c #E3AD89",
"{. c #E5B28C",
"}. c #E8B48E",
"|. c #E9B991",
" X c #E2B395",
".X c #E0AB92",
"XX c #C3ABA4",
"oX c #CCABA3",
"OX c #CAA7A5",
"+X c #D2ABA4",
"@X c #D3ADAA",
"#X c #D7AAA5",
"$X c #CCB3AB",
"%X c #C7B4A9",
"&X c #D3B3AB",
"*X c #D9B4AD",
"=X c #D4B6AB",
"-X c #C9BBB7",
";X c #D5B5B2",
":X c #D4BAB4",
">X c #DABDBC",
",X c #D9B9B6",
"<X c #D0AAB2",
"1X c #E0BCBA",
"2X c #E3B6AA",
"3X c #B8C3B5",
"4X c #C3C3B4",
"5X c #C8C9BA",
"6X c #DBC2BB",
"7X c #D8C4B9",
"8X c #D1CAB7",
"9X c #E1C6BB",
"0X c #87AAC5",
"qX c #92ADC3",
"wX c #99B6C9",
"eX c #97BBD4",
"rX c #8CB7D0",
"tX c #A4BCCA",
"yX c #AABED0",
"uX c #DCBEC3",
"iX c #E2BFC0",
"pX c #99C3DA",
"aX c #8FC2DA",
"sX c #A6C6D8",
"dX c #B6CBD7",
"fX c #B7CCD7",
"gX c #AAD0E3",
"hX c #9ECDE0",
"jX c #C8C7C4",
"kX c #DCC4C4",
"lX c #DCC9C7",
"zX c #D8DAD9",
"xX c #D4D5CA",
"cX c #E4CCC3",
"vX c #E2CCCB",
"bX c #E6C6C2",
"nX c #E4D1CC",
"mX c #E9D4CC",
"MX c #E6D4D4",
"NX c #EAD9D7",
"BX c #E0CFD1",
"VX c #E9E8E7",
"CX c #F1E2E4",
"ZX c #DFDFE2",
"AX c None",
/* pixels */
"AXAXAXAXAXAXAXAXAXAXAXAXAXAXAXAXAXAXAXAXAXAXAXAXAXAXAXAXAXAXAXAXAXAXAXAXAXAXAXAXAXAXAXAXAXAXAXAXAXAXAXAXAXAXAXAXAXAXAXAXAXAXAXAXAXAXAXAXAXAXAXAXAXAXAXAXAXAXAXAX",
"AXAXAXAXAXAXAXAXAXAXAXAXAXAXAXAXAXAXAXAXAXAXAXAXAXAXAXAXAXAXAXAXAXAXAXAXAXAXAXAXAXAXAXAXAXAXAXAXAXAXAXAXAXAXAXAXAXAXAXAXAXAXAXAXAXAXAXAXAXAXAXAXAXAXAXAXAXAXAXAX",
"AXAXAXAXAXAXAXAXAXAXAXAXAXAXAXAXAXAXAXAXAXAXAXAXAXAXAXAXAXAXAXAXAXAXAXAXAXp.i.AXAXAXAXAXAXAXAXAXAXAXAXAXAXAXAXAXAXAXAXAXAXAXAXAXAXAXAXAXAXAXAXAXAXAXAXAXAXAXAXAX",
"AXAXAXAXAXAXAXAXAXAXAXAXAXAXAXAXAXAXAXAXAXAXAXAXAXAXAXAXAXAXAXAXAXAXAXp.) ( P K AXAXAXAXAXAXAXAXAXAXAXAXAXAXAXAXAXAXAXAXAXAXAXAXAXAXAXAXAXAXAXAXAXAXAXAXAXAXAXAX",
"AXAXAXAXAXAXAXAXAXAXAXAXAXAXAXAXAXAXAXAXAXAXAXAXAXAXAXAXAXAXAXAXAX( P b v k j j h AXAXAXAXAXAXAXAXAXAXAXAXAXAXAXAXAXAXAXAXAXAXAXAXAXAXAXAXAXAXAXAXAXAXAXAXAXAXAX",
"AXAXAXAXAXAXAXAXAXAXAXAXAXAXAXAXAXAXAXAXAXAXAXAXAXAXAXAXAXAXAX( j a y a a a a y y e AXAXAXAXAXAXAXAXAXAXAXAXAXAXAXAXAXAXAXAXAXAXAXAXAXAXAXAXAXAXAXAXAXAXAXAXAXAX",
"AXAXAXAXAXAXAXAXAXAXAXAXAXAXAXAXAXAXAXAXAXAXAXAXAXAXAXAXAXk.Y j a 8 a 8 8 t t e 8 8 y AXAXAXAXAXAXAXAXAXAXAXAXAXAXAXAXAXAXAXAXAXAXAXAXAXAXAXAXAXAXAXAXAXAXAXAXAX",
"AXAXAXAXAXAXAXAXAXAXAXAXAXAXAXAXAXAXAXAXAXAXAXAXAXAXAXv.k.( j t 8 8 8 8 a a t ; ; > e y f AXAXAXAXAXAXAXAXAXAXAXAXAXAXAXAXAXAXAXAXAXAXAXAXAXAXAXAXAXAXAXAXAXAXAX",
"AXAXAXAXAXAXAXAXAXAXAXAXAXAXAXAXAXAXAXAXAXAXAXAXAXAXs.y.Y m j t 8 8 8 t a g t - ; 6 e y y y AXAXAXAXAXAXAXAXAXAXAXAXAXAXAXAXAXAXAXAXAXAXAXAXAXAXAXAXAXAXAXAXAXAX",
"AXAXAXAXAXAXAXAXAXAXAXAXAXAXAXAXAXAXAXAXAXAXAXAXAXs.Y v v U j t 8 t 8 ; j j e - ; t y y < < < y AXAXAXAXAXAXAXAXAXAXAXAXAXAXAXAXAXAXAXAXAXAXAXAXAXAXAXAXAXAXAXAX",
"AXAXAXAXAXAXAXAXAXAXAXAXAXAXAXAXAXAXAXAXAXAXAXG.Z.U v a a U j t 8 8 8 - a t 6 e ; h f i i y r < i AXAXAXAXAXAXAXAXAXAXAXAXAXAXAXAXAXAXAXAXAXAXAXAXAXAXAXAXAXAXAX",
"AXAXAXAXAXAXAXAXAXAXAXAXAXAXAXAXAXAXAXAXAXAXG.v.u.v s 9 8 c v a t 8 8 - ; 6 e > > y y f f f f f f f AXAXAXAXAXAXAXAXAXAXAXAXAXAXAXAXAXAXAXAXAXAXAXAXAXAXAXAXAXAX",
"AXAXAXAXAXAXAXAXAXAXAXAXAXAXAXAXAXAXAXAXAXZ.p.y.m b c t 7 7 a a 8 8 ; - - ; > ; e < , u u d d k f f f AXAXAXAXAXAXAXAXAXAXAXAXAXAXAXAXAXAXAXAXAXAXAXAXAXAXAXAXAX",
"AXAXAXAXAXAXAXAXAXAXAXAXAXAXAXAXAXAXAXAXAXz.Y v v U v a 7 - 7 t 6 ; - - & - ; ; ; > , , < d C k d d f k AXAXAXAXAXAXAXAXAXAXAXAXAXAXAXAXAXAXAXAXAXAXAXAXAXAXAXAX",
"AXAXAXAXAXAXAXAXAXAXAXAXAXAXAXAXAXAXAXAXA.i.U v c g v a 8 - & & 7 6 e 6 ; ; ; ; ; ; > , , 1 C C d d u f Z AXAXAXAXAXAXAXAXAXAXAXAXAXAXAXAXAXAXAXAXAXAXAXAXAXAXAX",
"AXAXAXAXAXAXAXAXAXAXAXAXAXAXAXAXAXAXAXAXv.Y U Y b g t t t t t t t j K K Z k p w 1 B B B B 1 1 1 u r u y h P AXAXAXAXAXAXAXAXAXAXAXAXAXAXAXAXAXAXAXAXAXAXAXAXAXAX",
"AXAXAXAXAXAXAXAXAXAXAXAXAXAXAXAXAXAXAXAX) b b b b s a s v Y u.f.f.h.j.j.h.] ` R R ' } } ' ' E G D C 1 u r y ( AXAXAXAXAXAXAXAXAXAXAXAXAXAXAXAXAXAXAXAXAXAXAXAXAX",
"AXAXAXAXAXAXAXAXAXAXAXAXAXAXAXAXAXAXAXD.U b U Y b s v Y h.b.A.OXOXOXOXOX(./.K.K.K.L.L.L.E.:.*.$...G C u < , i D.AXAXAXAXAXAXAXAXAXAXAXAXAXAXAXAXAXAXAXAXAXAXAXAX",
"AXAXAXAXAXAXAXAXAXAXAXAXAXAXAXAXAXAXAXZ.Y Y y.y.m v U k.<XkXuX-X;X<X+XoX^.(.(.!.I.!.P.E.E.W.Q.].<.;.` D < ; < v.AXAXAXAXAXAXAXAXAXAXAXAXAXAXAXAXAXAXAXAXAXAXAXAX",
"AXAXAXAXAXAXAXAXAXAXAXAXAXAXAXAXAXAXjXs.y.Y Y u.( T l.uXBXNXBXkX:X$X+XoX_.(.!.!.!.!.!.~.W.[.[.[.{.].,.` d > e ) AXAXAXAXAXAXAXAXAXAXAXAXAXAXAXAXAXAXAXAXAXAXAXAX",
"AXAXAXAXAXAXAXAXAXAXAXAXAXAXAXAXAXAX-Xs.y.y.y.u.i.z.uXBXCXNXMXkX>X;X+XOX).(.!.I.L.!.W.W.[.[.}.|.|.|.Q.} C < < j AXAXAXAXAXAXAXAXAXAXAXAXAXAXAXAXAXAXAXAXAXAXAXAX",
"AXAXAXAXAXAXAXAXAXAXAXAXAXAXAXAXAXAXyXs.u.u.y.u.p.A.BXCXCXCXMXvX>X:X@X).).(.!.I.L.E.I.~.~.[.}. X|.|.|...A < > i ) AXAXAXAXAXAXAXAXAXAXAXAXAXAXAXAXAXAXAXAXAXAXAX",
"AXAXAXAXAXAXAXAXAXAXAXAXAXAXAXAXAXAXuXs.i.u.u.i.p.-XMXCXCXNXMXvX>X,X@X+X(.(.!.I.I.L.P.W.W.[.{.}.|.|.|.$.S 1 < u ) AXAXAXAXAXAXAXAXAXAXAXAXAXAXAXAXAXAXAXAXAXAXAX",
"AXAXAXAXAXAXAXAXAXAXAXAXAXAXAXAXAXAXG.k.p.i.u.i.s.uXNXCXCXMXBXvX>X;X@X).).!.I.I.L.L.I.P.W.W.[.{.|.|.|.>.` C u r ) AXAXAXAXAXAXAXAXAXAXAXAXAXAXAXAXAXAXAXAXAXAXAX",
"AXAXAXAXAXAXAXAXAXAXAXAXAXAXAXAXAXAX-Xz.z.i.y.i.z.uXMXCXNXmXBXkX>X,X@X+X(.(.I.L.K.L.U.*.W.W.].[.{.|.|.Q.' D u u AXAXAXAXAXAXAXAXAXAXAXAXAXAXAXAXAXAXAXAXAXAXAXAX",
"AXAXAXAXAXAXAXAXAXAXAXAXAXAXAXAXAXAXAXv.N.i.i.i.z.uXMXNXNXvXvXbX>X;X@X).(.I.K.I.U.L.L.*.P.W.].[.{.{.|.Q.} S d f AXAXAXAXAXAXAXAXAXAXAXAXAXAXAXAXAXAXAXAXAXAXAXAX",
"AXAXAXAXAXAXAXAXAXAXAXAXAXAXAXAXAXAXAXk.z.i.i.p.Z.uXMXCXMXvXlXkX>X;X+X^.(.I.I.I.U.K.L.*.W.W.].[.].{.{.{.$.G C d AXAXAXAXAXAXAXAXAXAXAXAXAXAXAXAXAXAXAXAXAXAXAXAX",
"zXAXAXAXAXAXAXAXAXAXAXAXAXAXAXAXAXAXAXz.z.z.i.p.z.-XMXNXMXvXlXuX,X&X+X).(.(.I.I.L.L.L.L.P.W.W.Q.Q.].{.{.>.` D Z AXAXAXAXAXAXAXAXAXAXAXAXAXAXAXAXAXAXAXAXAXAXAXAX",
"VXAXAXAXAXAXAXAXAXAXAXAXAXAXAXAXAXAXAXZ.h.k.p.p.z.uXMXNXnXlX6X,X@X+X+XY.Y.I.I.I.I.L.U.L.U.*.*.-.>.<.<.Q.Q.$.S S I AXAXAXAXAXAXAXAXAXAXAXAXAXAXAXAXAXAXAXAXAXAXAX",
"VXAXAXAXAXAXAXAXAXAXAXAXAXAXAXAXAXAXAXZ.p.k.p.p.z.kXnXMXlX:X$XOXY.x.K.K.I.I.K.I.U.U.$.+.+...' ' ..$.$.E.Q.:.` R _ AXAXAXAXAXAXAXAXAXAXAXAXAXAXAXAXAXAXAXAXAXAXAX",
"VXAXAXAXAXAXAXAXAXAXAXAXAXAXAXAXAXAXAXD.p.z.z.z.Z.vXmXkX%Xx.f.T T L I Q [ +.K.I.U.+.o.' H S A F G ' $.*.~.E.} R _ h.AXAXAXAXAXAXAXAXAXAXAXAXAXAXAXAXAXAXAXAXAXAX",
"VXAXAXAXAXAXAXAXAXAXAXAXAXAXAXAXAXAXAXG.p.k.p.l.-XMXvX;X/.h.g.Q I L G L W J.K.I.-.%.@.o.E G R ' ..*.E.<.Q.~.$.| _ h.AXAXAXAXAXAXAXAXAXAXAXAXAXAXAXAXAXAXAXAXAXAX",
"VXAXAXAXAXAXAXAXAXAXAXAXAXAXAXAXAXAXAX-Xp.h.k.b.lXNX6X$XoXb.J.W R A V L L J.).!.P.-.O.J F V V K R +.*.E.{.<.<.' ` b.AXAXAXAXAXAXAXAXAXAXAXAXAXAXAXAXAXAXAXAXAXAX",
"VXAXAXAXAXAXAXAXAXAXAXAXAXAXAXAXAXAXAXjXp.k.z.A.mXMX7X=X$X/.g.T Z s w B L g.#X_.'.=.O.F w w ; q V E ' ;.<.<.{.} ' n.AXAXAXAXAXAXAXAXAXAXAXAXAXAXAXAXAXAXAXAXAXAX",
"VXAXAXAXAXAXAXAXAXAXAXAXAXAXAXAXAXAXAXzXk.z.l.OXnXnX6X7X^.] T 9 5 7 t ; L x.+X_.P.=.O.J w Z w s A ' J o.&.1.Q...} +.AXAXAXAXAXAXAXAXAXAXAXAXAXAXAXAXAXAXAXAXAXAX",
"AXAXAXAXAXAXAXAXAXAXAXAXAXAXAXAXAXAXAXZXXXx.A.-XmXcX*XOXx.f.x.T s s w w Q Y.2X#XP.=.&.! V B A E ' O.;.;.&.<.].:.! #.AXAXAXAXAXAXAXAXAXAXAXAXAXAXAXAXAXAXAXAXAXAX",
"AXAXAXAXAXAXAXAXAXAXAXAXAXAXAXAXAXAXVXMXY.Y.A.-XmXcX7X`.OXY.OXf.L V w V g.*X>X#XP.P.=.O.~ A F E o.O.%.&.,.1.].>.! #.AXAXAXAXAXAXAXAXAXAXAXAXAXAXAXAXAXAXAXAXAXAX",
"AXAXAXAXAXAXAXAXAXAXAXAXAXAXAXAXAXAXVXNXI.@X-X,XmX9X,X&X+XY.Y.[ Q L I g.@X>X1X#XP.=.=.&.%.o.E ! o.O.%.&.,.1.].<.O.-.AXAXAXAXAXAXAXAXAXAXAXAXAXAXAXAXAXAXAXAXAXAX",
"AXAXAXAXAXAXAXAXAXAXAXAXAXAXAXAXAXAXVXCXT.2X:X7XmXmX9X,X+XK.J.W T Q g.@X1X1X1X#XP.&.&.&.&.&.@.O.X.X.%.-.1.1.}.].-..XAXAXAXAXAXAXAXAXAXAXAXAXAXAXAXAXAXAXAXAXAXAX",
"AXAXAXAXAXAXAXAXAXAXAXAXAXAXAXAXAXAXVXNX).2X,X:XmXmXcX9X*X).J.W g.g.+X@X1X1X1X#XU.&.=.&.&.O.O.#.@.@.%.=.1.1.}.].'.2XAXAXAXAXAXAXAXAXAXAXAXAXAXAXAXAXAXAXAXAXAXAX",
"AXAXAXAXAXAXAXAXAXAXAXAXAXAXAXAXAXAXAXVX2X#X*X,XmXmXmXbX1X).J.g.g.J.Y.OX<X<X1XT.U.U.! U.O.O.O.O.#.#.#.=.'.'.}.[..X1XAXAXAXAXAXAXAXAXAXAXAXAXAXAXAXAXAXAXAXAXAXAX",
"AXAXAXAXAXAXAXAXAXAXAXAXAXAXAXAXAXAXAXVXbX#X#X6XmXmXNXmX1X<XY.g.g.g.J.J.T.1X<X#XT.#.P.#.O.! ~ ! #.#.-.P.'.[.}.}.{.9XAXAXAXAXAXAXAXAXAXAXAXAXAXAXAXAXAXAXAXAXAXAX",
"AXAXAXAXAXAXAXAXAXAXAXAXAXAXAXAXAXAXAXzX6X#X=X6XmXmXNXmXuX#XY.J.g.Q Q J.1XiX<X<XT.P.P.-.O.O.H J ! +.#.P.'.}.}.[._.7XAXAXAXAXAXAXAXAXAXAXAXAXAXAXAXAXAXAXAXAXAXAX",
"AXAXAXAXAXAXAXAXAXAXAXAXAXAXAXAXAXAXAXxX-X*X*X6XmXmXmXvXuX<XY.g.Q L L Y.T.<X<X<X#.P.'.! O.O.! J J ! #.U.'.'.}.[._.7XAXAXAXAXAXAXAXAXAXAXAXAXAXAXAXAXAXAXAXAXAXAX",
"AXAXAXAXAXAXAXAXAXAXAXAXAXAXAXAXAXAXAXVXG.,X,X>XmXmXcXbX,X<XJ.Q V V Q Y.g.Q J.Y.#.! ! ! ~ O.O.H F J +.U.P.'.].[.K.n.AXAXAXAXAXAXAXAXAXAXAXAXAXAXAXAXAXAXAXAXAXAX",
"AXAXAXAXAXAXAXAXAXAXAXAXAXAXAXAXAXAXAXAXF.lX6X:XcXcX9X9X#X).J.L V L x.Y.Y.g.g.W Q ! J F J ! O.X.J F o.#.=.'.[.[.{ AXAXAXAXAXAXAXAXAXAXAXAXAXAXAXAXAXAXAXAXAXAXAX",
"AXAXAXAXAXAXAXAXAXAXAXAXAXAXAXAXAXAXAXAXG.z.A.:XcXcX9X>X*XT.[ L V Q x.x.g.f.W Q Q F F F F H o.o.H F E +.=.'.[.].{ AXAXAXAXAXAXAXAXAXAXAXAXAXAXAXAXAXAXAXAXAXAXAX",
"AXAXAXAXAXAXAXAXAXAXAXAXAXAXAXAXAXAXAXAXyXb i.$X6X9X9X1X;XY.Q V K W x.g.g.g.W T L Q Q E H ' o...' F G X.,.1.].].$.AXAXAXAXAXAXAXAXAXAXAXAXAXAXAXAXAXAXAXAXAXAXAX",
"AXAXAXAXAXAXAXAXAXAXAXAXAXAXAXAXAXAXAXAXAX9 K OX>X9X6X,X=X(.R Z K f.x.Y.j.g.g.Q Q W E +.X.+...' H G G ..&.Q.1.W.AXAXAXAXAXAXAXAXAXAXAXAXAXAXAXAXAXAXAXAXAXAXAXAX",
"AXAXAXAXAXAXAXAXAXAXAXAXAXAXAXAXAXAXAXAXAX9 c h.-X6X7X,X=X(.I I T f.x.x.Y.Y.J.g.+.+.#.-.-.%.J V C F / ;.=.'.'.E.AXAXAXAXAXAXAXAXAXAXAXAXAXAXAXAXAXAXAXAXAXAXAXAX",
"AXAXAXAXAXAXAXAXAXAXAXAXAXAXAXAXAXAXAXAXAXAXjXG.$X9X=X=X=X).] I L s 7 L x.@X#X#XI.I.~. X X*.J J H ' X.&.=.,.W.AXAXAXAXAXAXAXAXAXAXAXAXAXAXAXAXAXAXAXAXAXAXAXAXAX",
"AXAXAXAXAXAXAXAXAXAXAXAXAXAXAXAXAXAXAXAXAXAXVXxX:X7X,X=X&X).K.] I K T f.Y.@X;X<X_.!.!.I.#.X.! O.%.;.%.&.,.1.,.AXAXAXAXAXAXAXAXAXAXAXAXAXAXAXAXAXAXAXAXAXAXAXAXAX",
"AXAXAXAXAXAXAXAXAXAXAXAXAXAXAXAXAXAXAXAXAXAXVXVX5X:X:X&X&X+X(.j.f.f.OXOX<X<X^.^.(.U.J.#.#.#.-.&.&.&.%.>.,.,.,.AXAXAXAXAXAXAXAXAXAXAXAXAXAXAXAXAXAXAXAXAXAXAXAXAX",
"AXAXAXAXAXAXAXAXAXAXAXAXAXAXAXAXAXAXAXAXAXAXAXzX-X%X=X&X+X=X+Xj.g.Y.-XkXuX<XY.J.J.J.! #.-.P.P.1.,.&.&.,.,.,.,.AXAXAXAXAXAXAXAXAXAXAXAXAXAXAXAXAXAXAXAXAXAXAXAXAX",
"AXAXAXAXAXAXAXAXAXAXAXAXAXAXAXAXAXAXAXAXAXAXAXjXs.l.$X&XoX=X=X`./.OX,XkXvX,X#XJ.J.J.U.U.P.[.].,.&.&.,.,.,.,.AXAXAXAXAXAXAXAXAXAXAXAXAXAXAXAXAXAXAXAXAXAXAXAXAXAX",
"AXAXAXAXAXAXAXAXAXAXAXAXAXAXAXAXAXAXAXAXAXAXAXAXM y.A.$XoXoX=X`.XXoX@XuXuX<X).Y.Y.Y.K.U.=.W.W.,.&.,.&.,.,.:.AXAXAXAXAXAXAXAXAXAXAXAXAXAXAXAXAXAXAXAXAXAXAXAXAXAX",
"AXAXAXAXAXAXAXAXAXAXAXAXAXAXAXAXAXAXAXAXAXAXAXAXm U A.$XoXXXoXoX$X$X$X;X;X&XOXY.K.K.K.K.*.,.,.=.&.:.;.%.*.~.AXAXAXAXAXAXAXAXAXAXAXAXAXAXAXAXAXAXAXAXAXAXAXAXAXAX",
"AXAXAXAXAXAXAXAXAXAXAXAXAXAXAXAXAXAXAXAXAXAXAXAXy.b A.-XXX`.oXoXoX$X$X&X@X+X/./.j.J.$.*.$.&.&.=.%.;.;.;.R.`.AXAXAXAXAXAXAXAXAXAXAXAXAXAXAXAXAXAXAXAXAXAXAXAXAXAX",
"AXAXAXAXAXAXAXAXAXAXAXAXAXAXAXAXAXAXAXAXAXAXAXAXp.c %X7XXXb.b.b.b.$X$X$XoXoX/.Y.K.{ +.$.%.%.%.$.;.' ` ' n.8XAXAXAXAXAXAXAXAXAXAXAXAXAXAXAXAXAXAXAXAXAXAXAXAXAXAX",
"AXAXAXAXAXAXAXAXAXAXAXAXAXAXAXAXAXAXAXAXAXAXAXAXy.7 D.nX$Xl.l.l.l.b.b.oXOXXX/.Y.g.[ ' [ ........' S ` R j.5XAXAXAXAXAXAXAXAXAXAXAXAXAXAXAXAXAXAXAXAXAXAXAXAXAXAX",
"AXAXAXAXAXAXAXAXAXAXAXAXAXAXAXAXAXAXAXAXAXAXAXtXy.& z.MXlXb.l.i.i.i.f.h.x.x.h.g.] Q R R H ` H ` | S ` C _ D.AXAXAXAXAXAXAXAXAXAXAXAXAXAXAXAXAXAXAXAXAXAXAXAXAXAX",
"AXAXAXAXAXAXAXAXAXAXAXAXAXAXAXAXAXAXAXAXAXAXN.M.N.@ T -XlX-Xb.h.u.T Y f.h.f.T T T K A A D S S G G G S > D D.AXAXAXAXAXAXAXAXAXAXAXAXAXAXAXAXAXAXAXAXAXAXAXAXAXAX",
"AXAXAXAXAXAXAXAXAXAXAXAXAXAXAXAXAXAXAXAXAXdXN.6.H.5 g z.7XkX%Xl.u.Y U Y T Y K K Z Z Z C C C C D G ` D : k `.-XAXAXAXAXAXAXAXAXAXAXAXAXAXAXAXAXAXAXAXAXAXAXAXAXAX",
"AXAXAXAXAXAXAXAXAXAXAXAXAXAXAXAXAXAXAXAX9.dXM.6.H.N 8 P A.-X8XA.f.Y b b P K k j i i p d p 1 C C ` } < + j n.4XD.AXAXAXAXAXAXAXAXAXAXAXAXAXAXAXAXAXAXAXAXAXAXAXAX",
"AXAXAXAXAXAXAXAXAXAXAXAXAXAXAXAXAXAXq.q.6.wXM.e.F.i.7 y i.XX-X-Xb.) b v v v j y > e < < 1 < p D } :.= O g A.3XD.S.v.AXAXAXAXAXAXAXAXAXAXAXAXAXAXAXAXAXAXAXAXAXAX",
"AXAXAXAXAXAXAXAXAXAXAXAXAXAXAXAX5.9.q.e.q.eXq.l N.H.a ; Z f.b.%X%XA.k.P v j h 8 ; ; > < < 1 D } >.} * X k %X8Xv.) M c a.( AXAXAXAXAXAXAXAXAXAXAXAXAXAXAXAXAXAXAX",
"AXAXAXAXAXAXAXAXAXAXAXAXAXAXAX5.4.9.B.wX0XyXm.z 5.yXb q y P h./.A.%XXXl.) b h > ; ; > < 1 D ' >.:.S o + P 4X5XD.c.( c ^ ( 9 5 h y.AXAXAXAXAXAXAXAXAXAXAXAXAXAXAX",
"AXAXAXAXAXAXAXAXAXAXAXAXAXAXd.9.9.q.qXqXq.qXM.q.6.fXs.c , C T h.b.b.`.A.l.] _ k d C D D | } >.<.} 2 o = ) 8X4X3XS.c.^ h ^ M 0 0 c m AXAXAXAXAXAXAXAXAXAXAXAXAXAX",
"AXAXAXAXAXAXAXAXAXAXAXAXn 5.d.d.9.w.r.w.e.e.sXsXM.fXF.( e p Z ] { v.n.b.b.b.n.] ] } { { :.<.<.:.G * o e l.8X8X5X3XS.a.N ^ ^ ^ 6 0 c y.AXAXAXAXAXAXAXAXAXAXAXAXAX",
"AXAXAXAXAXAXAXAXAXAXAXe.l l 5.5.4.8.e.e.e.r.fXgXV.sXsXc.v r f I ] h.n.l.n.n.n.j.:.:.:.<.{.<.>.' u # o v b.8XxX5X8X3Xv.^ h ( ^ ^ 5 9 c AXAXAXAXAXAXAXAXAXAXAXAXAX",
"AXAXAXAXAXAXAXAXAXAXAXl 4 4 l l l 4.e.w.t.qXgXzXrXq.fXzXv.1 p Z _ ` { j.j.n.n.R.n.:.Q.Q.<.<.} C : % + u.y.x ^ D.8X8X3XS.^ a.S.v.y.c c AXAXAXAXAXAXAXAXAXAXAXAXAX",
"AXAXAXAXAXAXAXAXAXAXAX4.l l c z z 8.w.r.t.t.sXgXpXe.sXzXG.( p d k _ ] { j.{ n.R.:.E.Q.Q.<.:.| > * + h D.a.5 @ g S.5X8X3X( ^ ) S.Z.m AXAXAXAXAXAXAXAXAXAXAXAXAXAX",
"AXAXAXAXAXAXAXAXAXAXAXAXl N n n 4.9.r.0X0XB.pXhXpXw.eXtXz.k.K p d D _ ] { { R.R.R.~.Q.Q.:.R i : % : s.jXS.N @ @ 7.3X3XS.q.^ ^ S.4X7.AXAXAXAXAXAXAXAXAXAXAXAXAXAX",
"AXAXAXAXAXAXAXAXAXAXAXAXAXz n n 4.e.0XrXaXV.F.sXpXrX0X9.5.C.u.K d C S ` ] { { R.R.~.~.:.' d ; @ @ N 3XxX3X7.9 4 ^ S.3X3X7.^ ^ ^ D.y.AXAXAXAXAXAXAXAXAXAXAXAXAXAX",
"AXAXAXAXAXAXAXAXAXAXAXAXAXAXAXn 8.B.pXpXeXV.V.pXeXeX0Xq.0.0.F.u.k d d | ` { { :.:.R.R.{ I ; #   @ s.4X3X3XS.7.0 ^ v.8X3XS.7.^ ^ 5.AXAXAXAXAXAXAXAXAXAXAXAXAXAXAX",
"AXAXAXAXAXAXAXAXAXAXAXAXAXAXAXAXw.rXpXaXr.M.B.rXpXeXeXqXm.6.s.H.u.a 8 D I ` { { { { _ j : O     5 3XD.G.S.3X3X^ b c.3X3X3X7.M AXAXAXAXAXAXAXAXAXAXAXAXAXAXAXAXAX",
"AXAXAXAXAXAXAXAXAXAXAXAXAXAXAXAXAXAXrXrXw.q.C.aXsXV.d.N.m.N.C.V.Z.( @ @ : 8 e t 9 7 : @ X     o h 3XS.3XS.S.F.S.a.v.4X3Xc.AXAXAXAXAXAXAXAXAXAXAXAXAXAXAXAXAXAXAX",
"AXAXAXAXAXAXAXAXAXAXAXAXAXAXAXAXAXAXAXAXB.m.B.V.sXV.N.0.9.wXpXrXsXC.9 X X X O X O O X X o * 2 2 D S.F.3XS.r.S.5Xv.S.3X3XAXAXAXAXAXAXAXAXAXAXAXAXAXAXAXAXAXAXAXAX",
"AXAXAXAXAXAXAXAXAXAXAXAXAXAXAXAXAXAXAXAXm.C.B.qXsXqXm.0.0.gXsXpXhXwX9.@ .     X X o o 2 3 /  ./ | S.C.3XC.C.F.fXS.AXAXAXAXAXAXAXAXAXAXAXAXAXAXAXAXAXAXAXAXAXAXAX",
"AXAXAXAXAXAXAXAXAXAXAXAXAXAXAXAXAXAXAXAXz 0.9.q.0XM.5.z 0.gXpXaXaXpXaXx # X o * 2 2 /  .3.3.3. .| 3XC.3XS.C.C.C.7.AXAXAXAXAXAXAXAXAXAXAXAXAXAXAXAXAXAXAXAXAXAXAX"
};
