/* XPM */
static char *_fec4e4b54e648c7b200db8af409b06fz5O9z6bwtqHYJOcf[] = {
/* columns rows colors chars-per-pixel */
"83 83 235 2 ",
"   c None",
".  c #050E18",
"X  c #0A121B",
"o  c #14161A",
"O  c #1A1B1E",
"+  c #131419",
"@  c #211E1F",
"#  c #0C1722",
"$  c #141B23",
"%  c #1B1E22",
"&  c #131E28",
"*  c #201F22",
"=  c #16212B",
"-  c #1C242C",
";  c #1C2023",
":  c #1B2631",
">  c #1D2934",
",  c #1B2934",
"<  c #242224",
"1  c #2C2A2B",
"2  c #262729",
"3  c #372B29",
"4  c #3B312E",
"5  c #232C35",
"6  c #232E39",
"7  c #2D2E30",
"8  c #25313D",
"9  c #2B343C",
"0  c #2C3134",
"q  c #373537",
"w  c #312D30",
"e  c #48332C",
"r  c #443935",
"t  c #473B37",
"y  c #563B34",
"u  c #462D2B",
"i  c #643C38",
"p  c #4D413C",
"a  c #54433B",
"s  c #5A453B",
"d  c #66453C",
"f  c #72423E",
"g  c #263441",
"h  c #293642",
"j  c #2B3945",
"k  c #2D3D4A",
"l  c #303F4C",
"z  c #343D43",
"x  c #2F3F50",
"c  c #423F40",
"v  c #31414E",
"b  c #3C444A",
"n  c #344453",
"m  c #394857",
"M  c #374858",
"N  c #3B4C5C",
"B  c #374756",
"V  c #3F505F",
"C  c #2F404F",
"Z  c #3D4E61",
"A  c #3E5161",
"S  c #4A484A",
"D  c #5C4B43",
"F  c #554946",
"G  c #434E5C",
"H  c #49545A",
"J  c #585557",
"K  c #5B4F4C",
"L  c #634D43",
"P  c #6C4C43",
"I  c #654945",
"U  c #754D46",
"Y  c #6C5245",
"T  c #65534A",
"R  c #6C554A",
"E  c #6A5549",
"W  c #735445",
"Q  c #74554A",
"!  c #7A554B",
"~  c #735A4C",
"^  c #7B5B4C",
"/  c #795446",
"(  c #6B5A53",
")  c #645B58",
"_  c #745C52",
"`  c #7B5E53",
"'  c #775F5C",
"]  c #6E625C",
"[  c #7C6253",
"{  c #74645B",
"}  c #7A665D",
"|  c #7C685E",
" . c #756057",
".. c #7E604F",
"X. c #435364",
"o. c #455669",
"O. c #47596C",
"+. c #4A5B6D",
"@. c #4B5967",
"#. c #4B5E71",
"$. c #475C70",
"%. c #455261",
"&. c #655F62",
"*. c #58636A",
"=. c #4E6175",
"-. c #4F6478",
";. c #51657A",
":. c #54697E",
">. c #556677",
",. c #6B6766",
"<. c #756964",
"1. c #7C6B63",
"2. c #786A66",
"3. c #6C767A",
"4. c #727273",
"5. c #825C4D",
"6. c #83554D",
"7. c #825D53",
"8. c #8A5954",
"9. c #965959",
"0. c #85604E",
"q. c #836454",
"w. c #8C6352",
"e. c #8C6D5B",
"r. c #886858",
"t. c #936C5B",
"y. c #966958",
"u. c #8E715E",
"i. c #9C725D",
"p. c #95735E",
"a. c #A1715C",
"s. c #846D62",
"d. c #966D63",
"f. c #87746B",
"g. c #947362",
"h. c #9C7463",
"j. c #9A7A66",
"k. c #9C7D6A",
"l. c #94776B",
"z. c #887A75",
"x. c #977D75",
"c. c #A46A64",
"v. c #A37463",
"b. c #A57A64",
"n. c #A27D6C",
"m. c #AB7B6C",
"M. c #AA7968",
"N. c #B87A77",
"B. c #AF776F",
"V. c #C17A7C",
"C. c #9F816E",
"Z. c #9A8478",
"A. c #8C827B",
"S. c #AD826C",
"D. c #A4816D",
"F. c #B5846D",
"G. c #A38473",
"H. c #AA8472",
"J. c #AC8B75",
"K. c #A88979",
"L. c #B28472",
"P. c #BB8C74",
"I. c #B58B7A",
"U. c #BB8C7C",
"Y. c #B88577",
"T. c #BD937D",
"R. c #B7927A",
"E. c #AD907D",
"W. c #C28C7B",
"Q. c #C3967D",
"!. c #566B81",
"~. c #596E84",
"^. c #5C7287",
"/. c #6D7A87",
"(. c #798387",
"). c #878787",
"_. c #969C9E",
"`. c #8E8E91",
"'. c #A48D83",
"]. c #B68C82",
"[. c #AB9387",
"{. c #BD9282",
"}. c #BC9A85",
"|. c #BD9D8B",
" X c #B49787",
".X c #BA9D94",
"XX c #A89D9B",
"oX c #BBA496",
"OX c #B7A293",
"+X c #9AA6AD",
"@X c #B6BABA",
"#X c #ACAFB2",
"$X c #919CA0",
"%X c #C68B89",
"&X c #C29483",
"*X c #C99484",
"=X c #C49B85",
"-X c #C49C8A",
";X c #CB9C8A",
":X c #C89987",
">X c #C99A93",
",X c #D19994",
"<X c #CAA28D",
"1X c #C4A28B",
"2X c #C5A592",
"3X c #CCA693",
"4X c #CDAA94",
"5X c #C4AB9C",
"6X c #C8A99A",
"7X c #D4A494",
"8X c #D2AA96",
"9X c #D4AC9B",
"0X c #DAAD9C",
"qX c #D6A59A",
"wX c #D5B29C",
"eX c #DBB49E",
"rX c #CEAA96",
"tX c #D9ADA3",
"yX c #C9B6A7",
"uX c #D4B4A2",
"iX c #DCB5A2",
"pX c #DCBBA4",
"aX c #DBBAA9",
"sX c #C7B3A7",
"dX c #E2BAA8",
"fX c #E2BBB2",
"gX c #DDC0AA",
"hX c #C8C3BD",
"jX c #DBC6B8",
"kX c #E3C1AC",
"lX c #E2C3B4",
"zX c #BAC3C6",
"xX c #D1CCC7",
"cX c #E3D2CB",
"vX c #E4E5E2",
/* pixels */
"                                                                                                                                                                      ",
"                                                                xXsXoXOX                                                                                              ",
"                                                          yXOX[.E.K.G.Z.Z.Z.Z.Z.Z.'.XXvX                                                                              ",
"                                                      hXoX XE.J.D.j.h.p.g.g.g.g.l.l.Z.'.hX_.                                                                          ",
"                                                    5X}.T.I.S.S.b.i.i.t.t.t.e.e.e.r.r.f.f.A.xX                                                                        ",
"                                                  2X|.T.P.P.F.S.b.b.i.i.t.y.e.r.q.q.q.q.r.s.A.                                                                        ",
"                                              sX2X=XT.P.P.P.F.S.b.b.b.b.i.y.w.q.0.5.^ ^ ^ [ s.f.z.                                                                    ",
"                                              2X=XQ.Q.P.P.P.P.F.S.b.b.b.a.t.y.w.0.^ / / / ~  .s.z.                                                                    ",
"                                          @X6X-X=XQ.Q.Q.P.P.P.P.F.S.S.b.b.i.t.w.0.^ / / W W ~  .s.A.                                                                  ",
"                                          yX<X;X=X=XQ.Q.Q.T.P.P.P.L.L.F.b.a.t.y.0.^ / W W W Y ~  .f.@X                                                                ",
"                                        xX4X<X<X;X=X=X=XQ.T.P.P.U.P.L.L.m.v.t.w.0.5./ / W W Y Y ~ } z.                                                                ",
"                                        jX3X8X8X<X<X;X;X=X&X&X&XT.U.P.S.b.v.t.w.w.5.^ W / W Y Y Q _ 1.hX                                                              ",
"                                        uX8X9XwX9X8X<X;X;X&XT.&X&XU.P.S.b.b.i.y.w.5.^ / / / W W Q _ } ).                                                              ",
"                                        9X8X9XeXiX8X<X;X:X&XU.{.&XU.I.L.m.b.i.y.w.5.^ / / / W W Q ~ { f.                                                              ",
"                                        9X9XeXiXiX8X;X<X;X&X&X&X=X{.I.L.S.b.v.y.w.5./ / / Q W W W Q  .1.#X                                                            ",
"                                      .X9X9XeXeX0X8X;X:X=X{.U.&X-X&XU.I.L.S.n.g.t.q./ / ^ / W W Q R _ } `.                                                            ",
"                                      9X9XeXeXeX0X9X7X;X&X{.U.U.-X-X&XU.I.H.n.g.r.~ L s D Y W W W R ~ { z.                                                            ",
"                                      9X9XeXiXiXiX0X9X3X&X&X&XU.{.3X:XI.J.G.l._ D t t r r t D Y Y R _  .1.                                                            ",
"                                      9X9XeXwXiXiXiX9XrX-X{.&X{.I.-X>XH.G.s.T t 4 4 p t r r p L T E _ { 1.).                                                          ",
"                                      wXwXwX9X9XuXuX6X6X-X}.-X{.Y.L.-Xn.l._ D D ( s.s.' L a p D T E _ { <.A.                                                          ",
"                                      wXwX9X|.[.[.[.K.Z.K.G.I.{.H.h.}.k.[ ' r.j.b.h.q.Q W L D D T R _ } { 2.                                                          ",
"                                      uX9XK.s.<.] ( <.f.l.k.G.-XI.n.D.e.Q e.g.t.d.P y y e a s E R R _ 1.{ { Z.l.                                                      ",
"                                      uX Xf.f.z.x.'.Z.k.n.D.H.3XrXI.g.W d q.^ ' &.q 3 J u 3 y ~ ~ R ~ } <.( P f                                                       ",
"                                      aXoX'.[.oX2X=XL.b.b.M.F.<XiX{.g.P y W P ' z.F u T y u y W / ~ ~ | 1.( _ U _.                                                    ",
"                                      jX5X[.oX<X{.H.r./ U y.M.<X0XU.i.P d P ` d.d.e.` P I Q d W ^ / _ | 1._ Q U                                                       ",
"                                      cX6XoX4XL.x.4.K 3 P / v.-X7XW.c.U d W 7.d.h.d.y.w.5./ 5.7./ Q _ | f._ U !                                                       ",
"                                        uX6X-Xt.Z.#X) I 8.8.m.7X7X*Xc.U d P / 7.w.w.w.8.w.d.h.y.q.^ ' | s.d i 7.                                                      ",
"                                        aXuX3Xn.].>X].M.v.M.U.9XqX;XM./ d d W r.y.y.h.m.m.m.v.y.q.^ ' | 1.Q i 7.                                                      ",
"                                        jXpX8X3X7X;X&XW.U.B.;X0X0XqXL.8.P i d ! d.m.m.L.m.m.v.y.q.` ' | 1.' i !                                                       ",
"                                      9X9XpX8X7X<X;X;X:XW.:X7X0XtXtX{.c.! d d d U v.U.U.L.m.v.y.7.` ` | 1.} d ! hX                                                    ",
"                                      fXtXpX8XW.:X;X:X*X;X:X;X7XaXtX%XY.8.Q / U d w.M.&XY.m.v.y.7.^ _ } 1.1.U 7.XX                                                    ",
"                                        aXpXeX7X;X*XW.*X:XF.Y.0XdXdX&XU.8.U ^ ! i ! w.M.Y.Y.M.y.` Q ~  .<.1.P ! XX                                                    ",
"                                        cXdXdXiXqX;X*X*XY.B.%XfXtXqX*Xm.U 3 e y d W 6.y.i.L.m.y.Q ~ ~ _ } } U U x.                                                    ",
"                                          lXfXdXtX7X*XW.B.Y.%X7XM.m.:XM.Q I y D I P P Q q.y.F.h.^ Q ^ ~ { } U Q x.                                                    ",
"                                          lXlXfXtXqX:XB.y.U.>X>X X.X XG.l.s._ R E E L I ~ q.t.H.q.~ ~ ~ { 1.I Q #X                                                    ",
"                                          cXkXfXdX7XW.y.v.-X6X5X5X5X[.'.[.G.r.` ' _ E I R [ ^ I.e.~ ~ ~ _ 1.                                                          ",
"                                            dXdX0X;Xm.i.E..XoXoX6X6X}.n.I.Y.c.y.9.6.U P Y [ [ I.t.~ ~ ~ _ 2.                                                          ",
"                                            dXiX0X:Xv.G. X5X5X9XqX,X%XN.B.9.9.8.8.! I y s [ q.J.t.~ ~ ~ _ 2.                                                          ",
"                                            lXeXeX=Xi.[. XuXtX,X,X%XN.c.9.9.9.8.U i y y P / e.J.e.~ ~ ~ _ <.                                                          ",
"                                            lXpXpX<Xv.E.2X9X&X,X>X%XN.B.B.B.c.9.6.! / W W Y e.S.r.~ ~ ~ _ <.                                                          ",
"                                            lXgXgXwXI.k. X{.%X%X,X,X%XV.B.N.Y.n.d.q.^ q./ s P j.q.~ ~ _ ( <.                                                          ",
"                                            cXaXgXpX3XH.G.2X0XiXfXaXtX-X].K.G.g.d.g.i.y./ a r R ~ ~ ~ ( ( <.                                                          ",
"                                              jXaXgXwX-XH.2X0XiXuX5XoXE.Z.l.l.k.n.n.t.! ^ a 3 r T ~ R ( ( <.                                                          ",
"                                                aXgXaX4XG.E.eXeX0X8X3X{.G.n.l.r.t.t.w.^ Y r < 1 a T T ( ( ]                                                           ",
"                                                jXkXgXwX].g.2X3X3X9X8X3X|. XG.7.^ ` L a r 1 O 1 r T T ( ( ]                                                           ",
"                                                  gXaXwX[.1.Z..X.X2X2X[.'.K.l._ a a t 1 < * + < r D T T ( ( xX                                                        ",
"                                                  jXaXwX|.z.] f.z.x.K.z.f.l.s.K r 4 < O + + + < t D K T T ( XX                                                        ",
"                                                    gXuX6X1.) ) ) 2.2.f.' | | F w 2 + + + + + * t D D T R R <.zX                                                      ",
"                                                      uXyXA.J J J ,.) ) K ( ( F w < + + O O O < t s D T R R } J )._.(.                                                ",
"                                                      xXyX'.J S J ,.J K c t p q 1 % + + + O O 4 a s L T R ~  .t 2 ; *.                                                ",
"                                                        jX5Xz.S K J S S z 1 2 1 < O + + + O 1 a s D T E R ~ [ r 2 w O 3.+X                                            ",
"                                                        cX9X[.J S S S S 7 2 < 7 % O O + @ 4 L L L E R R R ~ ~ 4 % 1 3 0 9 b ).@X                                      ",
"                                                        xXpX4X'.S S c q w 2 1 2 % O O r L T L L Y R Q Q ~ / R 1 % % a 7 9 5 z b H (.#XzX                              ",
"                                                      ,.q pXiX4X X<.S S q w 1 1 w t T ~ R R T R ~ / / ~ ~ ~ d 3 % o s 2 5 - - 5 9 z b H *.(.+X@X                      ",
"                                                    4.+ r uXaXiX8X2XZ.<.) D ] { | q.[ [ ~ R E ~ / ^ / / ~ / d 4 O + p - - > - - > - 5 8 9 z b H *.3.`.#XzX            ",
"                                                @X3.+ L ,.5XkXdXeXwX4X4X|.}.E.G.k.u.r.[ ` ~ ~ ^ [ q.^ / / W Y e o O q > - - - 5 5 5 8 8 8 8 8 8 5 8 8 9 z             ",
"                                            #X>.>.*.u t.4.x.kXkXdXeXeXwX4X3X1XR.H.j.e.q.[ [ [ q.q.r.q.^ / W W t + < 2 : - : - - : 6 6 6 8 5 8 9 9 9 9 j z             ",
"                                        #X*.@.@.>.*.d p./.t 2XdXdXiXeXeXeXwX3X=XR.S.j.e.r.r.e.r.u.e.q.^ ^ ^ ^ a . 1 & = - > : > 5 8 8 6 6 8 h h 9 h h h h             ",
"                                      (.@.G m X.#.>.d j.).3 e.iXdXiXeXeXeXeXwX1XT.J.k.g.g.u.g.g.g.e.q...q.q.q.r + $ = = : > : : 6 9 8 8 8 8 8 8 8 8 9 h j             ",
"                                  `.*.G m N X.o.+.^.L k.4.4 y }.wXeXeXiXeXeXwX<X}.R.D.j.g.j.C.C.k.g.r.q.q.e.u.1 % $ & : > > > 5 5 6 6 8 8 8 j j h h h j j             ",
"                              _.*.N m m G X.X.N #.:.J e.] q e g.1XwXeXdXiXeXwX4X=XT.J.G.G.J.J.J.G.j.q.r.u.g.l.; X # & > > > 6 5 6 6 8 8 8 8 8 j j h j k k             ",
"                          $X3.@.G G G X.X.o.o.G O.#.^.{ { q e / J.4XwXpXiXpXwXwX3X1X}.E.J.E. X XJ.j.e.e.k.C.x.% . # & > > > : > 6 8 h h j j h j h j j j h             ",
"                    xX_.3.@.X.X.X.X.X.X.X.+.+.G G +.!./.] S e d j.1XrXpXpXpXwXwX4X<X=X}.R.}.|.|.E.k.g.k.G.K.,.$ X # = : > 8 6 5 8 8 g j j h g j g h j k v             ",
"                  3.*.X.X.X.X.o.X.X.X.X.X.X.#.#.O.X.=.^.:.S 3 d t.R.3XwXpXpXwXwX8X<X=X|.}.1X3X2X}.K.C.G.z.J H # . # = - > > 5 6 8 h 8 h h g j j 8 h j k v             ",
"              (.@.X.O.o.X.X.o.o.X.o.X.X.X.X.-.O.=.X.G ;.^.X.< y e.J.1XwXeXiXwXwX2X1X1X|.1X2X4X2X|.K.{ 0 6 `.S $ . # : : 8 8 5 8 j j g h g 8 k l j h l k j             ",
"              O.+.+.X.X.X.o.o.X.X.O.X.X.X.N #.#.+.=.N N ;.-.0 @ L k.-X4XwX9X4X4X2X|.|.|.|.2X Xz.J 5 $ : h +Xz $ . # : > 8 h 6 8 h h j g 8 g g j h h l v l             ",
"              +.+.X.G G X.o.+.O.o.X.o.+.G n o.-.+.:.X.m V :.n O @ q &.z.'.[. X X X[.[.'.x.] 9 6 8 > > , h /.q $ . # : > 8 h 8 g h g k k j h j j g g l v v             ",
"              -.#.X.X.X.X.+.X.X.X.X.X.+.N m X.+.X.#.:.n X.V N O O % g n N N X.X.X.H m 9 5 5 8 h g 6 > h 9 #XH X . & > 6 h g 8 j j k k h j j j j j 8 k n n             ",
"              #.+.o.X.+.o.+.O.X.X.X.X.=.X.n X.o.X.+.^.m B o.X.< O O : j n N X.N B j h j k k k j g h 8 g `.+X5 . . = 6 h j g g k k v h h k j j h j 8 k n B             ",
"              #.$.O.X.#.o.X.=.X.X.m X.=.o.n X.o.o.Z #.$.k M O.z % o $ j n n M B M B B v n n v n l j 8 n +X/.5 . X > 8 h h 8 h j k k h h v k k k j h l v B             ",
"              #.=.#.N +.o.o.#.+.#.m G #.=.N X.+.+.N X.:.A 8 M n - $ o 8 n M N N m n n n n B n v j g j h `.@.: . # > 8 h j 8 g k v v j h v k k k g h k v M             ",
"              +.:.=.N o.o.X.o.#.=.o.X.$.;.X.N X.o.N m +.$.k g n 5 - $ - k M Z A V n n v M B n k k C k - H 8 - X & > g k j g j v k n j k B k j k g k k k N             ",
"              o.-.;.X.+.o.X.X.#.=.o.X.=.:.o.n X.X.X.N N +.N g j 8 2 ; $ > M N n m B n k n M n B n n h - - 5 = # : 8 j j k j k l k n j j B v v k g j j g n             ",
"              X.$.!.$.#.o.O.o.+.O.=.O.#.#.+.m X.o.X.X.m X.o.B g 9 2 - ; - 8 k n M N m n B M n n B N 6 ; - 5 - & > j k j k k k v k v j k k j j n j h h h v             ",
"              Z O.:.$.=.O.o.Z O.O.:.$.o.+.O.Z X.X.o.G B N o.Z j j 5 2 - ; : g j n B n n M M n m N o.- % ; 5 - = 8 j n k l v n m n v k v v j j l j g h h j             ",
"              A =.!.$.=.+.=.X.-.O.+.+.X.$.$.N X.N X.X.B n X.o.n j 8 5 - ; 5 j j j k k n B M B M N m $ $ - 5 = , h v k k k n n n n n k v l j k v k j h h g             ",
"              X.#.:.:.=.#.#.X.-.O.$.;.;.$.$.Z X.o.N Z M n N $.N C j 0 5 - - h k x k k n M m B m M n X $ - 5 = > h v k j k m B n B v v n k j k k j h g h 8             ",
"              X.=.:.:.=.=.o.X.$.$.#.#.$.;.o.N o.o.X.N m B m X.o.m v 9 0 5 - 6 n n n B B m Z m N M j X $ - - : 8 k v v v n B n v n v v n k v k n k h j k g             ",
"              X.=.!.~.!.^.$.o.-.$.o.o.=.=.o.Z O.$.o.A N m n N o.N v j 9 5 5 > k B M n B B A B B C 8 o o - - , j n n n C B v v n v j v k k j h k k h j k j             ",
"              o.$.!.:.:.^.:.+.=.$.+.+.$.=.=.X.A +.X.o.M N v B A A n v 9 5 9 5 j M V N M B m M n n 5 b S ; - 8 B N n m n M B B B B l v k v k j j j g h j j             ",
"              X.$.^.!.=.!.:.O.$.$.+.+.O.=.=.$.N o.o.o.N m B B N X.Z B 9 8 9 8 g N N N B M N n n n 5 _.`.q > h n n n n B M n B B N v n k n k j k k j j g k             ",
"              O.$.^.!.#.:.^.;.$.$.+.O.$.$.=.$.m o.X.o.X.m N n N N Z B 9 8 8 8 6 m m N m M m N n B & /.b H 8 k v k k n n m l v v n k k k B v v k h h j h h             ",
"              O.;./.^.=.;.!.:.O.=.$.o.;.$.O.O.X.X.o.o.o.M N n m m M m j 5 8 8 5 m X.m N A m N m C $ ,._.z h k v k v k v m k l j k j j k n v n k h h k h h             "
};
