/* XPM */
static char *result[] = {
/* columns rows colors chars-per-pixel */
"80 80 246 2 ",
"   c #010101",
".  c #01020B",
"X  c #060807",
"o  c #010313",
"O  c #0A0A15",
"+  c #040B1C",
"@  c #0D0D1D",
"#  c #030618",
"$  c #100F1E",
"%  c #0E101D",
"&  c #0B1018",
"*  c #12121D",
"=  c #121316",
"-  c #0D0D21",
";  c #070B24",
":  c #110E23",
">  c #120E2A",
",  c #0E1123",
"<  c #0B122A",
"1  c #131324",
"2  c #15142B",
"3  c #18162C",
"4  c #151A2C",
"5  c #1A1A2D",
"6  c #171926",
"7  c #161432",
"8  c #1A1533",
"9  c #151C34",
"0  c #1C1C33",
"q  c #1A163A",
"w  c #1D1B3B",
"e  c #16193A",
"r  c #130F30",
"t  c #201E35",
"y  c #211E3C",
"u  c #201F2E",
"i  c #1E212D",
"p  c #1C2234",
"a  c #1C243C",
"s  c #182338",
"d  c #222235",
"f  c #23233C",
"g  c #24293D",
"h  c #2A2A3F",
"j  c #28273B",
"k  c #22212F",
"l  c #1E1C43",
"z  c #1C1642",
"x  c #211E44",
"c  c #231F4B",
"v  c #1D2541",
"b  c #1D2A44",
"n  c #1F2D4B",
"m  c #242343",
"M  c #232A44",
"N  c #2B2C43",
"B  c #25234B",
"V  c #29254D",
"C  c #242C4B",
"Z  c #2A2B4C",
"A  c #292642",
"S  c #24324D",
"D  c #2B314C",
"F  c #233047",
"G  c #32334C",
"H  c #353446",
"J  c #252353",
"K  c #2A2654",
"L  c #242D51",
"P  c #2C2C54",
"I  c #2C2B5B",
"U  c #29275A",
"Y  c #312D5D",
"T  c #302D55",
"R  c #253354",
"E  c #2B3354",
"W  c #2B3956",
"Q  c #273559",
"!  c #2B345A",
"~  c #2C3A5C",
"^  c #243A5F",
"/  c #323454",
"(  c #32355C",
")  c #333B5D",
"_  c #363A55",
"`  c #302E43",
"'  c #2D2D65",
"]  c #332E63",
"[  c #362E6A",
"{  c #2E3363",
"}  c #2D3C63",
"|  c #2A3C6A",
" . c #333463",
".. c #343C64",
"X. c #393C65",
"o. c #34346B",
"O. c #3A346A",
"+. c #343D6A",
"@. c #3B3D6C",
"#. c #393566",
"$. c #3C3C73",
"%. c #3A3874",
"&. c #2B3F73",
"*. c #423D79",
"=. c #403E69",
"-. c #38425B",
";. c #2E426D",
":. c #334165",
">. c #3A4265",
",. c #35436B",
"<. c #3B436C",
"1. c #3B4A6D",
"2. c #2D4476",
"3. c #344472",
"4. c #3C4473",
"5. c #364973",
"6. c #3C4B74",
"7. c #3D4479",
"8. c #3D4C7B",
"9. c #34497A",
"0. c #3B527D",
"q. c #40455E",
"w. c #41446C",
"e. c #464B69",
"r. c #4A5169",
"t. c #424474",
"y. c #434B75",
"u. c #43457B",
"i. c #434B7B",
"p. c #494D7C",
"a. c #4A4D71",
"s. c #44527C",
"d. c #4A547D",
"f. c #475275",
"g. c #535879",
"h. c #52536E",
"j. c #453D80",
"k. c #3D4E82",
"l. c #3C5283",
"z. c #3C5687",
"x. c #454482",
"c. c #444B83",
"v. c #4A4C84",
"b. c #4C4B8B",
"n. c #494487",
"m. c #445483",
"M. c #4B5483",
"N. c #4C5A85",
"B. c #445589",
"V. c #4B558B",
"C. c #445A8D",
"Z. c #4C5A8C",
"A. c #455884",
"S. c #525A85",
"D. c #51528C",
"F. c #535C8C",
"G. c #565A88",
"H. c #4C5D92",
"J. c #4A5992",
"K. c #545D93",
"L. c #565599",
"P. c #575A97",
"I. c #514E8F",
"U. c #53618C",
"Y. c #5B6289",
"T. c #4D6294",
"R. c #4B6B9B",
"E. c #486496",
"W. c #536295",
"Q. c #5B6394",
"!. c #56649B",
"~. c #5B659C",
"^. c #536B9C",
"/. c #5B6B9C",
"(. c #576995",
"). c #496A94",
"_. c #62699B",
"`. c #626696",
"'. c #64739A",
"]. c #696F93",
"[. c #5D5CA1",
"{. c #605FA5",
"}. c #546DA2",
"|. c #5C6CA3",
" X c #5B65A3",
".X c #5273A5",
"XX c #5C71A3",
"oX c #5877AB",
"OX c #5E7CB2",
"+X c #4C6DA1",
"@X c #636DA4",
"#X c #636DAA",
"$X c #696BA7",
"%X c #6372A4",
"&X c #6473AB",
"*X c #6A75AC",
"=X c #647AAD",
"-X c #6C7BAD",
";X c #6A75A4",
":X c #7477AA",
">X c #6B6BB2",
",X c #6B74B1",
"<X c #6C7BB3",
"1X c #667AB2",
"2X c #727CB5",
"3X c #747DBA",
"4X c #7778B8",
"5X c #605E9F",
"6X c #7D79C5",
"7X c #5D83B1",
"8X c #6E82B3",
"9X c #6B84BA",
"0X c #6689B9",
"qX c #7383B3",
"wX c #7483BB",
"eX c #7983BB",
"rX c #758ABD",
"tX c #7A87B7",
"yX c #7C91BC",
"uX c #6C89B1",
"iX c #74829F",
"pX c #7B86C1",
"aX c #7C8BC4",
"sX c #7785C2",
"dX c #6D92C3",
"fX c #7697C7",
"gX c #7092C9",
"hX c #7CA1CD",
"jX c #7EA5D2",
"kX c #8488B6",
"lX c #8894B9",
"zX c #848CC8",
"xX c #8597C7",
"cX c #8999D2",
"vX c #959BD8",
"bX c #9090CD",
"nX c #88A6D4",
"mX c #97A7D8",
"MX c #8CB1D9",
"NX c #8DB0D8",
"BX c #A2ACD3",
"VX c #95BCE1",
"CX c #A5A5E6",
"ZX c #A8B4E6",
"AX c #B9C7F5",
"SX c #98C0E4",
/* pixels */
"2 3 3 5 2 2 1 6 2 6 3 u y y A x w 9 5 5 6 1 6 u 5 3 6 5 k p 5 0 d 0 8 t u 5 5 5 0 j N D G / ..@.y.D.P.@X<XzXcXwXwXaXwX&XsX9X|.%XW.8.m.N.m././.H.C.C.8.| R b s a ",
"1 1 3 3 2 1 : : 1 2 3 t y x A x 0 5 6 1 6 6 2 t 5 6 6 5 5 p d j j t 0 y 5 5 d 0 0 a g N / D Z E #.4.u.u.P.*XpXpXsXwX3X=X1X<X|.!.C.8.c.3.1.6.B.J.^.T.l.1.Q S a p ",
": : 1 2 1 : $ $ $ 1 5 t y A j y 0 9 4 1 2 7 2 8 9 6 2 5 0 g h h j 0 0 0 8 5 0 p p f M N D F N S E ) @.t.F./.*XeX<X<X<X2X%X|.~.|.W.m.k.&.;.8.k.k.z.T.T.8.:.R a s ",
"$ $ : : : : @ $ $ 2 3 u y y y t 5 5 4 6 2 2 2 2 1 1 2 4 0 g N f y 0 0 w p 9 9 w a M C F g M M M C E ..1.d.F._.-X2X;X@XXX|.!.!.|.J.k.c.k.0.9.l.B.k.J.).8.:.W b s ",
"$ $ $ : $ $ $ : * 1 3 5 y y y t 3 4 1 1 1 1 1 1 < 1 2 9 p h M f t 9 8 9 0 0 e v m M M N v g M M M M E _ <.y.d.Y.(.Q.W.Z.|.%X@XH.7.k.B.A.B.l.T.T.J.oXXXA.:.W b s ",
"@ @ $ : : : * * 6 1 2 2 u t t 5 3 4 6 * * = * $ , 1 4 0 f A f 0 5 3 4 6 4 0 f A A m m v M A M M Z D D P ) :.<.1.y.i.c.m.H.|.|.Z.9.l.Z.B.B.T.}.}..X<X=X0.:.Q S s ",
": : : : 1 1 1 2 3 1 2 2 2 3 5 5 4 6 6 * = = = $ 1 3 d M N M 0 5 5 6 i i i k f f f w w m f w w v M Z Z Z E ( ..+.+.<.5.4.8.V.W.Z.l.i.i.0.B.C.}.=X1X}.Z.5.Q R F s ",
": : > > 6 2 2 1 6 1 2 2 3 3 3 3 3 6 1 $ = = = * 1 9 j N m p 4 4 5 i i k d p p p e w a a w l w m m C C P P E I Q { +.3.7.m.N.Z.A.N.m.0.8.Z.).XX/.^.A.5.:.R S b a ",
": > 3 3 2 2 1 1 3 3 3 8 5 3 3 u 4 1 % % & * 1 6 0 f g f 9 6 0 0 g i i 5 4 i a 0 a C Z P / P ( ) ( ( ! X. .4.d.t.6.i.7.8.8.3.8.N.d.0.1.5.5.A.A.A.0.3.Q W S S s i ",
"8 > 8 > 3 1 2 2 3 3 3 3 u u 3 * 1 , % , - : 2 t g j 0 4 9 a a a p 9 2 a C ( w.y.s.S.Y.Q.K.'.].Q.F.M.G.y.M.M.G.K.F.c.7.i.m.6.,.6.6.:.:.,.5.s.8.8.,.} n n M b s p ",
"8 r 3 3 1 1 2 3 3 3 3 3 6 u 6 $ % % @ - > 2 0 f j 5 4 p a f 7 q z ] 4.v.P.@X2XeXpXpXwXeX2XqXzXeXeXzXqX,X$X_./.Q.K.V.m.V.8.3.8.N.1.W -.W ,.,.:.} Q R b v a p s s ",
"8 8 > 3 1 1 3 2 3 3 3 u $ 3 * $ % , @ , : 0 y d p p p a 2 e B #.$.L.4XbXzXzXzXzX6X<X#X#X1X%X|.&X<X<XwXzX3X2XzX*X/.@X!.;XZ.s.y.N.0.:.6.,.,.,.:.:.W D M a 9 4 4 4 ",
"y r > > : : 3 8 8 3 3 3 : * $ = & @ @ 1 0 d 0 4 5 f p 7 x B w.Q.$X3XbXzX6X3X3X,X#X@X*XeXzX-X%X-X<X%X<XpXeX<XzXeX2X1X!.|.m.m.4.6.s.>.<.1.,.:.:.>.W _ F s 4 4 4 4 ",
"t 8 3 > : 2 3 3 8 8 r 3 3 $ O @ @ @ 1 9 d d 5 p f 9 9 m _ g.kXkX4XkXkXK.d.a.y.<.+.<.4.d.y.>.d.Q._.;X@X3X@X@X@X*X*X<X;X~.Z.Z.6.7.6.~ } >.Q ! Q ~ S F s 4 4 4 4 s ",
"8 t 3 > : 3 3 t t t t 3 6 $ $ $ @ 6 5 0 3 3 8 f B w L d.].lXBX].-.p , . o . . . . o . o + 2 4 F _ >.d.p./.-X<X<X|.~.@XW.~.K.Z.F.M.i.4.! ,...W W n s 4 4 4 s s s ",
"> > 3 3 > 3 5 y x x h t 2 $ $ $ , i j t 2 N A 8 w T a.`.lXg.0 #   .   X                     . o , j / -.:.7.Z.*X;X X!.H.B.B.Z.i.7.5.<.<.<.~ S S b s 4 4 4 i i s ",
"3 : 1 3 > > 3 t y j A t : : - 1 4 d a w w B w m q.h.g.r.$ O . .                               X   . O k -.>.) t.v.!.;XH.Z.A.m.Q.u.<.<.Q W E C b a p 9 p g i i 4 ",
"$ $ $ : : > 3 8 y A h t - - - - 0 f 2 7 Z v e / q.e.6 O O                               X             X o G e.w.} %.c.W./.A.m.7.5.<.>.>.( S M v a e p p s i i 4 ",
"$ $ O $ $ > 3 3 t j j 0 - - - 5 d 7 9 A m f / -.0 o .                                           X       . o 4 W <.<.<.7.M.(.K.6.6.} ....~ E S M b g a a s g s 4 ",
"$ $ $ $ $ > 3 > 8 j t 2 - : 1 a 8 2 N N 8 N H $ # . . .                                                   . . , D ) X.i.4.c.'.m.,.,.,.+.) ~ R C S F g a s s 4 4 ",
": $ $ $ : 3 3 > 5 y u : @ 2 8 5 8 f A t h H O . . . .                                                     . X   & -.>.<.4.7.6.F.S.5.@.,...! R S D S b a s s 4 4 ",
"> : : > > 3 3 1 3 t 3 : - 1 p 2 f ` t h H . . .                                                           X       = -.y...7.4.5.8.Y.i.,.,.} ! S n C b s s 9 9 4 ",
"3 > 3 > 8 u 3 3 5 t 2 - 1 7 0 0 h N t h O . O   X                                               X X     X   X       + h.a.+.I 7.} 4.(.N.y.1.:.^ Q S n v b s s 4 ",
"8 8 8 8 t k 3 3 5 5 1 - , g 5 0 h h d O .                         X                                             X X   1 g.d.+...,.Q y.N.N.d.6.>.~ Q S n b a s s ",
"8 y y A x t u 2 5 3 , , 5 3 8 A h d @ .                                                                               . 9 Y.Y.} { | Q } ,.s.d.0.1.1.:.-.n b b s ",
"y c c c A t 3 2 3 6 @ , u t t ` j 1 o .                         .     .                                 .               o D G.G.+.! ! R ~ :.<.,.1.0.;.:.W n b s ",
"y K K V A t 3 : 6 1 @ , 3 t t H t o . .                                                                       .         . + a.Y.F.} ~ ! Q E Q } 1.1.1.1.;.R b b ",
"z K Y T V t 8 3 6 , @ 1 3 8 h ` 1 . .                       X     . .                                     . .   X       . . C S.Q.y.~ } Q Q Q ! ^ -.:.1.;.-.n b ",
"K K T T V y > 3 2 , % 6 5 5 H j . .                                                                         .             . # e.g.Y.,.Q R E W ! R ^ :.:.:.:.-.b ",
"V [ [ K K y 3 > 6 % 6 5 0 8 G 5 . .                                                                                     . . o a f.d.s.} E L Q Q :.R -.;.:.:.:.b ",
"T =.[ K K x 8 > , 1 6 5 0 t ` O . X                                                                                       . o o r.1.M.i.~ E R W W ^ ^ :.:.1.:.R ",
"T =.[ [ V A > : 1 , 4 p 5 j d . .                                                                                     .     X . _ y.8.m.} E C S R R ^ ;.:.;.:.S ",
"J U O.O.U m 4 % $ 1 3 y 8 N O .                                                                                     .     X   O 6 g.8.A.6.Q ! n R ) ~ :.;.:.:.R ",
"J U [ O.U m 2 % = * u y y j O                                                                               X X       .         & g.6.8.A.+.Q L n ! ~ :.:.;.1.R ",
"c J [ *.I c 4 1 * * 3 y 8 t .                                                                                   X               # h.s.2.M.6.! Q n R -.1.:.:.;.^ ",
"c c ] t.] B 2 1 * * 2 y t 2 .                                                                                       .           . h.U.,.8.s.~ ~ R R ~ ;.1.;.W R ",
"x x Y *.O.V 8 1 * * 3 t 8 :     X                                                                                     .         . e.'.0.3.N.1.Q W R R Q 6.1.-.n ",
"z z V X.=.P 0 1 * 6 6 t u @ .                                                                                       .           . / iXZ.;.d.s.Q W Q n Q :.:.;.S ",
"q y x T O.T y 3 $ $ 2 u u O         .                                                                                           . b yX'.;.6.N.-.~ -.Q Q R :.:.S ",
"q w 8 B  .T A 3 : $ 2 u k O .       .                                                                                           o s lXuX5.,.(.,.} } W R W R S F ",
"2 8 q x P Y V y : : : u d O   .     .                                                                         X               X . e lXuXA.| U.A.:.:.-.^ ^ S S n ",
"r 7 q z K T Z A 2 > : 5 k O   .                                                                                     .           . 9 yXyXT.;.A.U.:.^ ^ ^ S S F F ",
"r r q y x T T Z 7 2 1 2 u O                                                                                   X                 o b qXfX/.;.8./.5.^ :.S ^ n F s ",
"q q q y q B T Z y 7 > 1 6 $                                                                                   X                 o -.uXyX.X2.9.'.N.;.;.S ^ S F F ",
"w w y q z x P Z A r > 2 3 * .       X                                                                             .           . o f.8X8X%X2.2.W.(.0.} Q ^ n S F ",
"y y q y m l B P T q > : 1 6 X .                                                                                       .       . # g.uX9X=X9.&.H./.N.} ~ S S S F ",
"0 y y q m m B V #.A 7 > 1 6 .   X                                                                                   .           , Y.qX9XOX9.&.H.%X(.6.Q S n S F ",
"8 q 8 w f B B V =.T w 2 1 6 X                                                                                           .   . . a ].rX9XOXl.2.B.XX%XZ.Q S n F F ",
"7 q y y x N K c #.t.B e 1 1 &                                                                                       X X X . . o r.'.rX9XOXC.&.z.}.=XU.} S S F F ",
"r t q y f B K K ] *.@.l e 6 = X X     .                   X                                                           X X . o + Y.uXyX9X9Xz.&.l.}.=X(.,.^ S S s ",
"> 3 q y y x K Y ] *.t.( l 4 6 &                                                                                           . o -.iX=XcX9X9X^.2.B.^.=XW.1.:.-.S b ",
": 2 8 8 0 y B Y O.*.*.p.P w 0 *                   .                                                           X   X       . + iX'.tXnX1X1XoXC.C.J.^.T.8.;.^ R S ",
"$ 2 3 u y q B J @.*.%.v.$.I A w #             .                                                           . .           X . _ yX%XcX9XOXXX}.C.C.z.R.^.C.5.} W S ",
": : 2 8 B w B J #.n.x.n.I.o.P C 5 o         .   .                                                         . . .         X + ;XqXoXwXOXXX^.T.k.z.T.}.R.C.0.;.^ ^ ",
"> 2 3 8 m x V B U u.n.n.I.x.%.Y Z 5 .   .                                                                 .             X D lXiX1X1X8XOXW.J.k.J.}.oX}.E.z.9.;.^ ",
"> 2 8 y z B V J J o.n.I.b.L.b.o.O.P < . . .                                                                         X o < ].cX%XwX9X.XXXZ.T.A.E.}.OXOX.XR.C.0.5.",
"> w x x c J P J J I o.v. XL.L.I.$.$.<.> .         X   X                                                 X       X   . < y.qXqX8X9XrXoX^.Z.m.C.^.7X0X7X7X7X).).1.",
"q c I K I I ] (  .#.o.$.L.$X{.L.L.x.u.w.# o .                     . .   .                                   X     X ; ~ F.vX&X<X8X=X}.^.m.3.A.^.7XdXhXhXdX7X7X7X",
"q J ] #.{ Y #.#.@.<.O.%.%.[.>X>X>XL.b.t.e.+ . .                   .   .                         X               X + 1.8.3XcX|.=X8X/.J.H.l.| l.C.7XhX0XhXhXdX7X7X",
"z c Y O.I U I Y @.t.t.t.%.n.[.>X4X4X$XD.a./ ; o o . X               .                                     X . . ; -.s.%XcX<X|.qX8X^.Z.l.8.1.9.l.7XhXhXhXhXhXuXuX",
"x c J ] I U I I  .t.t.v.c.$.n.P.4X4X4X2X`.G.w.e # o . .                                             X X o . o < e.d.W.zXaX X&XaXqX^.^.7.,.0.5.;.).hXnXMXMXjXdXdX",
"x c c K I ( #.{  .@.$.i.b.k.k.c.P.@X*XeXeX:X`.G.P # o .         .                                       . # m g.M.K.=XzXOX|.sXrX<X~.F.3.5.6.| ;.).iXyXMXVXVXMXjX",
"y z x c Y  .@.o. .o.o.$.c.u.b.$.7.N.@X*X4XzXzXkX:Xh.1 . . X                                           . @ e.'.P.H.#XrXrXXX8XxX8XXX X7.3.6.6.:.;.).iXhXNXjXSXSXjX",
"x x z c T X.*.O.o.o.o.%.$.$.i.7.u.t.i.K.>X4X4XkXkXlXkXh., # .   .                             X . . @ j g.qX`.K.#X3XfX=X-XcXrXwX%XK.7.4.5.7.;.:.0.iXyXnXVXVXVX0X",
"x x q c I ' [ ' ' %.%.$.7.t.t.t.u.u.u.x.x.D._.:X4X4XkXkX].a.0 # o . . .         .     .   . . o ; v t.Y.:X@XQ.$XwXwX=X^.xXnXrXtX-XT.k.3.7.8.3.i.m.B.XXxXNXhX0X0X",
"m c c K ' ' o.' ' ' U ' @.=.=.@.t.u.u.v.t.u.$.c.v.F.$X$X_.`.S.a.( 0 - o . . . . . o o . O @ 9 / X.y.Q.:X$X X#X<X<X%XXXrXnXxXyXyX;XN.8.3.c.A.8.m.k.k.^.7XrX0X7X7X",
"B K Y ] O.$.j.%.%.' J K T ! T / ( X.<.t.w.w.1.t.u.t.u.t.t.d.S.g.a.h.e.q._ f M ` G / D G D _ _ X.s._.*X#X X#X&X>X&XXX1XnXmXxXlXxX(.s.7.,.6.M.8.N.B.l.H.}.oXoX.X.X",
"K Y ] *.x.x.V.b.D.v.] K A A A C P E ( ) X.X.X.<.w.y.p.u.t.t.*.=.w.a.r.a.r.e.a.w.( ! ( ) ( >.1.S._.%X@X|.#X<X|. X^.<XcXmXnXlXaXqXA.,.:.} y.d.5.8.9.k.C.+X0XdX7XR.",
"J [ [ j.j.j.5X:X4X>Xp.T P B m A Z D E Z Z E P P !  . . .@.4.4.@.X.#...X.} U I I  .+.@.@.t.F.W.K.P.!. X#X|.&X X X|.9XmXcXfXlX-XU.<.:.~ ) >.f.1.| | 2.z.oXgX0X+X).",
"c [ *.j.n.b.6XvXCXCX:Xu.( C m M Z D E C Z ( ( X.X.+. .{ U I { I P I I ( t.+.+.7.u.x.c.K.K.V.D.!.J.J.}.&X X X!.OX<XaXmXwX-XqXU.1.:.>.Q C R >.>.} ' k.z.dXdXoX+Xz.",
"z ] [ j.j.j.6XbXCXCX:XD.#.P V P / ! (  .) ) ( !  . .@.4.t.t.@.*.=.t.t.t.t.7.y.c.P._.!.!.V.V.V.V.C.|.3X|.}. X X&X<XaXzX%X/.(.4.:.:.) C v S -.~ } | k..XgXgX.XE.z.",
"z J [ [ j.j.>X6XbXbX$XP.*. .Y ( ( #.w.t.4.p.i.p.M.G.Y.`.`.`.`.G.S.S.d.y.y.i.M.Q._.K.v.K.H.V.J.!.|.<X<XoX X}.#X&X1X2X=X~./.S.} +.( F S M b S ~ 6.J.oXgXjXdXoX+Xz.",
"r z K Y j.j.{.[.L.[.I.I.%. .I P #.=.*.p.S.$X$X:X:X*X:X`.D.u.t.y.w.w.t.1.@.4.u.M.i.M.B.c.B.L. X&XsXpXqX!.J.K.!.@X|.!.~.W.M.,.} Q E W M M C ) ) d.(.7XnXfXOX.X+Xz.",
"> q c K =.*.L.I.j.b.%.*.%.! P K +.u.p.u.b.P.P.`.P.v.u.@.@.@.#. .( X.>.<.+.t.t.t.7.i.x.x.J.#X2X3XpX3X~.Z.B.B.J.W.V.Z.~.F.m.<. .E E / D D S W 1.N.^.8X3XoX.X+XE.z.",
": 3 y V c Y *.*.*.u.[ o. .I P P T w.d.p.c.I.b.D.D.u.u.u.t.i.t...+.+.+.+.@.7.i.M.Q.V.m.J.,X6XzX3X$X Xb.V.k.i.V.N.c.N.Q.N.6.+.( Q E ! R E M R ,.0.H.OXOX.X.X+XR.+X",
": 3 y y V K Y =.#.O. . .P J Z P Z I @.u.u.v.c.v.v.p.p.p.<.t.@.@.@.X.+.@.7.x.V.P.;XP.P.1XzXcXzX,XL.J.c.7.i.u.M.d.y.M.G.d.......~ ) ~ E ! ~ +.,.3.l.!.oX.XoX.X+XoX",
"3 3 u y x V T T I  .( ! I Z m m Z P E  .' 4.t.u.t.t.4.@.@.X.O.4.u.i.s.c.b.L.~.Q.~.~.eXmXmXvX<X!.K.v.7.t.i.i.y.@.+.<.w.1...X.>.<.+.} ..+.+.3.7.5.l.H.}.oXdXdXgXgX",
"$ 3 8 8 q A T Y  .! (  .E P m w C P V C I 4.t.4.X.( Q P  .+.@.$.x.D.K.V.P.$X>X|.*XxXCXZXCXkXK.c.c.+.@.4.@.<.<.) ) ( ( ....>.,.,.+...5.8.8.6.k.8.l.J.C..XgXfXgXgX",
": 1 8 8 q V T =.#.{  .../ E Z A m V V B V E ) ( ( P P E  .@.t.v.K. X X X|.>X,XtXnXAXZXBXxX;XV.8.+.} ..! ( ! >.w.) T E ) ) >...<.6.u.N.Z.m.m.C.z.z.C.E.OXfXjXjXdX",
"$ > 8 8 q c K ]  .{ o.X.#.P Z Z A B B n C D W ( / P V P X.a.M.K.>X X[.#X>X,XeXZXAXAXZXBXtX%XU.6.+...E E ..I X.w.( C C ( ..>.>.i.Z.W././.K.|.W.W.T.C..XdXjXjXgXdX"
};
