/* XPM */
static char *c9cacdfdad2c4f0b8c4ef531ffd569c4FEzEihpRHuxUwr1o[] = {
/* columns rows colors chars-per-pixel */
"80 89 252 2 ",
"   c #010101",
".  c #01020B",
"X  c #050808",
"o  c #010313",
"O  c #0B0A16",
"+  c #040B1C",
"@  c #0D0B1C",
"#  c #060619",
"$  c #100E1E",
"%  c #0E101D",
"&  c #0B1018",
"*  c #12121D",
"=  c #121316",
"-  c #0E0C21",
";  c #070B24",
":  c #110E23",
">  c #130E2A",
",  c #100722",
"<  c #0E1224",
"1  c #0C1628",
"2  c #131325",
"3  c #15132B",
"4  c #18162C",
"5  c #141A2C",
"6  c #1A1A2D",
"7  c #161926",
"8  c #140E31",
"9  c #161332",
"0  c #1A1534",
"q  c #151D33",
"w  c #1C1C33",
"e  c #1B163A",
"r  c #1D1B3B",
"t  c #16193A",
"y  c #201E35",
"u  c #211C3C",
"i  c #201F2E",
"p  c #1D222D",
"a  c #162134",
"s  c #1B2234",
"d  c #1B243B",
"f  c #1D293E",
"g  c #162339",
"h  c #222235",
"j  c #23233B",
"k  c #23293D",
"l  c #2A2A3F",
"z  c #28273C",
"x  c #22212F",
"c  c #1E1C43",
"v  c #1D1741",
"b  c #221D43",
"n  c #231F4B",
"m  c #1C2542",
"M  c #1D2A44",
"N  c #1E2C4A",
"B  c #162745",
"V  c #1E3459",
"C  c #242343",
"Z  c #292544",
"A  c #232A44",
"S  c #2B2C43",
"D  c #25234B",
"F  c #29264D",
"G  c #242C4B",
"H  c #2A2C4C",
"J  c #24324D",
"K  c #2B314C",
"L  c #263047",
"P  c #32334C",
"I  c #353446",
"U  c #252353",
"Y  c #2A2653",
"T  c #2C2C53",
"R  c #2C2B5B",
"E  c #262A56",
"W  c #312D5D",
"Q  c #302D55",
"!  c #253353",
"~  c #2B3354",
"^  c #2B3956",
"/  c #263559",
"(  c #2B345A",
")  c #2C3A5C",
"_  c #25395E",
"`  c #323454",
"'  c #32345D",
"]  c #333B5D",
"[  c #363B56",
"{  c #302E43",
"}  c #2D2D65",
"|  c #332E63",
" . c #362E6A",
".. c #2D3C63",
"X. c #2B3866",
"o. c #333463",
"O. c #343C64",
"+. c #393C64",
"@. c #34346B",
"#. c #343C6A",
"$. c #3B3D6C",
"%. c #393468",
"&. c #3C3C73",
"*. c #3A3874",
"=. c #2B3F73",
"-. c #423D79",
";. c #403E69",
":. c #37415B",
">. c #2C426B",
",. c #2B4167",
"<. c #334265",
"1. c #3B4265",
"2. c #35436B",
"3. c #3B436C",
"4. c #3B4A6D",
"5. c #31486A",
"6. c #344472",
"7. c #3C4473",
"8. c #354A74",
"9. c #3C4B74",
"0. c #3D4479",
"q. c #3C4C7B",
"w. c #34497A",
"e. c #39527D",
"r. c #2D4476",
"t. c #40455E",
"y. c #41446C",
"u. c #464B69",
"i. c #4C526B",
"p. c #424474",
"a. c #434B75",
"s. c #43457C",
"d. c #434B7B",
"f. c #494D7C",
"g. c #4A4D71",
"h. c #44527C",
"j. c #4B547D",
"k. c #475275",
"l. c #535879",
"z. c #53556E",
"x. c #413A80",
"c. c #3D4E82",
"v. c #3D5283",
"b. c #385786",
"n. c #3C6497",
"m. c #454482",
"M. c #444B83",
"N. c #4A4C84",
"B. c #4C4B8B",
"V. c #494587",
"C. c #445483",
"Z. c #4B5483",
"A. c #4C5A85",
"S. c #445589",
"D. c #4B558B",
"F. c #445A8D",
"G. c #4B5B8C",
"H. c #455884",
"J. c #535A84",
"K. c #51528C",
"L. c #535B8C",
"P. c #565A88",
"I. c #4C5D92",
"U. c #4A5A92",
"Y. c #545C93",
"T. c #575998",
"R. c #514E90",
"E. c #45628C",
"W. c #54618C",
"Q. c #5B638A",
"!. c #4D6294",
"~. c #4C6C9B",
"^. c #486696",
"/. c #536294",
"(. c #5B6494",
"). c #56649B",
"_. c #5A649C",
"`. c #546B9C",
"'. c #5B6A9C",
"]. c #576995",
"[. c #4F739D",
"{. c #62699B",
"}. c #626696",
"|. c #64739A",
" X c #697093",
".X c #5D5CA1",
"XX c #605FA5",
"oX c #5B6CA3",
"OX c #5868A3",
"+X c #5374A5",
"@X c #5C71A3",
"#X c #5C7AAD",
"$X c #5677AA",
"%X c #5A7CB2",
"&X c #4A6FA1",
"*X c #636CA4",
"=X c #636DAA",
"-X c #696BA7",
";X c #6372A5",
":X c #6373AB",
">X c #6A75AC",
",X c #647AAC",
"<X c #6C7BAD",
"1X c #6A75A4",
"2X c #7477AA",
"3X c #6B6BB2",
"4X c #6C7BB3",
"5X c #6877B1",
"6X c #727BB5",
"7X c #767AB9",
"8X c #605E9F",
"9X c #7D79C5",
"0X c #5C84B4",
"qX c #5D81AD",
"wX c #7483AB",
"eX c #6E82B3",
"rX c #6C84BA",
"tX c #668ABA",
"yX c #7383B4",
"uX c #7483BB",
"iX c #7984BB",
"pX c #758ABD",
"aX c #7A87B7",
"sX c #6A92BB",
"dX c #7C91BB",
"fX c #6783AC",
"gX c #74829F",
"hX c #7C8BC4",
"jX c #7985C1",
"kX c #6D92C3",
"lX c #6C96C6",
"zX c #7697C7",
"xX c #7494CC",
"cX c #7BA1CD",
"vX c #7EA4D2",
"bX c #8488B6",
"nX c #8894B9",
"mX c #848CC8",
"MX c #8597C7",
"NX c #8999D2",
"BX c #959BD8",
"VX c #9090CD",
"CX c #88A6D4",
"ZX c #97A7D8",
"AX c #8CB1D9",
"SX c #8DB0D8",
"DX c #A2ADD2",
"FX c #95BCE0",
"GX c #A8B4E6",
"HX c #A5A5E6",
"JX c #B9C8F5",
"KX c #98C0E4",
/* pixels */
"5 5 5 5 q d d a q q s a 5 1 1 1 1 1 1 5 5 5 1 1 1 1 5 5 5 q s s 5 1 5 5 5 1 5 6 5 5 5 5 q q q q g q g d m G G / V V >.b.b.n.n.n.&Xb.b.w.8.V B N N ! _ ,.e.&Xn.^.",
"5 6 6 5 a d f d s s s s 5 5 5 5 5 5 1 1 5 5 5 1 p s d s 5 q q q s a 5 5 6 a s a 5 q q q q g g g k d d d A G ! ) ..>.e.^.~.$X0X%XtXkX$XE.8.5.! N ! ^ ,.e.^.tX%X%X",
"s 6 6 q a d d f s d d s a a a a 5 5 1 1 1 5 5 6 s d k f a a g g d g q q a s s a a a a a s s g d f s d d M G ! ,.,.8.b.[.+XtXcXlX0XzXvXsXE.5.V / _ ,.e.E.#XkX0X%X",
"s s 6 q a a g d 6 s s 6 a s s a 5 5 1 1 5 5 6 s s d M f g d m m m m m m m g d M d g g d d f f f d g d A G G ! ,.e.E.~.qX0XkXlX$Xn.&XqXqX~.>.X.X.,.8.E.+XtXxXtX0X",
"s s q a g g d d q s s 6 6 s s a 6 5 6 5 5 5 q a d d M M M G ! G ! ^ / ! J J J J G M m M L L L A M d N J ! ^ _ 8.e.[.+XtXsXvXCXtX0X%X+X~.~.b.b.b.e.b.~.#XkXxXkXtX",
"d d f M A G A A d d s 5 5 q s s s p s q 6 5 q a d m M J ^ ) <.O.<.2.<.) ) <.:.! J N N J J J L L J J J ! / ..,.e.E.qXtXsXlXAXKXAXsXtX+XqX[.~.~.+X^.E.^.+XkXxXxXlX",
"M J ! ^ ^ ^ ^ J G A s 5 5 5 q s d d d s q a g m M N ^ ) <.<.4.2.2.2.5.<.2.4.<./ J J J J J J J G J ^ ^ / ..>.w.E.~.tXlXcXCXFXFXFXcXtX$XkXsX%X$X$X$X&X&X+XkXcXCXCX",
"! ) <.......^ ! J A d q 5 5 5 6 d d d s a d M G ! ^ <.<.<.<.2.<.5.....9.9.<.^ ^ ! ^ ^ ^ ! ! J J ! ) <.<.8.e.b.~.qXkXzXcXAXFXSXFXSXsX#XtXxXtXxXkX%X$X+X$XkXkXxXvX",
"X.6.q.e.C.v.6.<./ N d g s 6 5 6 s s d d d d m M ^ <.4.9.4.<...<.) <.4.<.^ ^ ^ ! ^ ) ^ ! / / / / ..2.6.q.F.E.^.+XtXvXzXzXAXSXCXCXzXfX`.`.#XrXxXCXxX+X+X$X#X+X%XkX",
"q.v.!.!.@X,XG.9./ N M A A d 6 5 q s d A A M N ! <.4.9.2.....) ..) ) <.) ! ! ^ / ) ....O...X.9.A.W.]./.!.`.~.OX#X0XkXkXcXCXMXzXdX@X`.!.F.v.F.oXxXCXrX#X#X+XF.^.+X",
"F.!.!.U.oXeX@XH.6...! ^ ^ L f a q g k G G G G ^ 4.a.9.../ ) ) / ] ~ ! ! ^ ^ ) O.<.( / 2.q.A.'.;X,X,X,X`.~.OX#X%XsXkXzXCXzXeXeX1XF.q.v.q.r.r.v.@X,X4X,X~.^.U.F.S.",
"I.).v.c.U.oX,X/.C.2.! ~ ^ J G M d d M J J G ! ) 4.9.2.) / ) ^ ! ! N N ! ~ / ) ..( ..h.G./.oX;X@X`.oX`.U.v.^.OXOXrXfX#X#X`.].].C.C.q.S.q...X.X.H.].'.!.v.v.v.S.!.",
"I.!.c.S.!.OX,XoXH.9...<.<.) ^ J A m A J ! G / 2.a.4.../ / ^ ~ G G ! ^ ^ / / ..2.H.W.'.'./.!.I.F.S.v.S.F.S.S.I.!.`.`.F.v.6.>.2...d.H.G.9.......9.j.A.q.8.8.q.C./.",
"'.H.v.v.I.OXoXoXH.q...<.<./ ~ ! G A G ! ! / <.a.j.2.) ^ ^ ^ ! G / / / ) 4.h.A.].W.H.q.w.r.=.r.r.r.=.r.F.F.c.c.S.F.S.e.q.6.X.X.2.6.q.q.6.4.3.) ^ ] 4.2.2.7.C.H./.",
"'.q.8.w.v.!.G.!.H.h.2.2.2./ ..] ! ~ ~ ( ^ O.4.j.h.<./ ^ ! ! ~ ~ / #.9.j.A.H.9.6.X.>.>.r.r.r.w.v.b.F.~.@XoX!.G.W.H.8.=.6.d.d.9.6.q.Z.A.j.k.1.) J ] ^ G <.6.9.H.'.",
"H.2.2.q.S.F.F.H.8.9.#.4.2.) 2.1.~ ^ ] ] O.2.a.A.2.) / / ! ~ ) ..9.Z.Z.9.2...>.8.H./.`.`.#X,X,X#X#XrXrX,X@X`.!.G.G.C.C.q.6.6.7.6.7.C.9.7.<.^ J M G J N ) 5.q.S.I.",
"A.6.6.q.S.S.q.q.6.<./ 3.4.2...1.^ 1.O.2.2.#.A.J...! ^ ) / X.d.S.H.q.6.6.q.G.|.yXyXdXhXpXeXrXrXrXrXjX4X4X#X#X,X@X`.`.I.C.8.6.6.7.7.6.#.#.] G m A A L ~ ( #.9.G.'.",
"C.d.c.C.G.G.c.e.9.<.) k.3.O.7.1.3.<.O.2.2.h.(.9./ / ^ ) 2.h.Z.q.d.9.h.W.|.wXnXMXnXdXaXeXeXeXyXpXuXpXNXCXrX,XrX+X#XoXF.G.).I.0.0.q.q.7.5.) ~ G K A H ~ / ..6.D.'.",
"q.q.C.c.q.c.c.H.d.2./ <.2...d.6.6.4...1.6.(.2.E X.( ..a.Q.A.a.a.l.z.z.i.u.^ m q q q M :.k.l.Q. X|.wX<XpXNXpX,XrXpX,XoX'.)._._.Y.Y.H.d.2.<.1.] G ~ ` ( ( ..#.q.L.",
"/.G./.I.w.w.C.H.j.9.4.a.j.4.Z.9.q.6.9.2.J.a.#.2.X.#.L.}.j.k.u.[ 2 @ o . . . . o . . o o o o < k u. X1X1X;X;X,XpXeXeX4XeXuX4X;X;X<X1X].j.4.<.<.( ~ ~ ( ] +.#.9.G.",
"oX).oXoXI.G.H.H.A.9.A.A.q.6.L.d./.q.9.Z.W.6.7.#.X.J.Q.l.i.k o . . . . .   .     X   . . . . . . o + :.gXbXyX<X;XeX4X,XyXhXuXeXpXpXdXMXwXW.9.<.+.~ ~ / O.1.2.6.d.",
"oXoX_.).oXoX/.G.d.2.q.q.6.q.L.D.H.C./.|.9.7.( #.P.J.g.G # . o . .                             . . o o + [ 2XMXMXyX:XoXoX:XpXMXpXpXpXMXnX<XW.7.X...O.) O.<.<.+.<.",
"uX4XoX).;X'.D.A.6.9.6.d.H.G.Y.D.H.Z.(.C.0.7.#.j.Q.K + o . . . . X                               . . . . . + J  XyXBXNX4XoXoXeXNXCXMXMXMXMXyX].A.2.4.+.O.+.1.<.<.",
"jX4X;X*XoXG.q.C.q.C.q.G.C.G._.S.H.'.S.7.7.#.k.l.5 o . . . . .                         X       . . .       X . 1 a./.6XNXhX:X@X<XzXCXZXCXMX<X'.'.C.Z.a.+.O.O.O.] ",
":X,X4XoXI.C.7.7.q.d.G.>X'._./.Y.I.).7.d.1.u.i.< . .             . . . .                     . . .             . 1 ) d.*XhXMXpX,X`.pXCXZXNXuX;X'./.L.A.j.4.O.] ` ",
"uXrX4X*X/.C.6.6.7.0.S./.).>XoX).>XM.2.1.1.t.+ . .               . . . . .   .           .   . .               . o ; 1.j.Y.>XjXhX,XoX4XNXZXZXMX>X_._.(.P.y.( ~ G ",
"hXuX4X>X(.d.2.#.d.M.G.*X4X4X).'.).*.3.[ :.&                         .                                           . o + :.j.Y.:X6XuXoXoX4X4XjXhX4X).G.G.Z.1.' ~ H ",
"uXuX6X6X(.9.#...7.L.Y._.4X4XoX:XZ.#.1.K &     X     . .                                                             . + u.Z.U.=XuX4X:XoXoX4X4X>XoXD.C.a.#.] ] ' ",
"uXjXyX<XW.4.+.~ 7.Y.(.>XiX>X4X>X7.3.~ 2 .           . .                                               . . .           . 1 j.Y.T.=X4X:XOXoX>X:X:X*X/.G.j.2.O.3.y.",
"NXiX<X{.Z.3.O.~ j.L._.mXmX*X4XL.o.u.5 . X   X       . . .                                             . . . .         X o A 1X(.).=X3X=X).).oX:X).G.Z.Z.a.2.+.+.",
"mX>X'.L.a.+.' ~ 3.J.{.6X6X;X<X9.1.P o . . X         . .                                               . . . .         X . + y.2X*XOX=X4X:XOXoX).I.S.d.d.d.1.( ~ ",
"6XY.G.j.3.] ~ T O.Z.*X6XiX*X'.<.:.o . . . . X       .                                                   . . .           . . - l.2X*XOX=XoXOXOXoXG.S.M.d.d.$.' O.",
"OXM.7.3.] ~ H T +.7.<XhXhX6Xf.:.p X . .                                                                                 X . . j Q.>X=XoXoX:XoX:X/.I.D.s.7.7.( ~ ",
"T.s.2.] ~ K H H ) J.yXjX4X*Xj.P O                                                                                       X     @ y.(.>X*XOXoXuX6XyX).D.M.0.$.O.( ",
"K.7.O.~ G K H D ' A.hX4X:X1X1.j .           X                                                                                 . m a.}.;XY.U.*X<XhX6X_.U.N.#...O.",
"s.o.~ G A H A A ' Q.iX4X4X{.[ @ .           X                                                                                 . - +.d.{./.I.D.oXiXhX=XT.Y.M.#.O.",
"$.~ G A A A m m ] (.iX>X<XQ.H . X                                                                                             X o ` 1.Z./._.D.).>X7X6X3X).N.d.7.",
"] H A A A A r r ' {.mXoX*Xj.6 . .                                                                                             . . q [ 4.L.G.D.D._.6XmXmX6XT.Z.W.",
"` K K A A A d r T |.yX:X<X4.5 .                                                                                                 . @ [ 1.L.D.D.D.Y.=XjXNXBXmX;X;X",
"P ` K k d A j r ~ Q.6X5XmXa.+ .                                                                                   X           . . @ K ( d.Y.Y.I.S.D.>XNXBXZXMXaX",
"S S S S A C j d T (.iX=XiXj..                                                                                                   X . P ' $.Y.).Y.N.c.D.>XBXGXZXZX",
"S k A A G C r r H P.uX=X>X7..                                                                                                   . . P ' $.M.(.N.S.M.N./.iXGXGXGX",
"j j d A A C r r H J.jX4X*X3.o                                                                                                   . . P ( #.M.{.Y.Z.s.L.Y.'.MXJXJX",
"w w s d C C j q d f.jXjX*X$..                                                                                                   . . P ' } d.Y.{.d.7.(.1X'.>XZXJX",
"6 w s t d C j q q a.iXhX>X3..                                                                                                   . . K y.R 0.M.(.Z.p.Z.(.)._.iXGX",
"6 w s w t j j s d y.6XmX7Xa..                                                                                                     . j g.R #.0.A.a.7.s.D._.-X>XjX",
"6 6 q q w w h h q ^ *XmXiXa..                                                                                                     . j u.E #.7.d.7.7.s.s.T.=X=X5X",
"y 6 q q q 6 6 h 6 G (.mXjXj.o                                                                                                   X . [ g.o.p.p.d.2.O.$.0.D.T.OX3X",
"y y w w w 6 6 h 6 t N.VXmXY.. X                     .                                                           . . . .         . o t.i.+.o.p.a.y.1.#.#.M.D.OX=X",
"w w w w w 4 7 p p 9 &.7XVXbX< .                 . . . .                                                         . . . .         . @ u.g.+.R p.f.y.+.#.O.d.Y.OXT.",
"w y w w w 4 7 p p q o.T.7XaXq .                 . . . .                                                         . . .         . o t i.g.O.R p.j.4.+.+.#.d.K._.*X",
"h j j j w q 6 6 k d c &.-X7X[ . .                 . .                                                                         . o [ g.y.%.R p.J.p.o.+.2.a.M.Y.-X",
"w h k j j q 6 5 q j t o.P.bX1X# .                                                                                             . # g.l.3.$.R 7.P.d.o.#.$.7.&.N.T.",
"w h l S S j w 5 q d 9 D y.bXDXq .                                                                                             . t J.J.p.p.R $.}.p.#.p.$.$.%.p.N.",
"w h j k k S A w 5 d j t D l.bXQ.# .                                                                                         . o g.(.Z.p.$.R 7.}.d.$.f.p.%.#.$.a.",
"w 6 q w s C S j q q j 3 m ' Q.nX@ . . .                                                                                   . . - 2X}.p.p.#.R p.}.P.$.p.7.$.o.o.+.",
"6 6 6 5 6 w C S j 5 q j q C j.}.i.o . .                                                                             X   . . . z.wX-X7.d.o.o.7.}.{.$.p.f.$.T ~ T ",
"5 4 4 5 5 6 s j A w 5 s s 9 T g.l.7 . . .                                                                             . . o 5 bXbX-Xs.f.o.o.$.(.1Xs.s.f.3.( T H ",
"5 4 4 2 2 2 6 w j j 6 s j q c Q i.u.o . . .                                                                         . . o # u.nX7XY.p.p.o.+.o.P.1XN.s.s.p.' ~ ~ ",
"6 6 5 5 2 2 2 2 w j k s q j C r t.u.w # . .                                                                         . o o ~ 2XbX6XN.p.p.( 3.o.J.2XT.K.N.s.%.( ` ",
"6 6 q 4 2 * * * 7 w l h 4 w j w C ` [ - o . .                                                           .         . . o t P.aXbX2Xs.p.3.T +.( f.2X_.K.N.s.3.' ` ",
"6 4 4 3 2 * = = 2 3 w j w 6 q C r r ` P # . O                                                           . .     . . . ; y.}.mX7X}.p.7.+.T ] ) d.-XT.B.M.s.p.] ~ ",
"7 4 3 3 2 * = = * - 3 q j y 4 C C c j { { . .                                                           . . . .   . + ` J.6XmX7XK.s.y.1.~ ' O.f.*XT.B.V.&.3.~ ~ ",
"7 7 4 4 7 * = = $ - > > 6 h 4 4 r H j w l I . . . .                                                         . . . + u.g.}.iX7X3Xm.p.3.+.H G ' p.K.B.V.s.} R G G ",
"6 2 2 7 2 2 * @ % - - - 5 6 w w w 9 C S w l l O . . . . .               . . .                               . . > y.p.K.6XiX>XY.m.M.p.] T G ] p.d.s.N.d.o.H D A ",
"6 4 5 5 7 7 7 2 % % @ @ @ 2 w j j 4 q S S w w j O o . . .                   . . . .             . .         . - $.s.B.-X7X>X{.d.s.s.3.( ~ ~ ] 3.7.f.j.$.~ H H D ",
"q 6 q 6 4 4 6 5 2 2 % @ @ @ 7 6 h j q 4 j S S l h 2 o . . . X X                                 X .     . o 5 T &.m.T.7X7X*XD.7.s.s.%.~ K K ( #.$.a.y.~ T T H C ",
"w w w q 6 5 5 5 6 2 % % % @ @ % 5 s h q q j l S S z h 2 o . . .                         .     X     . . O 5 H %.&.T.3X7X7XT.0.d.s.p.' H H H T ' o.o.( Y H G C D ",
"C j u w w w 6 4 6 7 $ @ @ @ @ * 2 < 6 h 6 4 q w S { { { z 6 O . . X .                       .     X = 2 w D W @.R.T.3X3XT.M.7.p.p.$.` G C A T ' R R T T C r C H ",
"Z C j u j y 4 4 6 6 7 2 @ @ @ $ % - - 2 q w w q q w y l I P S h O O . . . . . . . . . . . X . X = * 2 w D R *.B.T.XX3XXXM.s.N.s.p.$.` C C C H W R Y R Y C C H H ",
"C C j j j w 4 4 6 6 6 7 2 * $ @ < - - < 5 2 6 j 6 w y w 6 w y h S j w 4 - O O O O O O * * 2 7 7 7 2 3 e R @.m.T.T.-XT.V.0.s.s.7.p.;.` C C H T o.o.o.R Y H H ~ T ",
"r j j j y 6 3 4 6 6 4 2 2 4 6 7 2 - - - @ - 2 < w 6 6 4 6 y w q w w w w w w w i h x i 6 7 7 2 2 5 q c R &.B.R.B.XXT.&.*.m.N.s.&.p.$.T D Y ' %.&.*.%.o.T ~ ~ ( O.",
"w w y w 6 4 4 4 4 4 6 6 4 3 6 j h w 6 4 2 - - - < < 2 2 4 6 6 w w u u u y w 6 6 6 6 7 2 3 2 2 9 q m o.f.N.V.V.R.V.&.*.s.N.s.&.*.&.| R R R s.K.T.K.*.o.o.( o.o.%.",
"4 6 4 6 4 3 3 3 4 4 4 0 4 3 w j S z j h w 4 3 2 - @ @ @ < 7 7 6 6 6 6 4 4 4 4 7 2 2 3 3 > > 9 r D $.s.-.*.m.V.m.@.@.#.7.p.&.@.@.*.R U o.f.2X2X-XR.*.@.o.( ' o.#.",
"4 7 2 2 2 7 7 7 6 4 4 4 4 9 r Z Z z z j h y w 6 6 7 2 2 % 2 2 * 2 * * * * 2 * $ 2 2 3 9 9 e Z Q p.p.-.&.-.N.s.o.R o.3.p.p.%.@.@.@.} o.N.2XHXHXVXT.V.&.%.o.' o.o.",
"7 2 2 : 2 7 7 7 4 4 4 4 4 0 r C u u w w 6 6 6 6 6 5 4 4 7 7 2 2 * * * * * * 2 2 > 3 0 r Z Q ' ;.%.| | %.$.%.R E E o.$.$.o.o.o.@.@.} *.K.7XHXHXVXT.B.s.o.( ' o.o.",
"7 2 @ @ : 2 7 7 7 4 4 4 4 0 w u w q 4 4 3 3 4 4 4 7 4 4 5 2 2 - % * 2 2 2 2 4 q j C H H T T F F n Y W W Y U D U U ' %.' R | @.%.@.} *.B.3XBXBX9XT.R.p.o.R ' %.( ",
"2 2 - @ @ 2 2 7 2 7 3 4 3 4 4 q 4 4 4 4 4 4 6 6 q 6 4 4 4 4 3 3 4 4 4 4 9 w u C D T ` T F D D D Y Y F D D D D D R ' o.R R o.$.&.@.@.0.D.8X7X7X3X.XT.p.o.T Q ' R ",
"2 2 : @ @ : 2 7 7 7 7 2 2 3 3 3 2 2 2 2 4 6 w y w w r r u C C C C C C D F T T W W W T D b b C C F Z b r r r b D U R | R R W o.#.| } &.m.m.B.V.V.B.-.| Y F C D D ",
"4 4 2 2 : 2 2 4 4 4 2 > > > 2 2 3 2 - - - 2 6 w Z C D H H Y F U R R R o.%.$.%.o.R Y c e r C C C C C u w r C C c n R | R R R W W R R @.s.m.V.x.*.m.@.D F Z e e e ",
"6 4 2 2 2 2 2 2 6 3 3 3 3 3 3 4 2 2 $ $ : 2 3 0 C Z F R R R R | @.*.-.p.p.+.Q D b r r r r r r r r r r w w w w t b R %.%.W Y n n n Y | &.-.m.-. .W Y F C u 0 0 0 ",
"6 4 2 : @ - > 2 4 3 3 3 3 3 3 3 2 $ @ @ : : 3 0 b D Y R R | %.%.@.@. .| R F c t r r e r r r r r u r w q 4 4 4 0 C R ' R Y n c c c n R | *.*. .W Y Z u y w 4 4 4 ",
"4 3 2 : @ @ : : > 3 9 3 9 0 0 3 2 $ @ @ @ > 3 0 r b F Y Y W %.%.R Y U n c c r r 9 9 9 0 r r r r r 0 0 3 2 2 3 3 r n D n n b c b b D Y W |  .W Y c e 4 4 4 4 3 2 ",
"3 2 : @ @ @ : : > 9 0 0 r w 0 3 4 : @ @ : 2 4 w 0 r b b D Y Q W U U D b b r r 0 > 8 9 0 r r r w 9 3 > : : : 2 2 8 e e v b b u b b Z D Y Y U c e 9 > : 2 2 2 : : ",
"> 2 : : @ @ : > > 9 r u C u 9 3 3 : @ @ : 2 3 0 0 0 e r r r b Z b b Z Z b r 0 9 > > 9 0 r r w 0 > > , - @ $ > > 8 9 e v b u r u C Z F F F b e 3 > - @ $ * $ - - ",
"> > > : : : > 3 3 0 u C Z u 8 9 3 - @ @ @ : 2 3 w 9 9 0 0 9 9 0 9 9 0 0 0 0 4 4 > 3 9 0 w w 0 4 > > : - @ @ , > 9 e e b b u e u w w r u r 9 - - - @ O @ $ @ @ - ",
"> 2 2 > : : > 3 > r u b Z u 8 8 > - @ @ : : : 2 3 3 > > 2 2 > > > > > > > > 2 2 3 4 0 w 0 0 3 3 > : : , , : > > 9 0 e u u 0 0 w 0 0 w w 9 > @ @ @ O O @ @ @ @ : ",
"2 2 2 : : - > 3 > r r r b b 8 8 3 : @ - : : 2 2 : > > - - 2 : @ - - - @ @ @ : > 4 w y u 0 3 > > , , , : > > > > 9 0 0 0 0 > > 3 0 3 3 3 > @ O O O O O @ @ @ @ > ",
"- > > : : : > > > 8 8 8 e e e > - - @ @ @ @ @ : @ @ @ O @ @ @ @ @ O O @ @ @ @ - : > 3 3 > - - - : , , , > > > > 9 9 9 8 > > > > > > > > - @ # O O O O O O # # @ "
};
