/* XPM */
static char *_e4ac5fcf8f549cea67c3eebc7cc1eb6h7cqQDMpUMPExKRY[] = {
/* columns rows colors chars-per-pixel */
"83 83 256 2 ",
"   c None",
".  c #3C0C17",
"X  c #350C08",
"o  c #29173A",
"O  c #31132D",
"+  c #3E2423",
"@  c #450B1C",
"#  c #47161C",
"$  c #5A1A14",
"%  c #68181A",
"&  c #542A16",
"*  c #662315",
"=  c #6E3211",
"-  c #491627",
";  c #5C1C24",
":  c #5D152C",
">  c #5B1B2C",
",  c #551726",
"<  c #5C1C33",
"1  c #5C1B3C",
"2  c #591638",
"3  c #4B132B",
"4  c #631B2B",
"5  c #67172A",
"6  c #75182C",
"7  c #651B33",
"8  c #691636",
"9  c #751635",
"0  c #6C0F34",
"q  c #5B2427",
"w  c #5C2637",
"e  c #502C2D",
"r  c #64222C",
"t  c #69282A",
"y  c #76262B",
"u  c #683629",
"i  c #763B29",
"p  c #662637",
"a  c #762835",
"s  c #6A3737",
"d  c #783837",
"f  c #7A4819",
"g  c #704D1A",
"h  c #534F33",
"j  c #784328",
"k  c #7B4336",
"l  c #6C4C2B",
"z  c #6B6532",
"x  c #331F47",
"c  c #362247",
"v  c #3C2D4C",
"b  c #581A46",
"n  c #4C1C49",
"m  c #651945",
"M  c #701A4A",
"N  c #463955",
"B  c #502D4C",
"V  c #682646",
"C  c #732849",
"Z  c #763947",
"A  c #762857",
"S  c #7A3A57",
"D  c #6A344C",
"F  c #5A3978",
"G  c #4D3167",
"H  c #672D6C",
"J  c #65336D",
"K  c #633175",
"L  c #71346D",
"P  c #4C4458",
"I  c #574A5E",
"U  c #54524B",
"Y  c #7C4455",
"T  c #714E4E",
"R  c #726648",
"E  c #554C63",
"W  c #5B5365",
"Q  c #5A5467",
"!  c #5D427D",
"~  c #5D5170",
"^  c #784666",
"/  c #61576C",
"(  c #655A74",
")  c #6F4D6A",
"_  c #6D6379",
"`  c #72677D",
"'  c #736366",
"]  c #59654C",
"[  c #811932",
"{  c #843A3B",
"}  c #8D382A",
"|  c #B03926",
" . c #8D381C",
".. c #C7381B",
"X. c #E13D17",
"o. c #895919",
"O. c #895113",
"+. c #966919",
"@. c #906A18",
"#. c #B47818",
"$. c #A77613",
"%. c #884929",
"&. c #955925",
"*. c #844439",
"=. c #91542F",
"-. c #AE4E2E",
";. c #956826",
":. c #986B36",
">. c #936F2E",
",. c #A87725",
"<. c #AA7A3A",
"1. c #AF7030",
"2. c #A5591F",
"3. c #CB462A",
"4. c #C9652D",
"5. c #D0541E",
"6. c #863B43",
"7. c #813C55",
"8. c #822E56",
"9. c #873867",
"0. c #854648",
"q. c #954948",
"w. c #864657",
"e. c #91554F",
"r. c #A85551",
"t. c #946A49",
"y. c #987749",
"u. c #976459",
"i. c #977759",
"p. c #896B53",
"a. c #A9774C",
"s. c #884866",
"d. c #944C69",
"f. c #955569",
"g. c #8A4A74",
"h. c #954C76",
"j. c #885778",
"k. c #975478",
"l. c #89586A",
"z. c #977968",
"x. c #8B7676",
"c. c #977A78",
"v. c #8C6D6C",
"b. c #A46E6B",
"n. c #A15779",
"m. c #C56A55",
"M. c #B78919",
"N. c #B48915",
"B. c #B78628",
"V. c #BC9529",
"C. c #B78536",
"Z. c #B08D33",
"A. c #BAA02F",
"S. c #C6881A",
"D. c #CA9A17",
"F. c #DB931C",
"G. c #D09212",
"H. c #E79917",
"J. c #F09C0F",
"K. c #D5A713",
"L. c #E8B50C",
"P. c #E8B615",
"I. c #EBB311",
"U. c #C78927",
"Y. c #C59928",
"T. c #C78835",
"R. c #D0962E",
"E. c #C6A429",
"W. c #D7A926",
"Q. c #CAA736",
"!. c #D7B130",
"~. c #E4B324",
"^. c #E8CB34",
"/. c #DFC238",
"(. c #9C834C",
"). c #A8864A",
"_. c #AF8950",
"`. c #9A816A",
"'. c #968179",
"]. c #AA856D",
"[. c #CDA845",
"{. c #C59064",
"}. c #E3C340",
"|. c #683D8A",
" X c #713B8C",
".X c #6D3E95",
"XX c #6D3D9B",
"oX c #673F90",
"OX c #713C96",
"+X c #5D3A85",
"@X c #6A418B",
"#X c #654287",
"$X c #684193",
"%X c #714094",
"&X c #766B83",
"*X c #7E738B",
"=X c #7D7391",
"-X c #9A5485",
";X c #965488",
":X c #A55988",
">X c #AA5D95",
",X c #AF5A97",
"<X c #8A7688",
"1X c #967987",
"2X c #857B94",
"3X c #8A7D9B",
"4X c #877A95",
"5X c #957C96",
"6X c #8B6788",
"7X c #A9648C",
"8X c #AB6294",
"9X c #AD649C",
"0X c #A5639A",
"qX c #B3649D",
"wX c #B46598",
"eX c #A17D96",
"rX c #987EA4",
"tX c #8B78A0",
"yX c #AD63A4",
"uX c #B565A4",
"iX c #B965A3",
"pX c #B665AB",
"aX c #B965AB",
"sX c #B569A5",
"dX c #B864B1",
"fX c #AA5EA2",
"gX c #968488",
"hX c #8D829C",
"jX c #8B8498",
"kX c #93849C",
"lX c #998598",
"zX c #8E838A",
"xX c #A28E91",
"cX c #8E87A7",
"vX c #9486A4",
"bX c #9B86A4",
"nX c #9589A5",
"mX c #9989A6",
"MX c #9686AB",
"NX c #9986AC",
"BX c #9689AA",
"VX c #9788AD",
"CX c #9589AB",
"ZX c #9989AA",
"AX c #9989AD",
"SX c #9888AD",
"DX c #9A86B1",
"FX c #9589B1",
"GX c #9787B1",
"HX c #9A91A7",
"JX c #B5AFB1",
"KX c #A49AAF",
"LX c #CFBAB2",
"PX c #C4999A",
"IX c #E8E5E6",
"UX c #D3CED3",
/* pixels */
"                                                                                                                                                                      ",
"                                                                                                                                                                      ",
"                                                                        v P P P P N v                                                                                 ",
"                                                                  N ( *X2X3X3X3X3X3X4X2X&XQ                                                                           ",
"                                                              v I ` 4XvXnXBXBXBXMXBXBXnXhX2X` Q N                                                                     ",
"                                                            v _ 2XhXvXBXVXAXVXVXAXAXAXVXBXvXvX4X` N                                                                   ",
"                                                          P ` 3XvXBXZXMXVXAXDXAXAXVXVXVXAXAXZXMX3X` P                                                                 ",
"                                                        N ` 3XnXBXBXAXAXAXAXAXAXAXAXAXAXAXAXAXAXvX4X` I                                                               ",
"                                                      P ` hXnXBXAXAXAXAXAXNXMXVXAXAXNXNXNXNXNXAXZXnXhX*XP                                                             ",
"                                                      ( 3XnXBXAXNXAXZXZXAXAXAXVXVXAXNXNXNXNXAXAXZXmXnXkX/                                                             ",
"                                                    Q 2XvXBXVXZXZXZXZXBXAXAXFXFXCXBXAXNXNXNXAXZXZXbXnXvX&XP                                                           ",
"                                                  N *XvXAXAXVXZXZXZXZXZXAXDXFXFXnXBXZXNXDXDXNXZXZXZXZXZXhX&XP                                                         ",
"                                                v Q vXVXAXAXAXAXAXNXAXNXDXDXDXVXmXbXbXAXDXDXNXZXZXAXZXZXBXhX&XP                                                       ",
"                                                P ` BXVXAXAXAXAXAXNXDXDXDXDXNXbXlXeXlXbXNXNXNXAXZXAXMXBXBXnXkX/                                                       ",
"                                                / 2XBXBXVXAXMXMXNXMXMXAXNXNXeX1Xb.b.b.1X5XNXNXNXNXNXAXVXBXBXnX*XE                                                     ",
"                                              P ` hXZXBXVXAXMXAXVXVXBXBXmXeX7Xr.r.-.r.f.1XbXMXFXDXNXAXVXAXBXBXvX`                                                     ",
"                                              W 2XvXBXVXMXMXAXAXVXvXvXkXlX1Xr.-.3.X.3.q.c.kXCXFXFXFXAXAXAXVXAXnX4XP                                                   ",
"                                              _ kXnXBXAXAXMXAXMXvXcXkXlXgXv.q.-.X.X...| u.1XvXCXCXVXDXDXAXVXVXBXvXQ v                                                 ",
"                                            P <XnXZXBXAXAXAXAX3XhXKXJXLXKXx.u.r.3.3...| -.f.5XZXVXVXAXMXMXDXMXBXnX&XP                                                 ",
"                                            I hXnXZXAXAXMXMXAX3XnXUXIXIXLXxXxXPX{.4.....| q.1XbXNXAXAXDXDXFXVXVXBX2X(                                                 ",
"                                            / nXZXBXAXAXAXMXMX3XKXIXIXJXxXgXzXJXLXm.3...| q.1XbXNXNXAXAXDXDXVXVXBXvX&XI                                               ",
"                                            ( nXZXMXAXAXAXMXMX3XHXUXUXgX' ' ' KXLX{.-.| | e.5XbXNXNXAXAXAXDXDXVXBXnX2XQ                                               ",
"                                          P ` nXAXNXNXAXAXAXBX3XhXJXLXxXR T v.LXLX].=.-.-.w.5XNXNXAXAXAXAXDXDXAXVXBXhXW                                               ",
"                                          E *XZXAXAXAXNXNXAXAXvX4X<X'.b.a.:.a.].].:.%.%.*.l.5XAXNXAXZXAXAXDXDXAXAXBXkX_                                               ",
"                                          E 4XAXNXNXDXAXNXMXBXmXnXx.t.1.4.4.4.1.:.&.=.=.u.1XnXAXNXAXZXZXAXDXDXAXAXZXvX*X                                              ",
"                                          W 3XAXNXNXDXNXZXZXBXBXmX<Xu.4.4.5.5.2.2.&.=.t.c.lXBXAXNXNXZXBXAXDXDXNXAXBXnX4X                                              ",
"                                          / cXZXAXNXDXNXZXmXBXVXBX5Xu.1.4.-.2.2.2.2.:.i.gXkXBXVXFXVXAXBXAXDXDXDXNXAXAXvXE                                             ",
"                                        E ` vXMXBXVXDXNXZXmXnXVXVXkXv.e.=.e.q.=.&.;.:.p.gXbXnXBXVXBXnXBXMXDXDXDXNXNXNXMX~                                             ",
"                                        E =XMXMXBXBXDXDXNXBXBXVXVXbX1Xl.l.c.c.p.:.B.Z.i.gXlXlXlX5X5XlXbXDXDXMXNXMXMXNXMX(                                             ",
"                                        / tXDXMXnXBXNXDXDXMXBXBXZXbX5X<X<XlXlXc.).Q.Q._.c.lXlX1Xc.c.1XlXbXvXvXnXBXNXNXNX&XN                                           ",
"                                        ( rXDXCXnXnXNXDXDXVXBXMXNXNXNXvXvXnXkXgX_.A.Q._.`.gXgXb._._.i.z.gXlXnXnXnXMXNXNX2XP                                           ",
"                                      P &XrXMXCXnXnXNXNXNXVXVXNXNXDXDXVXBXBXnXlX`._.[.[.(.c.`.a.T.T.,.<._.`.lXcXFXMXNXNX3XQ                                           ",
"                                      P 6XvXMXCXCXnXMXNXFXFXVXMXNXNXFXVXMXMXMXlX`.).[.[.(.z.z.C.F.F.S.U._.i.gXnXFXAXAXZX3XQ                                           ",
"                                      E 4XbXNXCXCXCXVXDXFXFXVXMXNXMXNXNXNXNXMXlX`.).[.[.).z.z.C.F.H.H.H.T.y.gXBXFXBXBXBXcX/ P                                         ",
"                                      E 4XNXNXmXnXCXnXMXVXMXMXMXMXMXNXNXNXNXNXlX`.Z.!.[.).z.z.C.F.H.H.G.#.:.c.bXFXnXnXBXvX` E                                         ",
"                                      E 3XNXbXbXnXnXcXvXvXvXNXZXBXVXMXMXNXNXbX1Xi.Y.!.Q.y.z.z.a.U.S.F.F.U.a.p.1XMXnXnXBXvX&XE                                         ",
"                                      E 3XvXbXlXmXBXcX=X&X2XkXNXZXBXBXvXMXNXbXc.a.Y.~.Q.y.z.z.a.U.#.U.R.T.{.e.x.vXnXnXBXvX&XI                                         ",
"                                      E 3XvXbXlXlX1X_ W Q W ' <XlXkXnXnXBXvXzXi.Z.W.~.R.y.z.z.a.C.#.U.,.<.a.p.1XbXMXBXNXbX<XI                                         ",
"                                      E 3XnXbX1Xz.v.T U ] U h R p.x.lXnXnXzXv.(.E.P.P.W.Z.i.z.y.C.#.C.:.u.z.x.5XNXVXBXNXbX<XW                                         ",
"                                      Q 2XcXzXv.i.y.l h ] ] z (.(.i.x.1XlXx.y.Z.W.P.L.P.Y.:.i.t.,.B.T.t.c.lXlXrXDXMXVXNXbX4XW                                         ",
"                                      Q jXhXc.t.a.>.g h ] ] p.(._.i.z.z.i.y.Z.V.D.L.L.I.W.Z.:.>.,.U.T.t.<XbXZXMXDXMXVXFXNX4X/                                         ",
"                                      Q jXjXz.<.,.+.z h h R i.i.z.i.t.>.;.B.V.B.D.L.L.I.~.V.@.;.C.R.T.t.<XvXBXMXMXMXVXFXFX4XQ                                         ",
"                                      Q jXzXi.U.S.#.,.o.g >.t.z.c.z.t.;.M.Y.V.N.D.P.L.P.~.E.+.+.T.T.<.i.hXcXnXMXMXMXDXDXNX3X(                                         ",
"                                      Q hXzXz.U.F.G.S.#.$.,.:.i.c.c.a.Y.W.D.M.N.D.K.K.D.W.E.$.$.C.1.:.z.vXFXFXCXMXNXDXNXNX3X(                                         ",
"                                      W hXkXz.1.F.H.H.H.F.U.<.z.c.z._.W.P.D.N.N.D.K.G.$.N.N.$.#.T.a.t.c.BXCXCXBXMXNXMXMXMX4X/                                         ",
"                                      W hXkXc.y.U.F.J.J.H.S.:.z.z.y.Q.~.P.K.K.D.G.H.F.#.$.N.#.U.T.a.v.gXBXBXBXnXmXVXVXnXnX4X(                                         ",
"                                      W hXkXlXz.:.M.H.H.G.B.:.z.i.Z.W.P.I.P.P.L.K.L.P.D.N.M.#.,.a.z.1XlXvXMXNXbXbXMXVXVXnX2X/                                         ",
"                                      W hXvXlXc.R @.R.U.#.<.i.z.i.Z.~.P.L.L.P.L.L.L.P.~.D.M.,.;.t.z.c.1X5XvXNXNXNXMXNXNXbX4X/                                         ",
"                                      I 4X5X5X<XT l <.C.>.i.'.v.y.Y.W.D.D.K.P.P.L.P.P.~.W.Q.C.:.e.u.u.l.v.5XNXNXbXrXrXrXrX6XI                                         ",
"                                  - 3 B j.j.j.) h h l =.e.v.<X' t.C.B.+.o.$.M.D.D.D.S.B.B.B.,.&.%.-.-.=.T l.6X6X6X6Xj.j.j.) B +                                       ",
"                                3 7 : q w w V V - # & * u U I D i o.f = * = f O.O.O.= = = = = *  . . .* t s w w w w p Z p w e e +                                     ",
"                              @ : 9 5 t d t : 7 > q $ % * e e w q & * % % $ $ * * * $ $ $ $ * % y y y % 5 t t t q q u 0.t q q l e                                     ",
"                            e w 8 9 6 k u.Y 4 8 a Z ; 5 a 0.t 5 4 s t 0 5 4 4 8 7 d d t ; t 6.a 6 a q.6.6 y r.r.y t k b.y 4 p s e #                                   ",
"                        B D ^ s.7.C p p p p < < p p > 7 p d 4 : w s r 5 5 t 7 8 7 d d t ; q p 8 8 8 a 8 8 5 a a 4 > > p 4 8 8 7 w q e +                               ",
"                    c B ) l.l.f.n.7Xk.s.A A V V w w w 1 : : 7 1 < , > 7 : , : 8 7 , # , < 1 1 m M 8 8 8 8 1 : : > < 1 V m m M M C Z T l e                             ",
"                  B I T s q q t w.8XyXsXuXqX,X:Xk.j.j.;X;X-X-Xk.h.h.k.;X;Xg.g.s.s.^ s.h.k.:X:X:X:X:X-Xk.g.s.S Z Z Y s.-X:X,X,X,X:Xw.s u l &                           ",
"              B T T s l g f f j Z g.yXaXaXuX:Xd.0.Z D s.-X9X9XwX9X9X9XyX9X7Xk.d.w.Y Y d.:XwXqXiXuXqX9X8Xk.S u i i u Z h.,XiXaX9Xk.Y j f o.g & &                       ",
"          n ) 6XY k f +.V.E.,.f u D :XuXqX:X0.%.%.%.j u Z -XuXiXpXaXaXiXwXf.0.i i i i d w.:XiXpXuXuX9X-Xw.%.o.+.@.f i Z :XuXpX>Xs.0.;.Y.!.Q.>.g e                     ",
"        n L ;X0XY j o.Y././.Q.;.u D :XuX8Xd.k O.O.O.O.i d s.9XaXaXdXaXuX:Xq.%.O.f = = i 6.n.uXpXuXuX8Xs.d f ,.Q.Q.o.f t h.qXuX>Xs.*.&.V.}.[.Z.l l e e                 ",
"      B ^ 0XyX0XZ i @.E././.A.o.u S 8XqXk.w.j o.M.W.U.&.i S :XpXpXpXpX>Xd.*.o.#.V.M.+.f d d.9XpXiXiX:X7.i f Q.^.^.V.o.i s.:XqX8Xd.d j ;.Z.Z.>.k 0.s.^ B O             ",
"    B j.0XaXdXuXS i f +.B.B.o.j Z h.uXqXh.Y j o.!.^.!.;.i S :XuXaXpXsXh.S %.,.!.^.^.Y.o.*.s.8XsXaXiX>Xw.i g Q.^.^.V.o.%.w.:XqXqX:X7.d j g g j 0.f.:X>X;X^ B           ",
"    D 0XsXaXaXsXs.d i f f f i d d.,XiXwXh.0.j O.B.Y.B.o.d 7.:XiXaXpXsXh.S j ,.~.^.^.Y.o.*.s.0XpXpXpXqXk.u = Z.A.E.+.o.i d.8XiXsXqX-Xs.Y Z Z w.k.8XuXuX9X7Xj.D         ",
"    B g.>X,XyX9Xk.Y d d d d Z s.:XiXiXwXn.w.d f @.,.o.j 6.s.wXiXiXpXuX-Xw.i @.V.W.E.N.o.*.d.9XaXaXpXsX:Xs u g o.@.f j d n.wXiXaXsX9X:Xk.k.k.k.8XqXuXqX>X:Xj.D -       ",
"    3 b V S ^ g.l.l.s.s.d.k.:X,XqXiXsXqX8Xd.6.%.%.&.%.{ s.:XqXiXuXuXiXqXh.d = f o.o.o.%.w.:XuXaXaXpXsX8Xd.s s j k d 0.d.8XiXaXdXdXsXqX8X8X7X:X:X-X-Xh.9.8.C 1 , @     ",
"    3 2 , , < w V D S S s.g.-X-X:X>X>X8X8X:Xd.0.*.*.0.f.:XuXsXsXuXiXsXuX:XY u u u j k 0.k.8XuXaXaXpXsX9X7Xk.s.w.w.f.k.8XqXqXuXyXfX>X:X:Xk.g.9.9.A M M 9 9 5 4 p 3 @   ",
"    3 < q q 4 5 : > < 1 V V V A A L 9.s.g.h.d.w.w.w.s.k.-X-X-X-X;X;X;X-Xk.Y D w w s Z Y g.-X-X-X;X;X-X-X-Xk.g.g.d.h.k.-Xk.h.h.g.g.L S A C V 8 m M 0 5 6 6 6 i s @     ",
"    . - q u r 9 4 r 4 : > w < 7 8 8 < w < 7 p p p V V V C A A V 1 1 V V V w q < > q q p V V m m V A A V C A A V V C C V p p p p p V 7 8 8 a a 9 9 8 t a 6 t u u .     ",
"        + & , 5 ; t 7 7 r s a 8 8 7 t t $ , ; t r : > r p 8 8 4 ; ; : : > ; 4 5 4 q q > 5 8 5 : : 8 0 4 5 8 0 5 r 5 0 : r t ; ; r Z p 5 a 6.{ a 8 4 r r 5 , #         ",
"            @ @ # , , : , q r 7 8 7 s d $ 5 y *.a 5 5 d q.6 6 a q.*.t 5 a *.y 6 6 { q.{ 6 6 a 6.y 0 6 { } 6 9 a *.5 0 5 d d t ; r s r ; 4 t t ; : , # # @ @           ",
"                      . . # # , > , , q , 5 y *.a 6 5 { q.9 9 d e.q.y 4 d *.} [ [ 0.r.6.y y { 6.y 5 a q.{ [ [ a { 5 8 : ; q , # # - # # . X X                         ",
"                                - . . . @ , , q : 8 : q p 0 8 7 a t 4 : r t 6 9 8 a a y 5 4 4 r 4 0 5 y y 9 9 7 w 2 2 3 . . . @                                       ",
"                                          . O 3 n b b 2 2 b m 1 1 1 b b 1 2 1 m b b 2 1 1 b 2 b b b b 2 1 m m b n b n 3 O                                             ",
"                                            o B G F K J J J H H H H H H H H H J H H H H H J K K K K K H H K K F F G B o                                               ",
"                                              v F |..X|.|.|. X X X X X X X X|.@X@X X X X.X$X$X%XOX X X X X@X@X@X#XN c                                                 ",
"                                                N F |.@X$XXXXXOXOX.X.X.XOXXXXX$X$X.XOXXXXXXXXX.XXX.X.XOX|.@X#XF F c                                                   ",
"                                                  v F #X@X$XXXXXXXXXXXXXXXXXXXXXXXXXXXXXXXXXXXXXXXXX.X.X@X#XF N c                                                     ",
"                                                    c G F @X.XXXXXXXXXXXXXXXXXXXXXXXXXXXXXXXXXXXXX%X@X#XF G v o                                                       ",
"                                                      o G F |.oX$X.XXXXXXXXXXXXXXXXXXXXXXXXX.X.XoX|.F F N x                                                           ",
"                                                        o c G F F |.oX$X$X$X$X$X$X$X$X$X$X@X|.+XF G N x o                                                             ",
"                                                            o x v G G F F ! #X! ! ! ! F F G G v x o                                                                   ",
"                                                                    o o o x c x o o o o o o                                                                           ",
"                                                                                                                                                                      ",
"                                                                                                                                                                      "
};
