/* XPM */
static char *_5700cebdf784aa49846faa435b080faSIxS5yrAupHnqjLt[] = {
/* columns rows colors chars-per-pixel */
"80 80 256 2 ",
"   c None",
".  c #370A18",
"X  c #380D0F",
"o  c #3B2215",
"O  c #281638",
"+  c #311733",
"@  c #32283B",
"#  c #1A0B28",
"$  c #46091B",
"%  c #48141B",
"&  c #59191A",
"*  c #56180C",
"=  c #691917",
"-  c #562912",
";  c #522C13",
":  c #683916",
">  c #763A19",
",  c #6C2C0F",
"<  c #4B0B25",
"1  c #550D26",
"2  c #4A1526",
"3  c #5C142C",
"4  c #571827",
"5  c #5A0C34",
"6  c #4A1A36",
"7  c #5A1835",
"8  c #4B0F31",
"9  c #671829",
"0  c #75172A",
"q  c #640F37",
"w  c #681636",
"e  c #761735",
"r  c #700D32",
"t  c #5B2427",
"y  c #592637",
"u  c #55312B",
"i  c #682828",
"p  c #73262B",
"a  c #6A3629",
"s  c #763928",
"d  c #672836",
"f  c #762835",
"g  c #693637",
"h  c #773738",
"j  c #784717",
"k  c #714B12",
"l  c #53522E",
"z  c #794525",
"x  c #774437",
"c  c #70502D",
"v  c #695F2E",
"b  c #2E1B42",
"n  c #362547",
"m  c #3B3646",
"M  c #3C2453",
"N  c #6D1645",
"B  c #45394B",
"V  c #5C275C",
"C  c #473E54",
"Z  c #502E4B",
"A  c #662746",
"S  c #683844",
"D  c #773A46",
"F  c #652659",
"G  c #783958",
"H  c #6F2F51",
"J  c #4A2D63",
"K  c #5A2867",
"L  c #5A3B78",
"P  c #4F3367",
"I  c #662B66",
"U  c #561941",
"Y  c #4B4457",
"T  c #524A5D",
"R  c #524559",
"E  c #53514B",
"W  c #774547",
"Q  c #7A4454",
"!  c #6C504F",
"~  c #554C62",
"^  c #5B4D6C",
"/  c #635669",
"(  c #655C73",
")  c #77486C",
"_  c #776679",
"`  c #6E6472",
"'  c #616657",
"]  c #B83118",
"[  c #821530",
"{  c #833938",
"}  c #893330",
"|  c #A73C2D",
" . c #CF3718",
".. c #DB3D1C",
"X. c #875917",
"o. c #8A4E12",
"O. c #A84F1E",
"+. c #986916",
"@. c #926A13",
"#. c #A6771A",
"$. c #B67617",
"%. c #A7740E",
"&. c #874925",
"*. c #874637",
"=. c #92562F",
"-. c #AF4F31",
";. c #9B6B25",
":. c #986737",
">. c #907032",
",. c #A6782B",
"<. c #A47A36",
"1. c #B37130",
"2. c #CA4728",
"3. c #D0672B",
"4. c #C86818",
"5. c #843B48",
"6. c #833857",
"7. c #8B3B6E",
"8. c #874648",
"9. c #975846",
"0. c #884658",
"q. c #905350",
"w. c #A55350",
"e. c #8A6847",
"r. c #966B48",
"t. c #987748",
"y. c #977657",
"u. c #8B6E54",
"i. c #A77A49",
"p. c #A96A4F",
"a. c #884767",
"s. c #924768",
"d. c #92556A",
"f. c #8B4875",
"g. c #944C79",
"h. c #895679",
"j. c #975477",
"k. c #8C586C",
"l. c #A2567C",
"z. c #8C7668",
"x. c #977969",
"c. c #8C7778",
"v. c #967B77",
"b. c #8D696C",
"n. c #A96C67",
"m. c #C35B49",
"M. c #B68A15",
"N. c #B58C13",
"B. c #AA8327",
"V. c #B88837",
"C. c #B48D2F",
"Z. c #BEA335",
"A. c #D9971B",
"S. c #CE9018",
"D. c #E89A17",
"F. c #F39B0F",
"G. c #DCAB1A",
"H. c #D9A90A",
"J. c #F3BA08",
"K. c #E9B916",
"L. c #F1B916",
"P. c #EAB011",
"I. c #C58827",
"U. c #C6992B",
"Y. c #C38A32",
"T. c #C79B38",
"R. c #D69337",
"E. c #D49028",
"W. c #D5A527",
"Q. c #D7A936",
"!. c #D8B536",
"~. c #CCA92F",
"^. c #E6B524",
"/. c #E5B52D",
"(. c #E49823",
"). c #E7C93A",
"_. c #EED12E",
"`. c #ECC011",
"'. c #A88442",
"]. c #B78D4E",
"[. c #9B827A",
"{. c #AB8878",
"}. c #9D8154",
"|. c #D6B151",
" X c #D5A54C",
".X c #E7CB42",
"XX c #6C3D8A",
"oX c #723B89",
"OX c #6D3D9B",
"+X c #6D3D95",
"@X c #713C97",
"#X c #663D94",
"$X c #6A418C",
"%X c #654387",
"&X c #694195",
"*X c #724190",
"=X c #776C85",
"-X c #7D738B",
";X c #776C8B",
":X c #5F4382",
">X c #984A84",
",X c #9A5785",
"<X c #885381",
"1X c #A55988",
"2X c #A95C97",
"3X c #B45E99",
"4X c #86778B",
"5X c #977B86",
"6X c #847A94",
"7X c #887A97",
"8X c #957A95",
"9X c #90688A",
"0X c #A6638A",
"qX c #AC6598",
"wX c #B4659C",
"eX c #B36598",
"rX c #A37587",
"tX c #9479A3",
"yX c #AD65A2",
"uX c #B565A3",
"iX c #B965A4",
"pX c #B469A3",
"aX c #B665AB",
"sX c #BA65AB",
"dX c #B669A9",
"fX c #B965B2",
"gX c #B45DA1",
"hX c #99888B",
"jX c #8D839B",
"kX c #888197",
"lX c #9B859D",
"zX c #978798",
"xX c #968A8D",
"cX c #A58B99",
"vX c #8E87A5",
"bX c #9486A4",
"nX c #9B85A4",
"mX c #958AA5",
"MX c #9989A5",
"NX c #9686AB",
"BX c #9986AC",
"VX c #9589AB",
"CX c #9889AA",
"ZX c #9989AD",
"AX c #9989AC",
"SX c #9A86B1",
"DX c #9589B1",
"FX c #9989B1",
"GX c #9586B3",
"HX c #8F87B0",
"JX c #A391A9",
"KX c #B6AAA1",
"LX c #D0A99C",
"PX c #D2CAD0",
"IX c #F3F1F1",
"UX c #E4D8D6",
/* pixels */
"                                                                                                                                                                ",
"                                                                                                                                                                ",
"                                                                            @ B Y T T T B @                                                                     ",
"                                                                      B ( 4XjXvXvXvXbXbXjXjX=XC                                                                 ",
"                                                                  B ( -XjXmXAXCXCXZXZXZXCXCXmX-X~ m                                                             ",
"                                                                Y 6XmXCXCXCXAXAXFXZXNXAXAXCXCXCXbX-Xm                                                           ",
"                                                              T 4XmXCXAXAXAXNXNXAXAXAXAXNXNXAXCXmXmX4XT                                                         ",
"                                                            ^ 4XbXCXAXNXNXAXAXBXAXAXNXNXAXAXAXAXCXCXbX-XC                                                       ",
"                                                          R jXmXmXCXAXBXBXCXCXCXBXNXNXBXAXCXCXAXAXAXAXmX-XY                                                     ",
"                                                          ` mXmXMXCXAXAXBXBXBXAXZXZXFXBXBXCXCXCXCXAXZXCXmX_ B                                                   ",
"                                                        ~ 6XCXCXCXCXAXCXFXSXBXZXVXVXDXFXBXCXmXCXCXCXZXNXCXvX(                                                   ",
"                                                      ~ jXmXAXAXCXCXCXBXFXFXBXCXmXVXDXSXFXNXAXBXCXCXNXFXAXZXvXC                                                 ",
"                                                    T jXmXCXZXNXAXCXBXBXFXZXCXnXlXMXBXSXSXFXFXSXAXAXAXAXAXZXCX( B                                               ",
"                                                    ` mXCXAXZXNXAXCXAXFXNXnX8XrXrXlXnXBXSXFXFXBXBXAXAXAXAXCXCX=XT                                               ",
"                                                  / jXVXCXZXNXFXNXFXFXZXnX5Xq.w.w.n.rXnXBXCXNXNXNXNXNXFXZXCXCXjX(                                               ",
"                                                @ 6XmXCXCXAXZXNXFXDXDXVXlXb.-.2.2.-.w.rXnXMXCXZXZXAXNXNXNXZXCXjX-XY                                             ",
"                                                Y jXVXZXNXAXFXFXNXHXVXbX8Xq.| ......-.d.5X4X6X7XbXAXAXNXAXAXCXbXjX~                                             ",
"                                              m ` bXCXNXFXNXNXAXNXZXmX8Xd.| ] ....2.9.q.hXJXJXmX7X7XAXAXAXAXCXCXbX=X                                            ",
"                                              ~ -XmXZXZXDXFXFXAXBXBXlXv.} 2. .] m.LXcXc.PXIXIXUXjX6XAXNXNXZXAXCXmXkXm                                           ",
"                                              _ jXCXZXZXFXFXAXAXBXBXlX5X}  .2.-.LXUXcXxXKXKXUXIXJX7XAXNXAXAXAXCXCXmXT                                           ",
"                                              -XmXCXZXFXFXAXAXBXBXCXnX5X{ ] 2.1.LXPX/ ' ` _ PXIXJX6XCXAXAXAXAXNXCXmX^                                           ",
"                                            Y 7XCXNXFXFXFXAXAXBXBXCXnX9X{ -.O.=.LXUXhX! ! c.PXPXjX6XCXAXAXAXBXBXCXmX(                                           ",
"                                            / jXCXAXAXFXFXAXAXCXAXBXCX8X8.| o.=.y.KX{.:.r.n.{.4X6XbXAXAXBXBXAXAXAXCX=X                                          ",
"                                            =XbXCXAXAXFXFXAXCXCXAXBXAXbXv.9.&.=.=.1.1.3.3.1.9.c.zXMXAXAXBXAXFXBXBXAX6XB                                         ",
"                                            6XmXCXAXFXFXFXAXAXCXCXBXCXmXxXx.:.=.O.O.4.4.3.3.p.c.MXmXCXCXBXBXFXBXBXAX7XC                                         ",
"                                          m bXAXBXBXSXSXFXAXCXAXNXFXZXmXzXc.u.<.O.O.O.O.3.3.p.4XCXZXCXMXCXBXFXBXAXCX7X~                                         ",
"                                          Y NXBXBXBXSXSXSXNXmXmXCXDXNXmXzXc.e.;.;.&.*.q.9.=.u.8XNXDXCXMXCXBXFXNXCXmXbX(                                         ",
"                                          ^ NXBXNXmXBXNXFXFXnXlX8X8XlXnXlXv.<.U.B.=.x.5Xb.Q b.nXAXZXCXMXBXSXFXCXCXNXNX;XC                                       ",
"                                        @ =XBXBXBXCXCXbXmXnX5X5Xx.x.5XlXzXx.V.!.V.x.zXlX8X4X8XnXCXCXCXNXFXSXNXmXVXNXFX7X~                                       ",
"                                        m -XCXCXNXVXmXmXxX[.y.r.].].x.hXc.}. X~.'.[.zXmXCXCXNXBXBXNXCXZXFXBXCXmXVXVXFXtX/                                       ",
"                                        Y 6XCXCXNXHXvXxXx.].1.$.R.E.i.[.x.'.|.T.t.hXCXCXVXZXDXDXBXBXZXVXBXBXCXVXVXVXCXtX_                                       ",
"                                        T 7XCXCXBXGXVXxXy.T.E.S.(.E.i.v.x.'.|.T.t.zXNXNXNXZXDXFXBXBXZXDXFXBXNXVXVXVXCXtX=X                                      ",
"                                        ~ vXCXmXCXGXAXhXr.I.D.F.F.A.i.x.x.V.|.T.t.zXNXNXBXBXBXNXBXBXNXFXFXFXZXHXVXVXCXnX4X                                      ",
"                                        ( bXCXmXmXZXzXx.:.$.S.D.D.E.i.v.x.V.|.~.'.5XBXBXBXCXBXNXNXNXBXNXCXVXVXvXmXMXCXNX-Xm                                     ",
"                                        _ mXCXmXmXCX5Xe.].E.D.S.$.E.i.v.z.<.!./.V.z.nXBXBXNXNXAXCXCXmXmXvXvXvXmXmXlXBXNX-Xm                                     ",
"                                      B _ nXNXmXVXmXc.*. XR.E.I.+.Y.t.v.z.<.Q.^.C.u.zXCXNXbXVXZXCXCX7X-X( =XvXCXMXlXnXbX-Xn                                     ",
"                                      B _ nXCXNXZXNX5Xu.y.:.;.Y.#.V.y.[.y.B./.L.W.<.z.zXVXVXmXzX5Xc.E E T Y / 5X5XlXMXbX6Xn                                     ",
"                                      C 4XBXCXZXNXFXnX5X5Xb.:.Y.$.'.y.x.t.W.L.J.^.Z.>.c.mXmXzXz.e.v l l ' E v u.b.5XbXmX6Xm                                     ",
"                                      R 4XBXBXZXNXSXtXCXnX9X:.T.I.X.e.u.#.^.J.J.H.U.C.u.hX5Xb.y.].].>.v ' l k <.i.b.zXvX6Xm                                     ",
"                                      T 6XFXGXZXbXNXBXCXmX4Xr.R.E.,.=.>.U.K.J.J.H.M.T.B.>.e.y.}.y.y.u.! E l v ;.<.<.v.vXkXm                                     ",
"                                      T 6XGXSXZXNXNXNXmXbX4Xr.Y.R.V.X.+.!.K.J.L.G.M.B.Q.#.X.=.y.x.x.x.u.l v >.+.B.V.x.jX6Xm                                     ",
"                                      ~ 6XBXSXSXBXBXVXHXHXbXy.;.I.V.@.N./.K.H.P.G.N.N.W.W.C.<.v.[.z.=.@.o.#.I.$.S.I.x.jXkXm                                     ",
"                                      ~ 6XNXCXBXSXNXZXHXDXCXx.:.1.Y.@.%.W.M.%.D.A.N.N.N.G.^.V.x.5Xx.'.I.S.A.D.D.(.1.v.jXjXm                                     ",
"                                      ~ 6XmXVXNXZXCXmXVXZXCX5Xu.i.R.$.%.%.@.%.^.S.N.S.N.P.L.T.y.v.x.:.S.D.F.F.D.E.:.v.mXjXB                                     ",
"                                      T 4XmXZXZXCXnXnXNXNXMXzXv.r.1.I.I.M.N.A.P.H.H.K.K.L.L./.B.y.v.:.B.A.D.D.I.,.x.zXbXjXm                                     ",
"                                      T 4XmXZXZXNXCXCXBXNXzXhX5Xx.:.+.#.N.S.^.P.H.H.`.K.L.L.^.B.t.x.u.<.M.S.W.+.e.5XMXmXkXm                                     ",
"                                      R 4XnXBXBXBXBXBXSX8X_ b.q.u.e.<.T.W.^.K.L.J.J.K.P.H.G.^.~.t.z.[.y.;.Y.V.c ! 8XMXzX7XB                                     ",
"                                      Z ) 9X9X9X9X8X8X8Xb.! 9.p.-.&.;.Y.T.U.W.W.G.G.W.M.@.+.C.Q.r.` kXc.e.:.c l E _ 9X9Xh.6 .                                   ",
"                                    u 2 y y S S A A S g g i , | O.} , , , , : o.@.+.o.: - , j ;.x S / ! a = - ; 2 A A A y 4 3 7 .                               ",
"                                  o ! t 4 & 8.i t t i t i 9 = > > p = * * * * - , , * * * = = - t d y u & = & 4 4 w 4 i g 9 0 e <                               ",
"                                o ; x d 9 = n.*.i p n.w.p e 5.w.p e 5.8.& 9 i h d w 9 t 0 r w g 3 9 i 8.f 9 1 5.D w i q.n.s 0 e 7 6                             ",
"                              2 t t d w w 9 d 4 4 9 f f 9 w w f w w d d 4 4 g W p r w g 9 9 9 g d 3 9 h p w 4 g d 7 7 d d t d A a.) S Z +                       ",
"                            u ! D H H N N N A 7 7 3 3 3 7 w q w w N q 7 7 4 % % 3 w 3 2 3 q 3 % 4 7 3 1 5 7 7 y y A A F H a.0X0Xl.k.k.h.! @                     ",
"                        o : c a D j.3X3X3X2X,Xa.Q D D Q a.g.,X,X1X1X1X1Xl.j.f.) ) a.f.f.g.>Xg.j.d.g.,X,X,X<Xh.h.j.1X3XgXaXdXyX0Xg i t u S ! Z Z                 ",
"                      ; k @.X.j h a.qXsXsXuXg.D a s s a Q j.qXwXwXiXiXwXeXj.0.Q Q a.j.0XqXyXuXeXqXqXwXqX,Xa.S D 8.s.2XiXsXaXqXG h z j j z a ! ! Z +             ",
"                    u k Z.).).+.=.D ,XaXiX3Xf a j @.+.X.&.G 1XeXpXaXsXiXj.h a s s s s 0.0XiXsXaXaXaXuX,XD a &.&.&.} 0.0XpXuX,X4 z X.U.~.M.k z W 9X) Z           ",
"                y u c X.~..X!.+.*.D ,XuXwX1Xd > X.Q.!.B.> h s.eXuXaXaXuXs.s z : j o.&.{ l.eXsXfXsXsXwX7.h > o.@.o.&.h j.qXuX,Xt j B..X).).@.z g qXyX) Z         ",
"            + I j.a.8.z <.].,.j s a.qXwXqXa.h X.C.).).!.k s 6.eXiXaXpXqX5.s o.M.W.U.+.> 0.1XaXaXaXaX2XG s ;.W./.I.o.x 0.1XuX1Xd z ;.!.).).+.j i 2XaXyXh.Z       ",
"          Z <XyXwXeXa.x : - a h D 1XuXiXeX0.*.X.C.)..X~.k s s.eXsXsXpX,XD &.#._._._.W.X.h 7.yXaXsXiX1XD s ;.!.).~.j x W l.iXuXa.h : +.#.#.j z d qXfXfXpX9XZ     ",
"        ! 9XqXpXiXuXqXd.Q Q Q a.1XuXsXiXeXj.s j X.C.C.>.: g 1XuXaXaXaX2X5.&.@.)._._.C.j D a.uXaXsXiXeX6.*.&.#.U.,.j x 8.l.iXiXeX0.h > > > s g G uXaXsXaXqXG     ",
"      6 G j.1X2XuXiXpX0X0X,X,X0XpXdXfXsXwX0XD x j X.k : u D qXdXaXaXaX2X0.&.X.N.~.U.+.: D g.uXaXiXiXeXs.5.s o.+.X.z h s.1XiXiXiX1X6.h h h h D j.qXyX2X2Xf.Z     ",
"  $ 1 3 1 q N 6.7.7.>X1X0XqXwXwXuXaXfXfXsXwX1X6.D W x g D ,XpXdXaXsXsXiXj.8.&.j k : - i s.uXsXiXpXpXuXwXs.5.*.&.&.*.5.1XeXpXdXuXuXpXqX,Xf.a.k.k.) G A 7 8 2     ",
"  < < h p 0 e r q N N H G 7.g.j.,X2X2XqXeXeXeX0X1Xd.d.k.0XqXpXdXdXdXuXpXqXd.x x x a u W 0XpXdXpXwXpXpXuXeXj.0.D D 8.l.eXqX1X1X>X>Xf.f.a.G H A y 3 1 % 2 7 6     ",
"    . x s 0 0 0 9 r N q 4 3 w A A H G 6.0.a.f.f.f.f.f.f.g.g.f.f.f.f.f.f.f.a.Q g y y S Q f.f.f.f.f.f.>X>Xg.g.a.a.a.a.a.a.G H H F A 7 2 2 8 < 4 4 r 9 a t 7 2     ",
"      ; ; 9 0 h i r e f 8.f e 9 d 4 1 % % 1 1 5 5 < 1 q q 1 1 5 5 < < < 5 3 2 % 4 9 4 $ 2 5 < $ $ < q w 3 4 7 7 1 $ $ $ $ & 1 q w w g t 9 9 h i e 0 g ; 2 .     ",
"        X 2 1 4 4 3 e h 9.h 0 9 q.h 4 i h *.9 e 9 h p r 0 p p r w 9 f 0 e 9 i a 9 0 0 i i 3 9 i f p r 9 h i 9 9 p s 9 9 & 8.d w e f 8.i w w i 4 3 1 X           ",
"                  . % X X X % 2 t 4 4 t g g 9 r 9 q.{ [ [ 9.w.0 0 { w.{ 0 } n.n.} [ [ 9.8.9 9 9.n.5.e 0 w.*.0 0 { 9.p 9 & x t w 9 4 & % 2 $     .               ",
"                            . . . . % % X X 1 q q d p e [ } { 0 0 p { p 0 p 8.8.f [ 0 *.h 9 9 { 8.f e e { p 9 r p a 9 9 % % . 2 2 % X X                         ",
"                                          . 6 U 7 6 7 N q 1 1 5 5 1 < < 3 1 1 1 5 q q & 4 3 3 1 4 1 q 5 1 < 8 5 8 2 < $ .                                       ",
"                                            @ Z V K K K K V K K I K K K V F F F F V V F F F V V F F F V V V K K J M #                                           ",
"                                              n P $X$X$X*XoXoXoX+X*X*X$X$XoXoXoXoX%X$XoXoXoXoXXXoXoXoXXXXX$X*X%XL n                                             ",
"                                              O n L %X%X$XoX@X+X+XOXOXOX&XOX@X@X$X$X+XOX@X@X+X+X@X@X+XOX&X&X&XL J                                               ",
"                                                  M P ^ %XXX+XOX+XOXOXOXOXOXOXOXOXOXOXOXOXOXOXOXOXOXOXOX&X%XL M O                                               ",
"                                                    O J ^ %X$X&X+XOXOXOXOXOXOXOXOXOXOXOXOXOXOXOXOXOX+X&X%XL M                                                   ",
"                                                      # b J %X%X$X+XOXOXOXOXOXOXOXOXOXOXOXOXOXOX&X+X$X%XJ b #                                                   ",
"                                                          O M J L :XXX&X&X&X&X&X&X&X&X&X&X&X&X$X%XL P M O                                                       ",
"                                                              O b M J P L L :X%X%X%X%X%X%X^ L J J M O                                                           ",
"                                                                        O O O O b n n n O O O                                                                   ",
"                                                                                                                                                                ",
"                                                                                                                                                                "
};
