/* XPM */
static char *_b6d740562e14ad8e3eeb737b5306cc8xESHsFV7hc2hwh7q[] = {
/* columns rows colors chars-per-pixel */
"83 83 256 2 ",
"   c None",
".  c #3C0C17",
"X  c #350C08",
"o  c #29173A",
"O  c #31132D",
"+  c #3E2423",
"@  c #450B1C",
"#  c #47161C",
"$  c #5A1A14",
"%  c #68181A",
"&  c #542A16",
"*  c #662315",
"=  c #6E3211",
"-  c #491627",
";  c #5C1C24",
":  c #5D152C",
">  c #5B1B2C",
",  c #551726",
"<  c #5C1C33",
"1  c #5C1B3C",
"2  c #591638",
"3  c #4B132B",
"4  c #631B2B",
"5  c #67172A",
"6  c #75182C",
"7  c #651B33",
"8  c #691636",
"9  c #751635",
"0  c #6C0F34",
"q  c #5B2427",
"w  c #5C2637",
"e  c #502C2D",
"r  c #64222C",
"t  c #69282A",
"y  c #76262B",
"u  c #683629",
"i  c #763B29",
"p  c #662637",
"a  c #762835",
"s  c #6A3737",
"d  c #783837",
"f  c #7A4819",
"g  c #704D1A",
"h  c #534F33",
"j  c #784328",
"k  c #7B4336",
"l  c #6C4C2B",
"z  c #6B6532",
"x  c #331F47",
"c  c #362247",
"v  c #3C2D4C",
"b  c #581A46",
"n  c #4C1C49",
"m  c #651945",
"M  c #701A4A",
"N  c #463955",
"B  c #502D4C",
"V  c #682646",
"C  c #732849",
"Z  c #763947",
"A  c #762857",
"S  c #7A3A57",
"D  c #6A344C",
"F  c #5A3978",
"G  c #4D3167",
"H  c #672D6C",
"J  c #65336D",
"K  c #633175",
"L  c #71346D",
"P  c #4C4458",
"I  c #574A5E",
"U  c #54524B",
"Y  c #7C4455",
"T  c #714E4E",
"R  c #726648",
"E  c #554C63",
"W  c #5B5365",
"Q  c #5A5467",
"!  c #5D427D",
"~  c #5D5170",
"^  c #784666",
"/  c #61576C",
"(  c #655A74",
")  c #6F4D6A",
"_  c #6D6379",
"`  c #72677D",
"'  c #736366",
"]  c #59654C",
"[  c #811932",
"{  c #843A3B",
"}  c #8D382A",
"|  c #B03926",
" . c #8D381C",
".. c #C7381B",
"X. c #E13D17",
"o. c #895919",
"O. c #895113",
"+. c #966919",
"@. c #906A18",
"#. c #B47818",
"$. c #A77613",
"%. c #884929",
"&. c #955925",
"*. c #844439",
"=. c #91542F",
"-. c #AE4E2E",
";. c #956826",
":. c #986B36",
">. c #936F2E",
",. c #A87725",
"<. c #AA7A3A",
"1. c #AF7030",
"2. c #A5591F",
"3. c #CB462A",
"4. c #C9652D",
"5. c #D0541E",
"6. c #863B43",
"7. c #813C55",
"8. c #822E56",
"9. c #873867",
"0. c #854648",
"q. c #954948",
"w. c #864657",
"e. c #91554F",
"r. c #A85551",
"t. c #946A49",
"y. c #987749",
"u. c #976459",
"i. c #977759",
"p. c #896B53",
"a. c #A57B45",
"s. c #AB744F",
"d. c #884866",
"f. c #944C69",
"g. c #955569",
"h. c #8A4A74",
"j. c #954C76",
"k. c #885778",
"l. c #975478",
"z. c #89586A",
"x. c #977968",
"c. c #8B7676",
"v. c #977A78",
"b. c #8C6D6C",
"n. c #A46E6B",
"m. c #A15779",
"M. c #C56A55",
"N. c #B78919",
"B. c #B48915",
"V. c #B78628",
"C. c #BC9529",
"Z. c #B78536",
"A. c #B08D33",
"S. c #BAA02F",
"D. c #C6881A",
"F. c #CA9A17",
"G. c #DB931C",
"H. c #D09212",
"J. c #E79917",
"K. c #F09C0F",
"L. c #D5A713",
"P. c #E8B50C",
"I. c #E8B615",
"U. c #EBB311",
"Y. c #C78927",
"T. c #C59928",
"R. c #C78835",
"E. c #D0962E",
"W. c #C6A429",
"Q. c #D7A926",
"!. c #CAA736",
"~. c #D7B130",
"^. c #E4B324",
"/. c #E6C839",
"(. c #EBCF2E",
"). c #DFC238",
"_. c #9C834C",
"`. c #A8864A",
"'. c #AF8950",
"]. c #9A816A",
"[. c #968179",
"{. c #AA856D",
"}. c #CDA845",
"|. c #C59064",
" X c #E3C340",
".X c #683D8A",
"XX c #713B8C",
"oX c #6D3E95",
"OX c #6D3D9B",
"+X c #673F90",
"@X c #713C96",
"#X c #5D3A85",
"$X c #6A418B",
"%X c #654287",
"&X c #684193",
"*X c #714094",
"=X c #766B83",
"-X c #7E738B",
";X c #7D7391",
":X c #9A5485",
">X c #965488",
",X c #A55988",
"<X c #AA5D95",
"1X c #AF5A97",
"2X c #866985",
"3X c #8A7688",
"4X c #967987",
"5X c #857B94",
"6X c #8A7D9B",
"7X c #877A95",
"8X c #957C96",
"9X c #9B618F",
"0X c #A9648C",
"qX c #AB6294",
"wX c #AD649C",
"eX c #A5639A",
"rX c #B3649D",
"tX c #B46598",
"yX c #A17D96",
"uX c #987EA4",
"iX c #8B78A0",
"pX c #AD63A4",
"aX c #B565A4",
"sX c #B965A3",
"dX c #B665AB",
"fX c #B965AB",
"gX c #B569A5",
"hX c #B864B1",
"jX c #AA5EA2",
"kX c #968488",
"lX c #8D829C",
"zX c #8B8498",
"xX c #93849C",
"cX c #998598",
"vX c #8E838A",
"bX c #A28E91",
"nX c #8E87A7",
"mX c #9486A4",
"MX c #9B86A4",
"NX c #9589A5",
"BX c #9989A6",
"VX c #9686AB",
"CX c #9986AC",
"ZX c #9589AB",
"AX c #9888AC",
"SX c #9A86B1",
"DX c #9589B1",
"FX c #9988B0",
"GX c #9686B1",
"HX c #9A91A7",
"JX c #B5AFB1",
"KX c #A49AAF",
"LX c #CFBAB2",
"PX c #C4999A",
"IX c #E8E5E6",
"UX c #D3CED3",
/* pixels */
"                                                                                                                                                                      ",
"                                                                                                                                @                                     ",
"                                                                                                                              @ 3 @ .                                 ",
"                                                                                                                            - , p s e                                 ",
"                                                                                                                          D D 1 4 i u #                               ",
"                                                                                                                        B k.k.C 5 6 5 , @                             ",
"                                                                                                                      O ^ 9X,X8.9 6 6 5 @                             ",
"                                                                                                                      B >XwX<X9.9 6 y r #                             ",
"                                                                                                                    e ^ qXgXrXj.M 5 t r #                             ",
"                                                                                                                    e d.,XrXsX:XA 0 8 4 ,                             ",
"                                                                                                                  e l 0.g.qXsX,XA M 9 0 :                             ",
"                                                                                                                + g l k 0.l.qX,X9.m 9 a ;                             ",
"                                                                                                                & >.A.>.j w.l.,X9.8 a { t X                           ",
"                                                                                                              & g !.}.S.g Z l.0Xh.V a { t X                           ",
"                                                                                                            e l o.~. XS.g Z l.qXl.C 8 y 4 .                           ",
"                                                                                                          + s u f T.C.;.i Y l.qX,XA 8 5 ; #                           ",
"                                                                                                          e T s j ;.&.j d d.:XrX,XS 7 p r -                           ",
"                                                                                                        # q Z w.0.0.*.d 7.:XwXgX<XL V Z s -                           ",
"                                                                                                    + e e r C ,Xl.d.d.f.,XrXdXhXjXh.p r r #                           ",
"                                                                                                  + e l s 7 M 1XwX<X<XqXrXgXfXhXpXh.p ; ; # @                         ",
"                                                                  P E E I I W W / Q ( ( / ( / / I B e q p 8 M 1XfXfXaXrXrXsXsXfXaXj.p ; t , .                         ",
"                                                          N P W Q ( _ =X=X2X3X7X7X7X6X6X7X5X5X5X2X) w ; r 8 m 1XfXsXrX,X,XqXtXsXrXj.p t d q .                         ",
"                                                    E ~ ( =X5X6X6XnXmXmXmXMXMXCXCXGXCXCXNXNXZXCXuXk.p t y 4 8 ,XrX,Xj.d.w.f.m.qXtXl.p t d ; . O                       ",
"                                        I W W _ -X6XmXVXCXCXCXCXZXNXNXNXmXmXCXCXGXGXFXCXCXZXAXCXuXk.Z 0.n.p p :Xj.Z t i %.i d f.qX:XV : 5 : 2 2 o                     ",
"                                  v P ( =X5XlXxXmXNXAXCXCXCXCXCXZXNXNXNXNXNXAXAXAXAXFXFXCXZXAXCXuXk.p u k ; 1 d.Z i f o.o.o.j 0.l.l.C 0 0 0 1 n B c                   ",
"                                P Q =X5XmXNXNXNXZXNXAXCXCXAXmXCXAXNXNXNXNXNXAXGXZXVXCXCXGXAXCXCXuX2Xw q t ; < Y u f o.A.C.+.f d g.j.C 5 5 5 2 n G N c                 ",
"                            E ` 6XmXNXNXNXAXAXAXAXAXCXCXmXNXZXDXGXGXDXmXmXmXCXFXFXCXCXCXmXNXmXCXMX2Xw q y 4 : Z i @.!././.S.@.k w.f.V r *.6.w n F %XF c               ",
"                        P ( -XmXNXNXNXAXAXAXFXAXAXCXSXSXCXNXNXnXZXAXMX4X3X4X8XMXCXAXmXZXNXNXMXCXMX2Xp t r.a > Z i +.!././.S.o.j w.h.V 4 a a 7 b F $XF N o             ",
"                      P =XxXNXZXAXNXCXDXDXFXFXFXFXFXSXSXCXVXNXcXkXkXv.p.R p.c.cXAXNXZXDXZXNXCXCXMX2Xp t r.a : Y u o.,.!.!.A.g s w.j.A 0 9 9 9 m K $X%XF v             ",
"                    P =XlXNXNXNXNXAXFXDXFXFXFXFXFXFXCXSXFXmXcXx.i.y.:.a.|.s.x.cXMXNXnXDXZXNXmXmX8Xz.s t y 5 < d.S %.f f g = u s l.l.A 0 6 [ 9 m K $X$X%XG o           ",
"                P / =XlXNXNXNXAXAXAXCXFXFXAXAXAXAXAXAXCXFXMXkX'.'.R.#.Y.E.<.u.v.3X8XxXmXNXNXNX8Xb.T t 5 6 8 7 h.l.7.d i i u s z.0X:XC 4 { { y 2 H XXXX.XF N o         ",
"              I -XxXmXZXZXNXAXAXAXFXGXFXAXAXAXAXZXNXZXNXMXcXn.<.Y.J.H.G.G.,.:.t.t.t.i.x.v.kXcX4Xz.=.* % 6.7 8 :XqX:Xd.7.w.l.,XqXaX:XV 5 { q.y 2 H XX@XoX%XF x         ",
"            P ` zXBXNXZXZXCXAXAXAXFXAXAXAXAXAXAXZXZXAXmXcX4Xs.,.D.J.J.G.Y.Y.Z.R.R.R.1.:.t.b.4Xv.u.-. .y q.a 8 :XwXwX<X,X<XrXaXgXgX:XA 0 6 y 8 b K XXoXoX$XF N         ",
"          N ` 6XmXBXMXZXAXAXCXCXDXAXAXAXCXCXAXAXZXCXAXNX8Xv.'.R.G.J.J.D.#.#.#.V.Y.E.R.1.<.s.x.x.u.-. .y a 8 8 ,XrXaXsXsXsXdXdXdXdX>XA 0 0 6 0 b K @XoXOX&X.XG x       ",
"        N ` 6XmXZXZXCXZXZXZXCXFXDXZXAXCXCXAXCXCXCXCXGXAX8Xv.'.R.G.G.G.Y.V.Z.Z.,.,.Z.R.V.R.R.a.t.e.%. .y 9 0 M ,XsXdXdXdXfXdXfXfXfX>XV : y y 4 b K @XOXOXoX+XF x       ",
"        Q 7XmXAXAXAXZXZXZXAXCXDXZXZXBXMXMXMXCXCXAXAXAXZXcX4Xx.a.Z.Z.Z.a.a.a.a.t.>.;.+.$.#.Y.,.;.:.&.* % a 8 m ,XsXdXdXdXgXdXfXfXfX:Xm : { 6.r 2 K *XOXOXOXoX#Xv       ",
"        ` mXZXAXCXAXAXCXCXCXFXCXZXmX8X4X4X8X8X8XNXNXNXNXxXcXkX].x.x.x.x.x.x.x.i.:.;.+.$.$.#.N.,.Z.,.= * 6.p 1 ,XrXsXaXwXeXqXwXaXgX:Xm : a { 4 2 K *XOXOXOXoX.XG       ",
"      W 5XmXAXAXCXCXCXCXFXFXCXMXmX4Xg.q.q.e.w.z.4XcXxXcXcXcX4Xv.x.x.x.x.v.x.i.:.A.C.W.W.B.B.N.N.!.V.= $ t q < m.tX,Xl.f.d.d.f.,XqX:XV 8 6 y 5 b J &XOXOXOXOX$XG o     ",
"      =XlXNXAXAXCXCXCXFXFXCXxX4Xc.u.-.| | | -.*.u.v.vXkXkX[.]._._.`.`.y.y.a.Z.T.Q.^.^.Q.B.$.B.F.Q.V.= $ ; ; > l.,Xw.Z d *.*.*.w.l.h.V 5 6 y 5 1 H @XOXOXOXOX&XF o     ",
"      5XNXAXAXAXCXCXCXCXCXMX4Xg.q.| | ....| -.%.=.t.i.p.i.'.'.}.}.}.}.!.!.E.Q.I.U.P.P.F.$.#.F.^.^.V.= $ t t , j.f.d i f o.o.o.%.0.Y p 4 { 6.y 2 H @XOXOXOXOX&XF o     ",
"    v 7XNXAXAXAXCXCXAXZXMXcXn.r.3.......3.-.-.%.=.=.:.:.Z.!.!.}.}.}.~.~.^.^.I.U.P.U.P.L.H.G.I.I.I.D.= $ s d - d.Y i = +.T.T.B.o.j Z q q q.r.a 2 H XXOXOXOXOX&X! o     ",
"    N 6XNXAXAXAXAXAXAXNXBXyXn.-.3.X...M.M.|.{.:.&.&.2.;.V.!.S.'.`.`.A.T.T.Q.I.P.P.P.I.L.L.J.P.P.I.F.O.* s d , ^ Y i = N.(.(.W.o.j s , q { q.a b H XXoXOXOXOX&X! o     ",
"    P 6XNXAXAXAXAXAXZXZXBXcXn.r.3.X.3.|.LXLXLX{.:.2.2.&.:.`.'.].].].].i.a.A.W.Q.F.F.F.F.F.H.L.P.P.F.O.* 7 8 7 d.w.i f C.(.(.Q.o.u w > 5 6 [ 8 b J $X&XOXOXOX&X! o     ",
"    P 6XAXAXAXAXAXAXDXZXNXMX4Xr.-.-.r.PXJXKXLX{.1.2.2.%.p.v.kXcXcXMXcX4Xv.i._.A.C.V.B.B.B.F.P.P.I.F.O.* 8 8 8 d.f.i O.#.~.^.C.f u w < 5 6 [ 9 m J $X&XOXOXOX&X! x     ",
"    P 6XAXAXAXAXCXAXDXDXFXCXyX0Xu.q.u.bXvX' b.s.4.5.2.=.v.cXxXNXmXCXCXCXMXvXb.y.A.C.C.N.B.L.I.I.I.N.f $ 4 p : h.l.0.%.o.,.,.@.= u D w 4 y } 6 1 H XXOXOXOXOX&X! c     ",
"    P 6XNXAXAXAXCXCXCXFXFXSXCXyX4Xb.c.bXkX' T :.4.5.-.e.v.cXNXNXmXCXCXCXCXmXvXc.y.V.T.F.F.L.I.P.L.$.= $ 4 t , h.0Xg.q.*.%.j i d Y Y w ; *.*.t 2 H XXOXOXOXOX&X! x     ",
"    v 5XNXAXCXAXAXCXAXCXFXFXCXAXcXkXKXLXbX' R s.4.4.4.q.z.3XNXNXCXAXCXCXmXNXNXcXi.;.N.Q.I.I.U.P.F.o.* % 5 5 : >XwXtX,Xf.S Z w.j.,Xl.V > a d r 1 H XX@XOXOXOX&XF o     ",
"      -XmXNXCXAXAXZXZXZXAXFXAXZXxXcXJXIXJXkXbXs.1.4.1.e.z.3XmXAXAXAXCXmXmXNXBX4Xx.=.;.T.Q.^.I.I.F.+.= % 0 5 7 >XpXsXsX<Xj.j.:XrXsX:XV : 5 5 : b H XX@XOXOXOX&XF o     ",
"      ( 6XmXZXAXAXZXZXZXAXFXCXNXnXxXJXIXIXUXLX[.u.u.u.b.4X8XmXDXDXCXCXmXZXNXcXc.x.t.t.a.`.!.Q.^.Q.V.f * p r > l.wXfXfXdXgXgXaXsXgX>XV : t t 4 b H XXoXOXOXOX+XG o     ",
"      N _ lXNXNXAXAXZXZXCXCXCXAXVXnXKXUXIXUXJX3Xc.3X8XxXMXCXCXFXFXCXCXAXAXxXc.x.i.i.x.v.x.y.A.A.T.Z.o.& s s , j.wXfXhXdXdXdXdXaXgX>X1 ; *.q.t 1 H XXoXOXOXoX.XG       ",
"        I 5XmXNXAXCXZXAXAXAXCXAXAXmXlXmXKXHXzX6XcXBXNXCXCXCXCXCXCXCXNXNXZXcXp._.'.x.v.v.v.x.i.i.y.t.s q 4 < > j.wXfXfXdXfXfXsXsXgX:X1 ; q.e.a 1 H XX@XOXOX+X#Xv       ",
"        v _ 6XNXNXAXZXZXAXAXCXAXAXmX6X6X6X6X6XmXBXZXAXAXAXmXCXCXCXCXNXZXCX3XR _._.x.x.i.x.x.x.x.b.' D w 5 : < l.wXdXdXdXaXsXsXgXgX:XV 4 a d 7 1 H XX@XOXOX+XF x       ",
"          v ` 6XNXAXAXAXAXAXCXmXAXAXAXAXmXmXNXAXZXZXNXNXNXNXAXAXAXGXCXmXxX' h z p.i.t.:.<.:.:.i.[.3XI e t 4 7 :XrXsXrX,X,X,XtXrXgX:XA 8 9 9 8 m H XXOXOXoX.XG o       ",
"            P ` lXNXAXAXAXAXAXAXCXCXAXmXCXmXAXAXCXZXBXBXZXmXAXAXDXGXCXmX5XW U ] ] R >.,.Y.D.V.<.i.c.U e 0.d : :XwX:Xd.S Z 7.d.,XaX:XA 8 6 9 0 b H XXOX&X$XF c         ",
"              N _ 6XmXAXAXAXAXAXCXAXAXCXAXAXAXCXCXZXZXZXCXFXFXCXFXGXAXmX=XQ ] ] ] h g $.G.J.H.#.>.e.u ; a r : :X:XZ d i i d 6.d.,X:XC a q.q.t 2 J $X&X$XF G o         ",
"                P ( 5XVXAXAXNXNXAXAXAXAXAXAXAXCXAXCXCXCXSXSXSXCXCXFXmXmX;XW U h h h o.#.J.J.J.Y.Z.=.* % 5 7 1 >Xd.u i &.;.o.j { g.l.V r d d q 2 J $X$X%XG o           ",
"                    Q -XmXNXNXZXNXNXNXAXAXAXCXAXFXFXFXFXGXCXCXCXCXAXZXnXnX_ T l g z ,.D.J.K.J.E.<.l & $ ; > w k.D i O.Y.~.V.o.%.0.d.V ; 5 5 4 b K *X.XF c             ",
"                      N Q _ 5XlXmXNXZXZXNXmXCXAXCXCXCXAXNXZXNXZXZXZXnXZXNX4Xp.y.>.+.#.H.J.G.#.@.l h & q Z p w k.Z %.O.Q./.W.$.%.*.w.V : 5 6 8 b F .XF v               ",
"                        v P / ` 5XxXmXNXZXZXAXAXCXCXAXNXNXZXZXZXZXZXZXNXBXcXx.i.<.,.D.G.G.Y.:.:.T h - ; C p V l.7.%.O.N.~.V.+.%.*.w.p 4 a a : n G F N                 ",
"                              P W _ 3XlXNXNXNXAXAXAXZXNXmXVXZXZXZXZXNXMXcXcX4Xb.t.<.Y.Y.1.y.x.v.3X) V 7 8 < V :Xf.%.O.o.o.O.f %.0.w.p t *.*.q 3 B v                   ",
"                                    P I / ( ` -X7X6XnXmXCXFXFXCXmXCXCXMXMXBXMXcXv.x.i.x.x.v.cXcX8Xk.V > 4 < V <X,X0.k j j j d 6.f.d.p ; y y , O o                     ",
"                                            P E E W ( ` ;XiXuXuXmXMXmXmXmXmXNXmXxXzXvXzXcXxXmXmX8Xk.w t Y p A rXaX,Xf.w.Y 0.w.f.,Xf.7 , 5 5 , .                       ",
"                                                      E E / ( =X2X7X7X6X6X6X6X5XzXzXzXlXzXlXzXzX7X) w d u.p A aXfXrXqXl.f.j.m.qXqXh.< $ ; , @                         ",
"                                                              P P E E E E E E W W Q Q Q Q Q Q Q I B q t k p d.dXdXaXrXrXtXtXtXrXqXd.w t d q .                         ",
"                                                                                                  3 : 5 6 p l.pXpX,X,XqXaXsXsXgX<X9.< p s , .                         ",
"                                                                                                  - 7 9 9 C 0XqXh.D D S j.<XsXsX<XL 7 7 7 , .                         ",
"                                                                                                    3 : 8 7.0Xw.Z u u u Z f.,XrX,XA 8 8 8 > -                         ",
"                                                                                                      @ w d.g.u j f ;.o.j d d.<X:XA 7 9 4 ,                           ",
"                                                                                                        e ^ z.q j ,.!.S.o.i Z ,X:XV < a r #                           ",
"                                                                                                          D z.q f T./.).B.f d l.h.b w s q #                           ",
"                                                                                                          B ) s f C././.V.O.d f.d.b > r ; .                           ",
"                                                                                                            B T l +.T.W.+.f d d.S 1 : 7 , .                           ",
"                                                                                                            c T s f o.@.f i d d.S < 4 7 ,                             ",
"                                                                                                              B T k j i i d Y z.D ; t t ,                             ",
"                                                                                                                I Y Y Z S d.l.k.V : 5 ; #                             ",
"                                                                                                                B >XeXeXaXgXwXh.w 5 9 5 @                             ",
"                                                                                                                  ) 9XpXhXdXpX^ < 4 r , @                             ",
"                                                                                                                  n L 9XdXfXjXS , q u &                               ",
"                                                                                                                    n ) eXgX<XV , q q #                               ",
"                                                                                                                      B k.9Xh.b 2 < -                                 ",
"                                                                                                                        B D B 3 3 3 .                                 ",
"                                                                                                                                                                      ",
"                                                                                                                                                                      "
};
