/* XPM */
static char *_295a3f792104ff3fbb666cdf27aa7694Du65WKBI1yBNsnP[] = {
/* columns rows colors chars-per-pixel */
"83 83 256 2 ",
"   c None",
".  c #3C0C17",
"X  c #350C08",
"o  c #29173A",
"O  c #31132D",
"+  c #3E2423",
"@  c #450B1C",
"#  c #47161C",
"$  c #5A1A14",
"%  c #68181A",
"&  c #542A16",
"*  c #662315",
"=  c #6E3211",
"-  c #491627",
";  c #5C1C24",
":  c #5D152C",
">  c #5B1B2C",
",  c #551726",
"<  c #5C1C33",
"1  c #5C1B3C",
"2  c #591638",
"3  c #4B132B",
"4  c #631B2B",
"5  c #67172A",
"6  c #75182C",
"7  c #651B33",
"8  c #691636",
"9  c #751635",
"0  c #6C0F34",
"q  c #5B2427",
"w  c #5C2637",
"e  c #502C2D",
"r  c #64222C",
"t  c #69282A",
"y  c #76262B",
"u  c #683629",
"i  c #763B29",
"p  c #662637",
"a  c #762835",
"s  c #6A3737",
"d  c #783837",
"f  c #7A4819",
"g  c #704D1A",
"h  c #534F33",
"j  c #784328",
"k  c #7B4336",
"l  c #6C4C2B",
"z  c #6B6532",
"x  c #331F47",
"c  c #362247",
"v  c #3C2D4C",
"b  c #581A46",
"n  c #4C1C49",
"m  c #651945",
"M  c #701A4A",
"N  c #463955",
"B  c #502D4C",
"V  c #682646",
"C  c #732849",
"Z  c #763947",
"A  c #762857",
"S  c #7A3A57",
"D  c #6A344C",
"F  c #5A3978",
"G  c #4D3167",
"H  c #672D6C",
"J  c #65336D",
"K  c #633175",
"L  c #71346D",
"P  c #4C4458",
"I  c #574A5E",
"U  c #54524B",
"Y  c #7C4455",
"T  c #714E4E",
"R  c #726648",
"E  c #554C63",
"W  c #5B5365",
"Q  c #5A5467",
"!  c #5D427D",
"~  c #5D5170",
"^  c #784666",
"/  c #61576C",
"(  c #655A74",
")  c #6F4D6A",
"_  c #6D6379",
"`  c #72677D",
"'  c #736366",
"]  c #59654C",
"[  c #811932",
"{  c #843A3B",
"}  c #8D382A",
"|  c #B03926",
" . c #8D381C",
".. c #C7381B",
"X. c #E13D17",
"o. c #895919",
"O. c #895113",
"+. c #966919",
"@. c #906A18",
"#. c #B47818",
"$. c #A77613",
"%. c #884929",
"&. c #955925",
"*. c #844439",
"=. c #91542F",
"-. c #AE4E2E",
";. c #956826",
":. c #986B36",
">. c #936F2E",
",. c #A87725",
"<. c #AA7A3A",
"1. c #AF7030",
"2. c #A5591F",
"3. c #CB462A",
"4. c #C9652D",
"5. c #D0541E",
"6. c #863B43",
"7. c #813C55",
"8. c #822E56",
"9. c #873867",
"0. c #854648",
"q. c #954948",
"w. c #864657",
"e. c #91554F",
"r. c #A85551",
"t. c #946A49",
"y. c #987749",
"u. c #976459",
"i. c #977759",
"p. c #896B53",
"a. c #A57B45",
"s. c #AB744F",
"d. c #884866",
"f. c #944C69",
"g. c #955569",
"h. c #8A4A74",
"j. c #954C76",
"k. c #885778",
"l. c #975478",
"z. c #89586A",
"x. c #977968",
"c. c #8B7676",
"v. c #977A78",
"b. c #8C6D6C",
"n. c #A46E6B",
"m. c #A15779",
"M. c #C56A55",
"N. c #B78919",
"B. c #B48915",
"V. c #B78628",
"C. c #BC9529",
"Z. c #B78536",
"A. c #B08D33",
"S. c #BAA02F",
"D. c #C6881A",
"F. c #CA9A17",
"G. c #DB931C",
"H. c #D09212",
"J. c #E79917",
"K. c #F09C0F",
"L. c #D5A713",
"P. c #E8B50C",
"I. c #E8B615",
"U. c #EBB311",
"Y. c #C78927",
"T. c #C59928",
"R. c #C78835",
"E. c #D0962E",
"W. c #C6A429",
"Q. c #D7A926",
"!. c #CAA736",
"~. c #D7B130",
"^. c #E4B324",
"/. c #E6C839",
"(. c #EBCF2E",
"). c #DFC238",
"_. c #9C834C",
"`. c #A8864A",
"'. c #AF8950",
"]. c #9A816A",
"[. c #968179",
"{. c #AA856D",
"}. c #CDA845",
"|. c #C59064",
" X c #E3C340",
".X c #683D8A",
"XX c #713B8C",
"oX c #6D3E95",
"OX c #6D3D9B",
"+X c #673F90",
"@X c #713C96",
"#X c #5D3A85",
"$X c #6A418B",
"%X c #654287",
"&X c #684193",
"*X c #714094",
"=X c #766B83",
"-X c #7E738B",
";X c #7D7391",
":X c #9A5485",
">X c #965488",
",X c #A55988",
"<X c #AA5D95",
"1X c #AF5A97",
"2X c #866985",
"3X c #8A7688",
"4X c #967987",
"5X c #857B94",
"6X c #8A7D9B",
"7X c #877A95",
"8X c #957C96",
"9X c #9B618F",
"0X c #A9648C",
"qX c #AB6294",
"wX c #AD649C",
"eX c #A5639A",
"rX c #B3649D",
"tX c #B46598",
"yX c #A17D96",
"uX c #987EA4",
"iX c #8B78A0",
"pX c #AD63A4",
"aX c #B565A4",
"sX c #B965A3",
"dX c #B665AB",
"fX c #B965AB",
"gX c #B569A5",
"hX c #B864B1",
"jX c #AA5EA2",
"kX c #968488",
"lX c #8D829C",
"zX c #8B8498",
"xX c #93849C",
"cX c #998598",
"vX c #8E838A",
"bX c #A28E91",
"nX c #8E87A7",
"mX c #9486A4",
"MX c #9B86A4",
"NX c #9589A5",
"BX c #9989A6",
"VX c #9686AB",
"CX c #9986AC",
"ZX c #9589AB",
"AX c #9888AC",
"SX c #9A86B1",
"DX c #9589B1",
"FX c #9988B0",
"GX c #9686B1",
"HX c #9A91A7",
"JX c #B5AFB1",
"KX c #A49AAF",
"LX c #CFBAB2",
"PX c #C4999A",
"IX c #E8E5E6",
"UX c #D3CED3",
/* pixels */
"                                                                                                                                                                      ",
"                                    @                                                                                                                                 ",
"                                . @ 3 @                                                                                                                               ",
"                                e s p , -                                                                                                                             ",
"                              # u i 4 < D D                                                                                                                           ",
"                            @ , t y 5 C k.k.B                                                                                                                         ",
"                            @ 5 6 6 9 8.,X9X^ O                                                                                                                       ",
"                            # r y 6 9 9.<XpX>XB                                                                                                                       ",
"                            # r t 5 M 9.aXsX<Xd.e                                                                                                                     ",
"                            , 4 8 8 M :XaXsX,Xd.e                                                                                                                     ",
"                            : 0 9 M A :XrX<Xg.0.l e                                                                                                                   ",
"                            ; a 9 m 9.,XqXl.0.%.l g +                                                                                                                 ",
"                          X t { a 8 9.,Xm.w.j >.A.>.&                                                                                                                 ",
"                          X t { a p h.0Xl.T g A.~.!.g &                                                                                                               ",
"                          . 4 a 8 C j.qXl.Z g S. X~.o.l e                                                                                                             ",
"                          # ; 5 8 A ,XwXl.Y j ;.C.T.f u k +                                                                                                           ",
"                          # r p p S ,XrX,Xd.d j &.;.j s T e                                                                                                           ",
"                          - s Z V L <XgXpX:X7.d *.0.Y w.Z q #                                                                                                         ",
"                          # r r p h.jXhXdXrX,Xf.d.d.l.,XC q e e +                                                                                                     ",
"                        @ # ; ; p h.pXhXfXgXrXqX<X<XwX1XM 7 s s e +                                                                                                   ",
"                        . , t ; p j.aXfXsXsXrXrXaXfXfX1XM 8 r q e B I / / / / ( / Q / W W I I E E P                                                                   ",
"                        . q d t p j.rXsXtXqX,X<XrXsXfX1Xm 8 5 q w ) 2X7X5X5X7X7X7X7X7X7X3X2X=X=X_ ( Q W P N                                                           ",
"                      O . ; d t p l.tXqXm.f.w.d.j.,XrX<X8 4 y t p k.uXMXNXNXNXCXCXGXCXCXMXMXmXmXmXnX6X7X5X=X( ~ E                                                     ",
"                    o 3 3 : 5 : V :XqXf.d i %.i t Z j.l.p p n.0.Z k.uXCXAXZXNXSXSXGXGXCXCXNXZXZXZXZXZXCXCXCXVXVXmX7X-X_ W W I                                         ",
"                  c B n 8 0 0 0 C l.l.0.j o.o.o.g i Z d.1 > k u p k.uXAXAXAXVXFXFXAXVXVXVXNXNXNXNXNXZXCXCXCXCXCXAXNXmXxXlX5X=X/ P v                                   ",
"                c N G b 2 5 5 5 C j.g.d f +.C.C.@.f u Y < > t q p 2XuXNXVXAXCXCXVXNXVXVXAXZXNXNXNXZXAXVXVXCXVXCXAXZXZXZXZXNXmX5X=XQ P                                 ",
"              c F %XF n r { *.r V f.w.*.@.W././.!.@.i Z : 4 y q w 2XMXCXCXBXNXVXVXVXFXFXCXmXmXNXDXDXGXDXZXZXNXAXCXAXAXAXAXZXZXZXNXmX6X` E                             ",
"            o N F $XF b 7 a a 5 V h.w.j o.S././.!.+.i Z > a r.t p 2XMXCXMXNXZXZXNXVXCXCX8X4X3X4XMXAXZXnXNXZXCXSXSXCXAXAXAXAXAXAXAXZXZXmX-X/ P                         ",
"            v ! %X$XK m 9 9 9 0 A j.d.s g A.!.!.,.o.u Y : a r.t w 2XCXCXVXZXZXDXZXZXCXcXc.p.e.p.v.kXkXcXNXVXVXSXSXFXFXFXFXFXAXAXVXAXAXZXNXxX=XP                       ",
"          o G %X$X$XK m 9 [ 6 0 A l.k.s & = g f f %.S d.< 4 y t s z.8XmXNXZXZXDXNXNXMXcXx.s.|.a.:.y.i.].cXmXFXSXFXFXFXFXFXFXFXDXFXAXAXZXZXNXlX=XP                     ",
"        o N F $XXXXXH 2 y { { 5 C :X0Xf.s u i i d 7.l.h.8 7 6 5 t T b.8XmXZXZXmXzX3X3Xv.u.<.E.Y.#.R.'.'.kXMXFXVXAXAXAXAXAXAXFXFXVXAXAXAXZXZXZXlX=X/ P                 ",
"        x F %XoX@XXXH 2 y q.{ 4 V :XwXwX,Xl.w.7.d.:XqXl.8 8 6.% * =.z.4XcXkXv.x.i.t.t.t.:.,.E.G.H.J.Y.<.n.8XMXZXZXZXZXAXAXAXAXFXVXFXAXAXAXZXZXZXmXxX-XI               ",
"        N F $XoXoX@XK b 5 y 9 0 A :XgXgXgXrX<X,XqXwXwX:X8 a q.y  .-.u.v.4Xb.t.:.<.R.R.Z.Z.Y.Y.G.J.J.D.,.i.4XxXNXAXZXZXZXAXAXAXAXAXFXAXAXAXVXZXZXNXBXlX` P             ",
"      x G .X&XoXoX@XK b 0 0 0 0 A >XdXdXdXdXsXsXsXgXrX,X8 8 a y  .-.u.x.x.s.<.1.R.E.Y.V.#.#.#.D.J.J.G.R.'.v.8XZXZXCXAXAXAXCXCXAXAXAXDXCXVXAXAXZXMXBXNX7X` N           ",
"      x F +XoXOX@X@XK b 4 y y : V >XfXfXfXdXfXsXaXaXrX,XM 0 9 y  .%.t.t.a.R.R.V.Z.Z.,.,.Z.Z.Y.Y.G.G.G.R.'.v.8XAXVXCXCXCXCXCXCXCXAXZXDXFXVXZXZXZXCXZXZXmX6X` N         ",
"      v #XoXOXOXOX*XK 2 r 6.6.: m :XfXfXfXdXgXdXdXdXsX,Xm 8 a % * &.:.;.,.Y.#.$.+.;.>.t.a.a.a.a.Z.Z.Z.a.x.4XcXZXAXAXAXCXCXMXMXMXMXZXDXDXFXAXZXZXZXAXAXAXNX7XQ         ",
"      G .XoXOXOXOX&XK 2 4 { a 5 m :XaXaXwXwXeXwXaXsXrX,X1 p 6.* = ,.Z.,.N.#.$.$.+.;.:.i.x.x.x.x.x.x.x.].kXcXxXNXNXNXNX8X8X8X4X4X8XmXZXVXFXCXCXCXAXAXCXAXZXmX`         ",
"    o G &XOXOXOXOX&XJ b 5 y 6 7 V :XqX,Xf.d.d.f.l.,XtX,X< q t $ = V.!.N.N.B.N.W.W.C.A.:.i.x.v.x.x.x.x.v.kXcXcXcXxXcX4Xz.w.e.q.q.g.4XxXmXCXVXGXCXCXCXCXAXAXmX5XW       ",
"    o F &XOXOXOXOXoXH 1 5 y 6 5 V h.l.w.*.*.{ d 6.w.,Xl.> ; ; $ = V.Q.F.B.$.B.Q.^.^.Q.T.Z.a.y.y.a.`._._.x.v.kXkXkXv.u.*.-.| | | -.u.v.4XxXVXFXFXCXCXCXAXAXZXlX=X      ",
"    o F &XOXOXOX@X@XH 1 y 6.{ > p Y 0.%.o.o.o.O.i d f.j., t t $ = V.^.^.F.$.$.F.I.U.U.I.Q.E.!.!.}.}.}.}.'.'.i.p.i.t.=.%.-.| ....| | q.g.4XMXCXCXCXCXCXAXAXAXNX5X      ",
"    o ! &XOXOXOX@XXXH 2 a r.q.q w Z j o.B.C.T.+.= i Y d.- d d $ = D.I.I.I.G.H.L.P.P.P.P.I.^.^.~.~.}.}.}.!.!.A.:.y.=.=.%.-.-.3.......3.r.n.cXMXCXAXCXCXAXAXAXZX7Xv     ",
"    o ! &XOXOXOXoXXXH b a q.{ q > s j o.W.(.(.N.= i Y ^ , d s * O.F.I.P.L.J.L.L.I.P.P.P.I.Q.T.T.Z.`.`.'.S.!.V.;.1.2.&.:.{.|.M.4.3.X.3.-.n.yXMXNXZXAXAXAXAXAXZX7XN     ",
"    o ! &XOXOXOX&X$XH m 9 [ 6 5 > w u o.Q.(.(.C.f i w.d.8 8 8 * O.F.P.P.L.H.F.F.F.F.F.Q.W.A.a.i.].].].].'.`.:.&.2.2.:.{.LXLXLX|.3.X.3.r.n.cXBXZXZXAXAXAXAXAXNX6XP     ",
"    c ! &XOXOXOX&X$XJ m 9 [ 6 5 < w u f C.~.~.$.O.i f.d.8 8 8 * O.F.I.P.P.F.B.B.B.V.C.A._.i.v.4XcXcXcXcXkXv.p.%.2.2.1.{.LXKXJXPXr.-.-.r.yXMXCXAXDXAXAXAXAXAXZX6XP     ",
"    c ! &XOXOXOXOXXXH 1 6 } y 4 w D u = @.,.,.o.%.0.l.h.: r 4 $ f N.I.P.I.L.B.N.Y.C.A.y.b.4XMXCXCXCXZXZXxXcXv.q.2.5.4.s.b.' vXbXu.q.r.0XyXCXFXDXDXAXVXAXAXAXZXlXP     ",
"    x ! &XOXOXOXOXXXH 2 t *.*.q w Y Y d i j %.*.w.g.0Xh., t 4 $ = $.L.P.I.L.F.F.T.V.y.c.vXmXCXCXCXCXZXZXNXcXv.e.-.5.4.:.T ' kXbXc.b.4XyXCXSXFXFXVXCXCXAXAXAXZX6XP     ",
"    o F &XOXOXOX@XXXH 1 r d a > V l.,Xj.w.Z S f.,XtXwX>X: 5 5 % * o.F.P.U.I.I.Q.N.;.i.cXNXZXNXCXCXCXVXAXNX3Xz.=.4.4.4.s.R ' bXLXKXkXxXZXCXFXFXCXAXCXAXAXVXAXNX5Xv     ",
"    o F &XOXOXOX@XXXH b : 4 5 : V :XsXtX:Xj.l.<XsXsXpX>X7 5 0 % = +.F.I.I.I.Q.T.;.>.i.kXNXVXVXNXCXCXAXAXmX3Xz.e.1.4.1.s.bXkXJXIXJXcXxXZXAXFXCXZXZXZXAXAXNXZXNX-X      ",
"    o G .XOXOXOXoXXXH b 4 y t : V >XgXsXaXgXgXdXfXfXwXl.> r r * f V.Q.^.Q.!.`.a.t.t.x.c.cXNXZXVXCXCXDXDXCX8X4Xb.u.u.t.[.LXUXIXIXJXlXnXAXVXFXAXZXZXZXAXAXZXmX7X(       ",
"      G .XoXOXOXoXXXH 1 t q.*.; 1 >XgXaXdXdXdXdXhXfXwXl., s s & o.Z.T.A.A.y.x.v.x.i.i.x.c.xXAXAXVXVXFXFXCXCXMXxX8X3Xc.3XJXUXIXUXKXnXVXAXVXFXCXZXZXAXAXZXZXlX_ N       ",
"      v F &XOXOX@XXXH 1 a e.q.; 1 :XgXsXsXfXfXdXfXfXwXl.< r 4 q s t.y.i.i.x.v.v.v.x.'._.p.cXCXZXNXCXCXCXCXCXVXVXZXBXcX8XlXHXKXNXlXmXAXAXCXAXAXZXZXCXAXZXmX5XI         ",
"      x F +XOXOXoXXXH 1 7 d a 5 V :XsXsXsXsXaXdXfXdXwXl.7 : 5 < D ' b.x.x.x.x.i.x.x._._.R 3XCXNXNXCXCXCXVXNXAXAXAXZXBXmX6X7X6X7X6XNXAXAXVXAXAXAXZXAXZXNX6X_ v         ",
"      o G .XoXOXOXXXH m 8 9 6 8 A ,XgXrXtX,X,X<XwXsXwX:X7 4 t e I 3X[.i.:.:.<.:.t.i.p.z h ' lXNXVXVXAXAXAXZXZXNXZXZXAXAXAXNXVXAXAXAXAXNXVXAXAXAXAXZXNX6X` v           ",
"        c F $X&XOXXXH b 8 9 6 0 A ,XsX<Xd.7.Z S d.:XwX:X: d 0.e U ` i.<.V.D.Y.,.>.R ] ] U W 5XVXVXGXDXAXAXVXZXNXBXZXVXAXAXAXNXVXAXNXNXAXAXAXAXAXZXNXlX` P             ",
"        o G F &X&X$XJ 2 r q.q.p C :X,Xw.{ d i i d Z :X:X: r a * u e.>.#.H.J.G.$.g h ] ] ] Q =XmXAXGXFXCXFXFXCXZXZXZXCXCXAXAXAXVXAXAXVXAXAXAXAXAXmX6X_ N               ",
"          o G %X$X$XJ 2 q { d r V l.g.{ j o.;.&.i u d.>X2 7 5 % * =.Z.Y.J.K.J.#.o.h h h U W ;XmXNXFXCXCXSXSXSXCXCXCXAXCXAXAXAXAXAXAXAXZXZXAXAXVX5X( P                 ",
"            c F .X&XK b : 5 5 > V d.0.%.o.V.~.Y.O.j D k.w > ; ; & l <.E.J.K.J.D.,.z g l T _ nXnXZXAXVXCXCXCXFXFXFXFXFXAXCXAXAXAXZXZXZXZXZXNXmX-XQ                     ",
"              v F .XF b 8 5 5 : V Y *.%.,.T./.Q.o.%.Z k.w p Z q # h l @.N.G.J.H.#.+.>.y.b.4XNXNXnXZXZXZXNXZXZXVXCXCXCXAXCXNXZXZXZXNXmXlX5X_ Q N                       ",
"                N F G n : a a r p w.*.%.+.V.~.N.O.%.0.l.w p C > e h T R :.Y.G.G.D.,.<.i.x.cXBXNXZXZXZXZXZXVXZXZXAXCXCXAXAXZXZXNXNXxX5X` / P v                         ",
"                  v B 3 q *.*.t p w.0.%.f O.o.o.O.%.f.,XV < 8 7 w ) 3Xv.x.y.1.Y.Y.<.t.b.4XcXcXxXNXZXZXZXZXNXNXNXZXAXAXZXZXZXNXlX3X_ W P                               ",
"                    o O , y y ; p f.f.6.d j j j k 0.,X<XV < 4 > V k.8XxXcXv.x.x.i.x.v.cXMXMXMXMXCXCXNXVXFXFXNXmXnX6X7X-X` ( / I P                                     ",
"                      . , 5 5 , 7 f.,Xf.w.0.Y w.f.,XrXrXA p 0.t p k.8XmXxXxXcXzXvXzXlXnXNXVXNXCXNXMXmXuXuXiX;X` ( W E E P                                             ",
"                        @ , ; $ > h.tXqXm.l.j.l.<XrXfXaXA p u.d p ) 8XlXlXlXlXlXzXzXzX7X7X7X6X7X7X7X2X=X( / E E                                                       ",
"                        . q d u w d.qXrXtXtXtXrXaXaXfXaXd.p k t > B I Q Q Q Q Q Q Q W W E E E E E E P P                                                               ",
"                        . , s t < 9.<XsXsXsXaXqX,X<XpXpXl.p 6 5 : 3                                                                                                   ",
"                        . , 7 7 8 L <XsXsX<Xj.S D D h.qX0XC 9 9 7 -                                                                                                   ",
"                        - > 8 8 8 A ,XrX,Xf.Z u u u Z w.m.7.8 : 3                                                                                                     ",
"                          , 7 8 7 A :X<Xd.d i o.;.f j t g.d.w -                                                                                                       ",
"                          # r a < V :X,XZ i o.C.!.,.f q z.^ e                                                                                                         ",
"                          # q s w V h.l.d f B././.T.f q z.D                                                                                                           ",
"                          . , r > V d.f.d f V././.C.g s ) B                                                                                                           ",
"                          . : 7 : 1 S d.d f +.W.T.+.l T B                                                                                                             ",
"                            , 7 4 < S d.d i f o.o.f l T c                                                                                                             ",
"                            , t t > D z.Y d i i j k T B                                                                                                               ",
"                            # ; 4 : V z.l.d.S Z Y Y I                                                                                                                 ",
"                            @ 5 9 5 w h.wXgXaXeXeX>XB                                                                                                                 ",
"                            @ , r 4 < ^ pXdXhXpX9X)                                                                                                                   ",
"                              & u q , S jXfXfX9XL n                                                                                                                   ",
"                              # q q , V <XgXeX^ n                                                                                                                     ",
"                                - < 2 b h.9Xk.B                                                                                                                       ",
"                                . 3 3 3 B D B                                                                                                                         ",
"                                                                                                                                                                      ",
"                                                                                                                                                                      "
};
