/* XPM */
static char *e9c334ca07cb46f4ca9b1e405630d79fZAKdWhmUFvXAhnGL[] = {
/* columns rows colors chars-per-pixel */
"83 83 256 2 ",
"   c None",
".  c #3C0C17",
"X  c #350C08",
"o  c #29173A",
"O  c #31132D",
"+  c #3E2423",
"@  c #450B1C",
"#  c #47161C",
"$  c #5A1A14",
"%  c #68181A",
"&  c #542A16",
"*  c #662315",
"=  c #6E3211",
"-  c #491627",
";  c #5C1C24",
":  c #5D152C",
">  c #5B1B2C",
",  c #551726",
"<  c #5C1C33",
"1  c #5C1B3C",
"2  c #591638",
"3  c #4B132B",
"4  c #631B2B",
"5  c #67172A",
"6  c #75182C",
"7  c #651B33",
"8  c #691636",
"9  c #751635",
"0  c #6C0F34",
"q  c #5B2427",
"w  c #5C2637",
"e  c #502C2D",
"r  c #64222C",
"t  c #69282A",
"y  c #76262B",
"u  c #683629",
"i  c #763B29",
"p  c #662637",
"a  c #762835",
"s  c #6A3737",
"d  c #783837",
"f  c #7A4819",
"g  c #704D1A",
"h  c #534F33",
"j  c #784328",
"k  c #7B4336",
"l  c #6C4C2B",
"z  c #6B6532",
"x  c #331F47",
"c  c #362247",
"v  c #3C2D4C",
"b  c #581A46",
"n  c #4C1C49",
"m  c #651945",
"M  c #701A4A",
"N  c #463955",
"B  c #502D4C",
"V  c #682646",
"C  c #732849",
"Z  c #763947",
"A  c #762857",
"S  c #7A3A57",
"D  c #6A344C",
"F  c #5A3978",
"G  c #4D3167",
"H  c #672D6C",
"J  c #65336D",
"K  c #633175",
"L  c #71346D",
"P  c #4C4458",
"I  c #574A5E",
"U  c #54524B",
"Y  c #7C4455",
"T  c #714E4E",
"R  c #726648",
"E  c #554C63",
"W  c #5B5365",
"Q  c #5A5467",
"!  c #5D427D",
"~  c #5D5170",
"^  c #784666",
"/  c #61576C",
"(  c #655A74",
")  c #6F4D6A",
"_  c #6D6379",
"`  c #72677D",
"'  c #736366",
"]  c #59654C",
"[  c #811932",
"{  c #843A3B",
"}  c #8D382A",
"|  c #B03926",
" . c #8D381C",
".. c #C7381B",
"X. c #E13D17",
"o. c #895919",
"O. c #895113",
"+. c #966919",
"@. c #906A18",
"#. c #B47818",
"$. c #A77613",
"%. c #884929",
"&. c #955925",
"*. c #844439",
"=. c #91542F",
"-. c #AE4E2E",
";. c #956826",
":. c #986B36",
">. c #936F2E",
",. c #A87725",
"<. c #AA7A3A",
"1. c #AF7030",
"2. c #A5591F",
"3. c #CB462A",
"4. c #C9652D",
"5. c #D0541E",
"6. c #863B43",
"7. c #813C55",
"8. c #822E56",
"9. c #873867",
"0. c #854648",
"q. c #954948",
"w. c #864657",
"e. c #91554F",
"r. c #A85551",
"t. c #946A49",
"y. c #987749",
"u. c #976459",
"i. c #977759",
"p. c #896B53",
"a. c #A57B45",
"s. c #AB744F",
"d. c #884866",
"f. c #944C69",
"g. c #955569",
"h. c #8A4A74",
"j. c #954C76",
"k. c #885778",
"l. c #975478",
"z. c #89586A",
"x. c #977968",
"c. c #8B7676",
"v. c #977A78",
"b. c #8C6D6C",
"n. c #A46E6B",
"m. c #A15779",
"M. c #C56A55",
"N. c #B78919",
"B. c #B48915",
"V. c #B78628",
"C. c #BC9529",
"Z. c #B78536",
"A. c #B08D33",
"S. c #BAA02F",
"D. c #C6881A",
"F. c #CA9A17",
"G. c #DB931C",
"H. c #D09212",
"J. c #E79917",
"K. c #F09C0F",
"L. c #D5A713",
"P. c #E8B50C",
"I. c #E8B615",
"U. c #EBB311",
"Y. c #C78927",
"T. c #C59928",
"R. c #C78835",
"E. c #D0962E",
"W. c #C6A429",
"Q. c #D7A926",
"!. c #CAA736",
"~. c #D7B130",
"^. c #E4B324",
"/. c #E6C839",
"(. c #EBCF2E",
"). c #DFC238",
"_. c #9C834C",
"`. c #A8864A",
"'. c #AF8950",
"]. c #9A816A",
"[. c #968179",
"{. c #AA856D",
"}. c #CDA845",
"|. c #C59064",
" X c #E3C340",
".X c #683D8A",
"XX c #713B8C",
"oX c #6D3E95",
"OX c #6D3D9B",
"+X c #673F90",
"@X c #713C96",
"#X c #5D3A85",
"$X c #6A418B",
"%X c #654287",
"&X c #684193",
"*X c #714094",
"=X c #766B83",
"-X c #7E738B",
";X c #7D7391",
":X c #9A5485",
">X c #965488",
",X c #A55988",
"<X c #AA5D95",
"1X c #AF5A97",
"2X c #866985",
"3X c #8A7688",
"4X c #967987",
"5X c #857B94",
"6X c #8A7D9B",
"7X c #877A95",
"8X c #957C96",
"9X c #9B618F",
"0X c #A9648C",
"qX c #AB6294",
"wX c #AD649C",
"eX c #A5639A",
"rX c #B3649D",
"tX c #B46598",
"yX c #A17D96",
"uX c #987EA4",
"iX c #8B78A0",
"pX c #AD63A4",
"aX c #B565A4",
"sX c #B965A3",
"dX c #B665AB",
"fX c #B965AB",
"gX c #B569A5",
"hX c #B864B1",
"jX c #AA5EA2",
"kX c #968488",
"lX c #8D829C",
"zX c #8B8498",
"xX c #93849C",
"cX c #998598",
"vX c #8E838A",
"bX c #A28E91",
"nX c #8E87A7",
"mX c #9486A4",
"MX c #9B86A4",
"NX c #9589A5",
"BX c #9989A6",
"VX c #9686AB",
"CX c #9986AC",
"ZX c #9589AB",
"AX c #9888AC",
"SX c #9A86B1",
"DX c #9589B1",
"FX c #9988B0",
"GX c #9686B1",
"HX c #9A91A7",
"JX c #B5AFB1",
"KX c #A49AAF",
"LX c #CFBAB2",
"PX c #C4999A",
"IX c #E8E5E6",
"UX c #D3CED3",
/* pixels */
"                                                                                                                                                                      ",
"                                                                                                                                                                      ",
"                                                                    o o o x c c x x o o o o                                                                           ",
"                                                            o x v G G F F ! ! ! ! %X! F F G G v x o                                                                   ",
"                                                        o c G F F .X+X&X&X&X&X&X&X&X&X&X&X$X.X#XF G N x o                                                             ",
"                                                      o G F .X+X&XoXOXOXOXOXOXOXOXOXOXOXOXoXoXoX+X.XF F N o                                                           ",
"                                                    c G F $XoXOXOXOXOXOXOXOXOXOXOXOXOXOXOXOXOXOXoX&X$X%XF G v o                                                       ",
"                                                  v F %X$XoXOXOXOXOXOXOXOXOXOXOXOXOXOXOXOXOXOXOXOXoXoXoX$X%X! N c                                                     ",
"                                                N F .X$X&XOXOX@X@XoXoXoX@XOXOX&X&XoX@X@XOXOXOXOX@XoXoX@XXX$X%XF F c                                                   ",
"                                              v F .X&X$XXXXXXXXXXXXXXXXXXXXXXX$X$XXXXXXXoX&X&X*X@X@XXXXXXX$X$X$X%XN c                                                 ",
"                                            o B G F K J J H H H H H H H H H H J H H H H H K K K K K K H H K K F F G B o                                               ",
"                                          . O 3 n n b 2 2 b m 1 1 1 b b 1 2 1 m m b 1 1 1 b 2 b b b b 2 1 m m b n b n 3 O                                             ",
"                                @ . . . @ , , q : 8 : > p 8 8 7 a t 4 : r t 6 9 9 a a y 5 5 4 r 4 8 5 y y 9 9 7 w 2 2 3 . . . @                                       ",
"                      . . # # , , , , q , 5 y *.a 6 5 { q.9 9 d e.q.t 4 d *.} [ [ q.r.6.y y { 6.y 6 y q.{ [ [ a { 5 0 : ; q , # # - # @ . X X                         ",
"            @ @ # , , , , q r 7 7 7 s d $ 5 y *.a 5 5 d q.6 6 a q.*.t 4 a { y 6 6 { q.{ 6 6 a 6.y 0 6 { } 6 9 a *.5 0 5 d d t ; r s r ; 4 t t ; : , # # @ @           ",
"        # & , 5 ; t 7 7 r s a 8 8 7 t u $ , ; t r 4 > r a 0 8 4 ; ; , : > ; 5 5 5 q q 4 5 8 : : : 0 8 4 5 0 0 5 r 5 0 : r t ; ; r Z p 5 a { { a 0 4 r r 5 , #         ",
"    . - q u r 9 4 r 4 : > w < 7 8 8 < w < 7 p p p V V V C A A V 1 1 V V V w w < > q w p V V m m V A A V C A A V V C C V p p p p w V p 8 8 a a 9 9 8 t y 6 t u e .     ",
"    3 < q q 4 5 : > < 1 V V V A A L 9.d.h.j.f.w.Y Y d.l.:X,X:X:X:X>X:X:Xl.Y D w w s Z Y h.:X:X:X>X>X:X:X:Xl.h.h.f.j.l.:Xl.l.j.h.h.L S A C V 8 m M 8 5 6 6 6 i s @     ",
"    3 2 , , < w V D S S d.h.:X:X,X<X<XqXqX,Xf.0.*.*.0.g.,XaXgXgXgXaXgXgX,XY u u u j k 0.l.qXaXsXfXdXgXrX0Xk.d.w.w.g.l.0XrXaXaXpXjX<X,X,Xl.j.9.9.A A M 9 9 5 4 p 3 @   ",
"    3 b V S ^ h.z.z.d.d.f.l.,X<XrXsXsXrX0Xf.6.%.%.%.%.{ d.,XaXgXaXaXaXtXj.d = f o.o.o.%.w.,XaXfXfXfXgXqXz.s s j k k 0.f.<XsXfXhXhXaXrXqXqX0X,X,X:X:X9.9.8.C 1 , @     ",
"    B h.<XjXpXwXl.Y d d d d Z d.,XsXsXtXm.w.d f +.$.o.j 6.d.tXsXsXdXaX:X7.i @.C.~.W.B.o.*.f.wXfXfXfXaX,Xs & g @.@.O.j d m.tXsXfXdXpX,Xl.l.l.m.0XrXsXaX1X,Xk.D +       ",
"    D 9XaXfXfXaXd.d i f f f i d f.1XsXtXj.0.j O.V.W.V.o.d 7.,XsXfXfXaXj.Z j ,.^.(.(.C.o.*.d.wXdXfXdXrXl.u = A.S.W.+.o.i f.<XsXsXrX:Xd.Y Z T w.l.<XaXsXwX9Xk.D         ",
"    B k.eXdXhXaXS i f +.V.B.o.j Z j.aXtXj.0.j o.~./.~.;.i Z ,XaXfXfXaXj.7.%.,.~.(.(.T.o.{ d.<XdXfXsX<Xw.i g !././.C.o.%.w.,XrXrX,X7.d i g g j 0.g.,X<X>X^ B           ",
"      B ^ 9XpXeXZ i o.W./.).S.o.u S qXrXl.w.j o.N.Q.Y.&.i S ,XdXfXfXdX<Xf.*.o.$.C.N.+.f d f.wXdXdXsX,X7.i f !././.C.o.i d.,XrXqXf.d f ;.S.A.>.k 0.d.d.B O             ",
"        n L 9XeXY j o.T././.!.;.u D ,XaXqXf.k O.O.o.O.i d d.wXfXfXhXfXsX,Xq.%.O.f = = i Z l.aXdXaXaXqXd.d f ,.!.!.o.g t j.rXaX<Xd.*.&.C./.~.A.l l e e                 ",
"          n ) >XY k f +.C.T.,.f u D ,XaXrX,X0.%.%.%.j u Z :XaXdXfXfXfXsXtXg.0.i i i i d w.,XsXfXaXaXwX:X7.%.o.+.@.f i Z ,XaXdX<Xd.0.;.T.~.!.>.g e                     ",
"              B I T l l g f j j Z h.pXfXfXrX,Xf.7.Z D d.:XwXrXwXwXwXwXpXwX0Xl.f.w.Y Y f.,XtXrXsXrXrXwXqXl.S u i i u Z j.rXsXfXwXl.Y j f o.g & +                       ",
"                  B I T s q q u w.qXpXdXaXrX<X:Xl.h.k.>X:X:X:Xl.j.j.l.>X>Xh.h.d.d.^ d.j.l.,X,X,X,X,X:Xl.h.d.Y Z Z Y d.:X,X1XrX1X,Xw.s u l &                           ",
"                    c B ) z.z.g.m.0X:Xd.A A V V w w w 1 2 : 7 < > , > 7 : , : 8 7 , # , > < 7 m M 8 8 8 7 < > > > < 1 V m m M M C Z T s e                             ",
"                        B D Y d.7.C p p p p < < p p > 7 p d 4 : w s r 5 5 p p 8 7 d d t ; q p 8 0 8 a 8 8 4 a a 4 > > p 5 8 8 7 q w e +                               ",
"                            e w 8 9 6 k u.Y 4 8 a Z ; 5 a 0.t 5 4 s p 0 5 4 4 8 8 s d t ; t 6.a 9 a q.6.6 y r.r.y t k n.y 4 p s e #                                   ",
"                              @ : 9 5 t d t > 7 > q $ % ; e w < q & * % % $ $ * * * $ $ $ $ * % 6 y y % 5 t t t r q u 0.t > q s e                                     ",
"                                , 7 : q w w V V - # & * u U I D s o.f = * = f O.O.O.= = = = = *  .%. .= t s p w w w p Z p w e e +                                     ",
"                                  - 3 B ) k.k.) h h l =.e.` 3X' t.Z.V.+.o.$.N.F.F.F.D.V.V.V.,.&.%.-.-.=.T z.2X2X2X2Xk.k.k.^ B +                                       ",
"                                      I 7X8X8X3XT l <.Z.:.i.[.b.y.T.Q.F.F.L.I.I.P.U.I.^.Q.!.Z.:.e.u.u.p.b.8XCXMXuXuXuXuXuX2XI                                         ",
"                                      W lXmXcXv.:.@.E.Y.#.<.i.x.i.A.^.I.P.P.I.P.P.P.I.^.F.N.,.;.t.x.v.4X8XmXCXCXCXVXCXCXmX5X/                                         ",
"                                      Q lXmXcXx.:.N.J.J.H.V.:.x.i.A.Q.I.U.I.I.P.L.P.I.F.B.N.N.,.a.x.4XcXmXVXCXMXMXVXZXZXNX5X/                                         ",
"                                      Q lXxXv.y.Y.G.K.K.J.D.:.x.x.y.!.I.U.L.L.F.H.J.G.$.$.B.#.Y.R.s.b.4XZXZXNXNXBXZXZXZXNX5X/                                         ",
"                                      Q lXxXx.1.G.J.J.J.G.Y.<.x.v.x.`.Q.I.F.B.B.H.L.H.$.B.B.$.#.R.a.t.v.AXZXZXZXVXCXCXVXZX5X/                                         ",
"                                      W lXzXx.Y.G.H.D.#.$.,.:.i.v.v.a.T.Q.F.N.B.F.L.L.F.Q.W.$.+.Z.1.:.x.mXZXZXZXCXCXSXCXCX6X(                                         ",
"                                      Q zXvXi.Y.D.#.,.z g >.t.x.v.x.t.;.N.T.C.B.F.I.P.I.^.W.+.+.R.R.<.i.xXnXZXCXCXCXSXSXCX7X(                                         ",
"                                      Q zXzXx.<.,.+.z h h R i.i.x.i.t.=.;.V.C.V.F.P.P.U.^.C.;.;.Z.E.R.t.3XNXZXCXCXVXZXGXGX7XQ                                         ",
"                                      W zXlXv.t.<.>.g h ] ] p._.'.].x.b.i.y.A.C.F.P.P.U.Q.A.:.>.,.Y.R.t.3XMXCXCXSXCXZXGXCX7X/                                         ",
"                                      W 5XnXcXb.i.y.l h ] ] z _._.x.c.kXcXc.y.A.Q.P.P.I.T.:.i.t.,.V.Z.t.v.cXcXCXSXCXZXCXMX7XW                                         ",
"                                      E 6XNXMX4Xb.p.T U ] U h R i.c.cXNXNXvXb._.W.I.I.Q.Z.i.x.y.Z.#.Z.:.u.x.c.8XCXZXZXCXMX3XI                                         ",
"                                      E 6XmXBXcXcX4X_ W Q W ' 3XcXxXNXZXZXmXvXi.A.Q.^.E.a.x.x.a.Z.#.Y.,.<.s.p.4XMXZXZXCXMX2XI                                         ",
"                                      E 6XVXMXcXBXZXnX;X=X5XxXCXAXZXZXVXVXCXMXv.a.E.^.!.y.v.x.a.Y.#.Y.E.E.|.R c.mXNXNXZXmX=XI                                         ",
"                                      E 6XCXMXMXNXZXnXmXmXVXVXCXZXZXVXVXCXCXMX4X_.T.~.!.y.v.x.a.Y.D.G.G.Y.a.p.4XVXNXNXZXmX=XE                                         ",
"                                      E 7XCXCXNXZXZXZXVXZXCXCXVXVXCXCXCXCXCXCXcXx.A.~.}.`.x.x.Z.G.J.J.H.#.:.v.MXDXNXNXZXmX_ E                                         ",
"                                      E 7XMXCXZXZXZXZXSXGXGXCXCXCXCXCXCXCXCXVXcX].`.}.}.`.x.i.Z.G.J.J.J.R.y.kXZXDXZXNXZXnX( P                                         ",
"                                      P 2XmXCXZXZXZXCXCXSXDXZXCXCXSXDXAXCXVXVXcX].`.}.}.`.x.x.Z.G.G.D.Y.'.i.kXZXGXZXAXAX6XQ                                           ",
"                                      P =XuXCXZXZXZXCXCXCXZXZXCXCXSXDXZXZXZXNXcX].`.}.}._.v.].a.R.R.,.<.'.].cXNXZXCXCXCX6XW                                           ",
"                                        ( uXSXZXZXNXCXCXCXZXZXVXCXCXCXmXNXNXxXkX].S.!.'.].kXkXx.'.'.s.n.kXcXNXNXZXCXCXCX5XP                                           ",
"                                        / iXSXVXZXZXCXSXSXVXZXZXAXMX8X3X3XcXcXv.`.!.!.'.[.cXcX4Xv.v.4XyXMXmXVXZXZXCXCXCX=XN                                           ",
"                                        E ;XVXVXZXZXGXSXCXAXZXZXZXMX4Xz.z.v.v.p.:.V.A.i.kXMXxXxX8X8XcXMXFXSXCXCXVXCXCXCX(                                             ",
"                                        E ` mXNXZXZXSXCXAXBXNXZXCXxXb.e.=.e.q.=.&.;.:.p.kXBXNXZXAXZXNXAXCXSXSXSXCXCXSXVX~                                             ",
"                                          ( nXAXAXCXCXCXAXBXZXZXZX8Xu.1.4.-.2.2.2.2.:.i.vXxXZXZXGXZXAXZXAXCXSXSXCXAXAXmXE                                             ",
"                                          W 6XAXCXCXSXCXAXAXZXZXBX3Xu.4.4.5.5.2.2.2.=.t.v.cXZXAXCXCXAXZXAXSXSXCXAXZXNX7X                                              ",
"                                          E 7XAXCXCXFXAXCXVXZXBXxXc.t.1.4.4.4.1.:.&.=.=.u.4XNXAXCXAXAXAXAXSXSXAXAXAXmX-X                                              ",
"                                          E -XAXAXAXAXCXCXAXAXmX7X3X[.s.s.:.s.{.{.t.%.%.*.z.8XAXCXAXAXAXFXSXSXAXAXZXxX_                                               ",
"                                          P ` NXAXCXCXAXAXAXZX6XlXJXLXbXR T b.LXLX{.-.-.-.w.8XCXCXAXAXAXAXSXSXAXZXZXlXQ                                               ",
"                                            ( NXAXVXAXAXAXZXVX6XHXUXUXkX' ' ' KXLX|.-.| | e.8XMXCXCXAXAXAXSXFXZXZXNX5XW                                               ",
"                                            / NXAXZXAXAXAXCXZX6XKXIXIXJXbXkXvXJXLXM.3...| q.4XMXCXCXAXAXSXFXZXZXZXmX=XI                                               ",
"                                            I lXNXAXAXAXCXZXAX6XNXUXIXIXLXbXbXPX|.4.....| q.4XMXCXAXAXSXSXDXZXZXZX5X/                                                 ",
"                                            P 3XNXAXZXZXAXAXAX6XlXKXJXJXKXc.u.r.3.3...| -.g.8XAXZXCXZXCXGXFXCXZXNX=XP                                                 ",
"                                              _ xXNXZXZXAXVXAXVXmXnXxXzXvXb.q.-.X.X...| u.4XmXZXZXCXFXFXZXZXZXZXmXQ v                                                 ",
"                                              W 5XmXZXZXCXVXAXAXZXVXnXxXcX4Xr.-.3.3.3.q.v.xXZXZXDXDXGXZXAXZXAXZX7XP                                                   ",
"                                              P ` lXAXZXZXAXVXAXZXZXZXZXBXyX0Xr.r.-.r.g.4XmXZXDXSXGXCXCXAXZXZXmX`                                                     ",
"                                                / 5XZXZXZXAXCXCXCXCXCXAXCXCXyX4Xn.n.n.4X8XCXSXAXCXCXAXZXZXZXNX-XE                                                     ",
"                                                P _ ZXZXAXAXAXAXAXCXSXSXSXSXCXMXcXyXyXMXCXCXCXCXAXAXCXZXZXNXxX/                                                       ",
"                                                v Q mXZXAXAXAXAXAXCXAXCXSXSXSXZXBXMXMXCXFXGXCXCXAXAXAXAXZXlX=XP                                                       ",
"                                                  N -XVXAXAXZXAXAXAXAXAXCXSXDXZXZXZXCXCXSXCXCXCXAXAXAXAXlX=XP                                                         ",
"                                                    Q 5XmXZXZXAXAXAXAXAXAXCXDXDXZXZXAXCXCXCXAXAXCXMXNXmX=XP                                                           ",
"                                                      ( 6XNXZXAXCXAXAXAXCXCXAXZXZXAXCXCXCXCXAXAXAXBXNXxX/                                                             ",
"                                                      P _ lXNXZXAXAXAXAXAXCXCXZXAXAXCXCXCXCXCXAXAXNXlX-XP                                                             ",
"                                                        N ` 6XNXZXZXAXAXAXAXAXAXAXAXAXAXAXAXAXAXmX7X` I                                                               ",
"                                                          P ` 6XmXZXAXZXCXAXAXAXAXZXZXZXAXAXAXVX6X` P                                                                 ",
"                                                            v _ 5XlXmXZXZXAXZXZXAXAXAXZXZXmXmX7X` N                                                                   ",
"                                                              v I _ 7XmXNXZXZXZXVXZXZXNXlX5X` Q N                                                                     ",
"                                                                  N ( -X5X6X6X6X6X6X7X5X=XW                                                                           ",
"                                                                        v P P P P N v                                                                                 ",
"                                                                                                                                                                      ",
"                                                                                                                                                                      "
};
