/* XPM */
static char *c60e699a5fa046939b229e03931fb8dfAv1dXZjbO5fzyzpJ[] = {
/* columns rows colors chars-per-pixel */
"83 83 124 2 ",
"   c #0D0E13",
".  c #111217",
"X  c #15161B",
"o  c #17181D",
"O  c #191A1F",
"+  c #171721",
"@  c #161A21",
"#  c #1B1C22",
"$  c #1E1E29",
"%  c #201F22",
"&  c #1F2025",
"*  c #1E2229",
"=  c #212226",
"-  c #282A25",
";  c #24242A",
":  c #27282C",
">  c #292A2E",
",  c #2F312D",
"<  c #252530",
"1  c #2C2D32",
"2  c #2F3034",
"3  c #313235",
"4  c #363835",
"5  c #3B3C36",
"6  c #34353A",
"7  c #37383C",
"8  c #393A3D",
"9  c #3F413C",
"0  c #41413E",
"q  c #373741",
"w  c #3C3D42",
"e  c #3F4044",
"r  c #414246",
"t  c #494747",
"y  c #4A4C46",
"u  c #46474C",
"i  c #45464A",
"p  c #474949",
"a  c #47484D",
"s  c #48494D",
"d  c #48494E",
"f  c #494A4E",
"g  c #494A4F",
"h  c #494A4D",
"j  c #4A4B50",
"k  c #4B4C51",
"l  c #4C4D52",
"z  c #4E4F54",
"x  c #4C4D52",
"c  c #4F5054",
"v  c #515257",
"b  c #525257",
"n  c #515256",
"m  c #5A5B53",
"M  c #54555A",
"N  c #55565B",
"B  c #545559",
"V  c #57585D",
"C  c #57585C",
"Z  c #58595E",
"A  c #595A5D",
"S  c #5E605F",
"D  c #5A5B60",
"F  c #5C5D62",
"G  c #5D5E63",
"H  c #5E5F62",
"J  c #5B5C61",
"K  c #5F6065",
"L  c #626366",
"P  c #696A64",
"I  c #636469",
"U  c #64656A",
"Y  c #67686D",
"T  c #6D6F6D",
"R  c #68696D",
"E  c #6A6B70",
"W  c #6C6D72",
"Q  c #6D6E73",
"!  c #6C6D72",
"~  c #6F7075",
"^  c #717276",
"/  c #75767B",
"(  c #75767A",
")  c #77797B",
"_  c #797A7D",
"`  c #7F8177",
"'  c #80837B",
"]  c #7B7C81",
"[  c #7C7D82",
"{  c #7F8085",
"}  c #7F8085",
"|  c #828481",
" . c #818285",
".. c #878986",
"X. c #8B8A84",
"o. c #85868B",
"O. c #83828C",
"+. c #86878C",
"@. c #848589",
"#. c #8C8D8F",
"$. c #8A8B8D",
"%. c #8C8D91",
"&. c #919297",
"*. c #909295",
"=. c #929398",
"-. c #97989D",
";. c #98999D",
":. c #9A9B9F",
">. c #9FA0A4",
",. c #A2A3A6",
"<. c #A2A3A5",
"1. c #A4A5A8",
"2. c #A6A7AC",
"3. c #A8AAA8",
"4. c #AEAFB4",
"5. c #AEB0B1",
"6. c #B2B3B6",
"7. c #B0B1B6",
"8. c #B5B6BB",
"9. c #B8B9BA",
"0. c #C0C2B5",
"q. c #D7D7CE",
"w. c #CFD0D3",
"e. c #E0E1E3",
/* pixels */
"& ; ; # # # # $ $ $ # @ # o = $ # # O @ # # @ # # # # # # o # @ # # @ # # # $ $ # @ # O # # # @ @ # # o $ ; ; # & @ O # $ = O # # # # # # # & # $ ; # @ $ $ $ $ @ @ O ",
"o = s # # # @ $ $ $ # o = & # # $ $ @ # # # @ @ # # # X # O O # # # @ O O 3 O # # O o O # # # @ # # # # o & . # X $ O o O o O o # # # o # . # o o $ $ $ @ # # o @ @ O ",
"o X z O O O @ # # @ @ @ @ ; # # = = # # # # O O O O O ; s X # @ # # @ O O . O O @ O X O O O O # # # $ = ; # X 1 . $ O X # X s O O O O O # # @ . ; $ $ $ ; $ o @ # @ O ",
"O # ; O O O O # # @ @ $ ; O > ; ; ; $ # # # @ O O O O O o O # # # # @ O O @ O O o ; s @ O O O # # $ $ & # # O <.> = O = @ & o @ O O O O O O . M   # $ ; = = ; & # @ O ",
"# O o O O O @ # # # # # ; : r w 3 > & # = = O O O @ # # O @ # # = & # o = # O O O O O o # O O # # ; M 6 : # o . # $ o O X O o X o o # X @ # # = ; X = 1 # ; X $ ; = $ ",
"# = o O O O @ # # # # = # 4 1.o.2 & # # # # O O O @ # # = O ; @ @ # = : O X X o O O O o O O # ; # 1 D w > $ # $ X # O X $ ; o ; $ X 1 +.@ # # @ = & & = O > # 6 ; = O ",
"j O # O O O @ # # # # X ; 3 H w 7 6 ; # ; 1 O @ O @ # o ; ; : > = & = & ; & z u O O O # # X # w # 1 > 1 ; # # o # O O # @ D l @ # # X X @ # # O X O = 8 8 3 : = = O O ",
"X # o O O O O # # # # & O & > 6 > & ; & $ = O O O @ # & & ; 2 s 3 O # > X # o O O O O # @ o ; v O $ = # # o O @ $ @ # Q @ { I = X # . O @ # # & = O > i 7.#.6 # O = # ",
"@ @ O # # # X O $ o @ $ = # : 3 $ = # # # # @ @ O O = # = & s m y 5 > ; * @ & o O O O O O O O @ # # # = O & o O X # = M # # # # O # O # O O # @ # O 3 6 ] Q # 6 $ # = ",
"@ @ O i   X # o # H E # o = = # # # # # # @ O @ O O = @ : e Q q.0.P 4 = * & & o O O O O O O O @ # # # O o # Z O ; X & o X & # # # @ # O O o # = $ # 2 > 8 8 6 & = ; o ",
"@ @ O o & X # o # : O O # # O D 8 = # # @ O O @ O O = = ; ; r X.` 3 = @ * @ @ @ O O O O O O O O O O O o O @ w o @ O @ ; . # o o # = # @ O o # & ; = ; ; = 1 ; ; ; # # ",
"@ @ O # O X # O # ; > # # @ . v 1 # & @ O O o @ O O = & # : = y 0 3 > # o ; w X O O O O O O O O O O O . # X # O = O # X $ : o # X ] X # O o # $ s z # & # > ; o = $ O ",
"O = # # # # # O O O O O O X # # # # @ # # O O # # # # $ ; # = t > ; # $ @ & # o @ @ O # @ $ # # # # @ # X X O # # O $ X # . 1 # O # O O # @ O O # O & ; # ; # # & # O ",
"w $   # # # # O O O O O = # o # X X # # O # O O # # # & @ & = % % $ @ # * & O # # # # @ # @ # # o X o = X o X # X & O # ; & o o # # O O # @ O o O = = $ # # ; # # # O ",
"&.3 O # # # # O O O O o O O # X O # w O O @ O O O O O # = @ $ ; O 6 ; # @ # O # $ $ # # & O $ O # @ O # j k X # # O $ = ; $ ; = # = # @ # @ O O @ # @ # = O # ; @ # # ",
"/ 1 # # # # # O O O O o l : O X # w ;.6 # O O O O O O # # # & o > O.$ # @ o X # & & $ $ @ # @ # : r @ O 1 3 ; o @ # # = = & 6 # & = # # # @ O # O O O o o X O O O @ $ ",
"1 ; = # @ @ O $ # X o # M : O X # @ 3 O O O O X X 1 # # @ @ # @ @ : @ @ O o # ; ; $ $ + : $ ; : # : $ o o O # O O = = # 1 p S 6 1 = $ $ # @ O O @ X V X O O @ @ @ # ; ",
"# X O # @ @ O H X O # . o o o O # O # O O O O @ ; <.= O O @ # O O O O O o X # @ : ; % ; : : $ : = & & # O @ # O @ & = O ; T | 7 > $ # # # @ O O # O > # O @ @ # # # > ",
"$ o @ # @ @ O j O o $ O # O O O O @ @ @ O O O @ O 1 @ O O @ # O O O O # # X = 3 # : 2 7 v 6 ; = & $ $ @ O @ # # # $ = = > 4 8 2 ; # # # # @ O @ . i 6 X O @ @ # # # # ",
"= O # # @ @ O O o # O # O # $ o O O @ O O O O @ O # # O O @ # O O O O # @ O ; 6 O > 2 ) 5.h 3 : $ $ ; # O @ # # $ # & # = > : > = & # # # @ O o @ ] Q = O @ @ # # O # ",
"# @ @ @ @ @ @ O X @ X @ O O O @ @ # @ & O @ o O O O @ O X # O # # $ O O O # O # = = > B ) 4 : = ; # # & # @ @ # # # ; $ & ; # ; # # # & # # # . X 1 = O O # O @ o # @ ",
"# @ @ @ @ @ @ = @ s = # @ O O X # @ & o.: & O O @ @ @ = O @ w D o o o @ @ X # # # ; ; 6 6 3 > > = # O O # @ o X # w @ @ ; $ = #   W o O X # X J X O o o # O O o o $ O ",
"# # @ @ @ @ @ O O 1 = @ # @ O # O # o : o # = # # # # O = O # ; o X # o # # # # # ; ; : $ 1 $ ; # # # X # O o $ $ w # ; $ ; # & o w # o o # . > O # # X o # X z 3 # # ",
"# # @ @ @ @ @ # # ; O # # # @ O O O @ # @ o O # # # # # @ O o @ O # o $ O # O $ $ $ $ ; ; ; @ # @ $ # o O X 1 1 $ + @ q @ O ; X @ O o o O @ O # o @ $ X @ # . R e # # ",
"O @ X O # O ; # # & ; # # # # @ @ O @ ; X # O = > ; = # # @ O # O # # z X # @ $ # # $ $ @ # ; o O # O = # o o $ @ o @ ; o # @ & . ~ X $ $ O # O # O # O # O o o o # @ ",
"O 6 Q # O = @ # o ; # ; # O # @ @ @ O 1 O # # = r L : # @ @ O @ O O & & @ X O O # # # @ # # 6 L X @ # @ # o @ # @ o O # # o # @ X 8 O @ X ; O O # # # # # # O O # @ O ",
"o ; 6 $ & & 7 # # ; ; & ; ; # # @ @ O O O # @ $ w u ; # @ @ O X O ; ; O @ # O # @ # # X = @ 1 D . # O # O ; w X X $ . O # X @ X # . # o # ; O # o @ # $ & # # # # @ O ",
"X X = # ; = @ ; 1 6 1 : : $ @ # @ @ O O O O $ ; ; ; # # @ @ O # # X O X @ @ O O O @ # @ O # o O X o o O # # 1 O o @ r H # O # @ o O $ X o w O ; $ ; > : = & # # # @ O ",
"O O # O $ ; o : 7 B s w > = O # = @ O O O O @ $ # # # # O @ @ O o O # @ o # O # # @ @ O @ o # O o O @ @ O O o X # # { 4.> . # O o # O O # o O $ # & 1 D 1 : O X O # # ",
"O O O # = ; $ # e 4.[ 6 1 # $ & @ $ O O @ O @ O & ; @ o @ $ O : # . # # O # $ = O # # # # # o # # @ # X O O O X @ & # 1 O # @ o # X # O X o # X ; : w _ 1 # O # o O o ",
"O O O O # O $ ; w z 8 1 # $ : & $ O O @ @ @ @ O # o @ . $ o b Q . O @ o @ $ O # # @ @ # o @ . O # O O O @ @ @ @ # & # o # O o a @ X = # 6 l = # = ; # 1 = o ; # w O $ ",
"O O O o # # $ = = ; 1 1 : = & # # O O @ @ @ @ $ O # 1 o # X @ O & o @ > w # # o # # # O @ & : O o = w O # # # O : . o @ O @ . ; # # @ O # ; # # $ $ ; & : X # # 1 o @ ",
"o o # # # # = # O s V # & # # # @ o X $.B O o X o = B O o @ O O O @ # @ $ ; = o O = = @ @ $ : # $ = 6 O X & # = 1 # O O O O O # o X O O O O @ o i # ; # # @ # # # # O ",
"X # @ # # # # @ ; $ : # $ # = # @ o X w 1 O X o X O . X = o @ O O @ # o # ; & > > : $ O # @ @ o X O # # X X # # o O @ @ O O O O # # O O O O O O 7 O $ O # # # @ O O O ",
"O $ O @ @ # # # @ = = $ = O O O O O O # $ # # # $ # # # = Z o O O @ # ; @ 6 6 J M = = $ # @ @ $ O X @ ; O # = = ; $ # O O O O X # = $ # O O O o @ o O o O O O O O O O ",
"= O O O O @ # O O O # @ o # # o O # # o o O # O : o $ @ o ; O @ O @ # X ; # 3 ^ _ > ; o @ $ $ 1 6 # = $ O : o.6 = $ # @ O O O # X i U o O O O # @ o = o O O O O O O O ",
"D 3 o O O O O # # O @ # O O O O O @ # # O $ # X # # O # ; o & o @ @ @ @ & ; ; > 1 = ; @ # @ @ @ # O @ # # $ w ; # # # @ @ @ @ O O O o o # o o @ O # O O O O O o # O c ",
"&.1 @ O O O O @ @ @ @ @ O O o O O @ # O # X # ; @ # $ 1 # # @ @ @ @ @ @ # = 1 : ; # @ O @ @ # @ O O @ O @ $ ; = # # # @ @ @ @ # # @ @ o = O O $ O O O O O O O # . O O ",
": @ o O O O O @ @ @ @ @ O @ O O O @ # o $ O > $ 1 ; 1 # ; = o @ @ @ @ $ O & ; o = O 1 o @ @ # @ O O @ @ # # # # # # @ @ @ @ @ # # # # @ # . z 8 O O O O O O O o O # # ",
"# O & O O O O @ @ @ @ O # $ ; O O @ # 3 j # ; # > w ; 1 o # # # @ @ @ # # O X # # # = o @ @ # @ O O @ # # @ O @ # @ O @ @ @ @ # # # # # $ = $ $ O O O O O O O # & = # ",
"O @ O # X # @ @ @ @ @ O & ) $.& O @ # O $ ; = 8 r h 8 1 # ; ; # # . # # # $ # # X # @ & @ @ @ O o 6 : O O O & O @ @ # # # # # # o # $ @ @ # X @ @ @ O O O O # O O X ; ",
"O O O # # ; # # # # @ O O > > O O @ # = = = ; 7 X.<.8 3 ; ; & 1 v X O # # # # # $ O # # @ @ O O o > = O # O # O @ @ @ @ # # # = & @ @ $ ; # < $ # @ O O # X o o = # @ ",
"O O O O X # @ # # # # O # O # @ O @ # $ : 1 ; 4 C U w ; ; # $ @ X = O @ O O O ; w O . O @ @ O # # # O @ # X . O @ @ @ # # # $ # = = ; ; # $ $ $ # @ O O O # r O # = O ",
"O O O # $ 2 O $ $ $ # O # O O O O @ # $ # # ; ; : > > ; & $ $ o @ $ O O O O O 3 I X o # @ @ O O # O O & O   s o @ @ @ @ # $ $ # O ; = $ ; $ + @ # @ O o # X i O 3 : o ",
"O @ @ = o Z # $ # & # @ @ # @ O O O $ @ # ; # # O & # $ $ $ 1 $ O o r = O # O o @ @ o o @ $ O @ @ O @ @ O X r o O @ @ o @ # # ; 1 r > # ; $ $ $ ; O @ O # O @ # @ @ $ ",
"O @ # # = : ; 3 ; # @ O @ @ $ o O o # & # $ # ; # X @ $ + # 7 : O O 7 # O # O @ # # # O # O X o O O O O O O O O O @ # = @ @ = ; c 9.s 1 : $ ; $ j o O O O O O o X & # ",
"O @ # $ # > k  .; = ; 6 w # # # # @ o O o : # 1 ; $ $ ; $ + $ @ # O X O O @ # # # $ ; ; # @ w r O O O O O O O O O @ # = 6 # # ; 3 ) 7 > > ; @ = o # # O O O O @ @ O $ ",
"O @ # # # 1 v *.: = # : < $ # @ 1 # o O # $ O @ O # % $ + # # o # @ @ # O O # # O ; ; > # O 1 1 O O O O O O O O O @ # ; 8 > X 3 4 4 8 & > # @ O O @ O O O O O O o : # ",
"# O $ # ; > 1 > = = # ;   # @ $ %.: O O o # # O O # @ @ @ $ # @ O O @ # @ # # ; ; # ; O ; # ; # # @ @ # # # o # O O # # X ; ; # = > = ; # # @ # # # O 1 X # @ o O 1 # ",
"O ; X O $ ; : : & # 6 j X O O o o X O O O O O @ @ @ @ O O O O O O O O # o & # $ ; > y 4 3 > ; ; # # @ # o @ 1 X o o # & $ O > # # = ; = $ # # # $ . . [ X # O # O O O ",
"@ ; @ # # & = $ = # O O o O # o # O # O O O O @ @ @ @ O O O O O O O O O # # $ = = s 3.L 4 > ; 1 # # @ X O r  .> O o O @ 3 $ = ; @ # # O # # # O # # # . X @ # o @ @ @ ",
"# O o # # # @ @ O # @ O O @ O o = $ O @ O O O @ @ @ @ O O O O O O O O o & @ = & 6 3 Y r 8 : ; o # # @ @ O K 7.8 = X O o O O = O ; o ; o # # @ # # # @ # O # O # # # # ",
"= @ X # $ @ O O @ O # @ @ O # O @ O O @ o O O @ @ @ # O % # # O o # @ @ @ # $ ; 7 : 1 2 = = ; $ # # @ # O O s o @ O X o # $ O # o @ & O X o # O # O O X & o O ; : # # ",
"O # @ X # @ # O O O O O O O O O O O @ O . Y ; @ @ @ # O o w R o O o o @ @ # # $ # # 1 > ; $ $ # # @ O o O X = @ O O O O O @ # # # # # = O X O = O O O o # # = 8 r @ # ",
"O @ O @ # O ; O O O O O O O O O O @ # o @ 6 & @ @ @ @ O X 8 C $ & X s 1 O @ @ $ + ; # ; = $ $ @ # O O @ # @ o O O O O O O @ # @ O O O & l e # # O O O # # # $ $ # > ; ",
"@ X 6 i X # 3 O O O O O O O O @ @ # # $ o # o O @ @ @ # O @ X # # @ : & O O @ # # $ @ # # # $ @ @ O O O # # $ O O O O O O @ # @ O O O = Q Z & o O O O # @ ; = 2 w > ; ",
"@ @ 1 q . $ @ o o # X X O o O X # O X X @ # @ # # ; O # o O O O # o O O O O @ @ $ $ O O @ @ # $ O o @ @ o @ @ O . ) & # o o O # O O O # o X = o O # X # O & : U _ w 2 ",
"@ @ $ + + @ # @ X l = # O # # # @ 7 6 & $ = O X O @ $ O O O O O O O O @ @ @ @ # # # # O @ @ @ # O # 6 ; O O @ O X r ; o ; ; o @ @ @ O O O O O @ # o = $ # = : B D w > ",
"$ # $ # # @ @ O @ 6 & # # O o # & # @ . # = & 6 o X # O @ @ @ O O O O @ @ @ @ # # # # @ @ O O O X # : @ O O @ ; ; # : : : $ $ # @ @ O O O O O o # # X O # # ; 2 3 & & ",
"; @ $ ; $ @ o # O X X o o > 6 O # O # & # 1 1 7 $ # O # # # # O O O O @ @ @ @ # # # # @ @ O O O O # O X O O @ O O > 1 z = ; # # # # O O O O O O # X = c $ # O 1 ; : $ ",
"& o : $ $ O # = O @ @ . # O o # @ @ # ; _ <.6 O # @ # @ #  .O O @ O @ # # # $ = # @ ; $ O O o O # @ O # # # X # = X w 2.V : @ # @ @ @ O O O O O # O O # $ . o ; & # & ",
"; ; i = ; = X # # O O # @ o O @ # # # $ 6 w 1 ; # # # O   8 # @ @ O O O O O # = @ $ 6 = # # @ @ O O O O . 6 X > $ X : w 1 = & = @ @ @ @ O O O O @ @ @ o # # w . & $ # ",
"O ; R = = = & # # @ O O # 1 : # # # # # = & 8 ; # # # o ; o @ O @ @ @ & = = ; $ O # ; ; # # # O O O O #   -.; . # = & # # $ o O @ @ @ @ O O O O @ @ @ @ # X o $ # # @ ",
"# C :.s ; X X $ # # @ X @ > $ @ # # # # @ X = $ # # # # X $ O @ @ @ @ # # # $ : u ; ; # O O @ O O O O o #   @ = # & & o ; X o O @ @ @ @ O O O O @ @ @ # # O X # O O o ",
"h <.e./ s > ; = # O O O @ O X O # # # O ; @ X @ X O # # X X o O @ @ @ @ H w & i $.e ; # # ; $ @ O O O # O # O = O o # # o X =.X O @ # @ O @ @ O @ @ O # O O # # O O O ",
"= r #.; = . # O o @ @ & O # o O @ # # # & # # # & O O O O O o O O @ # X > = ; y ' 9 3 & $ + # @ O O O @ @ @ @ O O @ O O # X 6 o O O @ @ O @ @ # o @ & @ @ O O # @ = X ",
"= . H ; 3 # = @ o # o . O O O O O @ # @ X & $ O # # X O # o $ # O @ # o ; # @ 3 - , ; O ; ; ; 6 @ @ @ @ @ @ @ 1 1 O O @ $ o o O O O O O O @ @ # # $ & = # # # $ @   O ",
"O @ w o > @ O # # $ 3 1 O o # O O O @ # O @ o # o $ > u # O O o O @ # O = # > = : = : = $ @ # @ @ @ # @ @ @ @ O O @ O O O X # o o o O O O @ @ # = = = ; & & = ; . @.1 ",
"O > O = : # # o & o c w O O # o O X O # @ O o . $ # X @ # X k ; O O @ O $ $ $ # # = # # $ $ $ $ O # O = O O O = # o @ O @ O # O l . # @ @ # # = O ; ; 3 1 @ # @ @ X O ",
"@ $ @ $ $ $ # # $ o # # O O O = O . # # O O O X ; = $ ; # & O O O O @ @ @ # # # # # $ @ @ @ @ @ @ O @ X ; O # @ # @ O O O O O 1 %.  . ; @ # # = & 3 3 ] : : # @ # @ O ",
"# # # $ $ @ @ # # # # O O O O # O ^ r @ O O O $ O @ ; 2 1 o @ O O O O O O O # $ $ $ $ # @ @ @ @ $ O = = O ; O # # # @ O O O O X   = O X @ # # # = : v 8.7 & > # # @ O ",
"$ @ $ @ @ @ @ @ O & O O O O O . O c > O O O O @ & ; D ] 1 = # O O O O O O O @ # # # # # @ @ @ @ # = ; @ 1 # # = # # # @ O O O o X . @ # @ # # O $ = ; 3 & # = = # @ O ",
"# + $ # + + o & # # X O O O O # o = # O O O O = # > 2 2 : ; & o O O @ O O @ @ $ # @ @ @ @ @ @ # # = ; ; : : ; & # # @ o O O O = $ O # o o X o & & ; # ; O O = = @ @ O ",
"O @ # O # # ; X $ o o @ @ @ O O O O O @ O O O . $ # 1 ; 8 @ > O @ @ @ o # # # # O O O O O @ # # = = ; 6 ^ 1 ; O & o : # @ @ @ @ O O O O $ z H . # # # # # # # @ O O O ",
"O @ # $ # # ; 1 O # $ # @ @ O O O O O @ O O o 1 # ; # = O = # @ @ @ @ # 1 o = X O O O O O @ # O & # 6 $.w.C = ; X o o # @ @ @ # # # # # O o o @ O O O @ # # @ @ O O O ",
"O @ # O # # 1 1 ; # # @ @ @ O O O O O @ O O O U $ o o o $ X O @ @ @ @ > R X # O O O O O O @ # O ; ; ; > s 1 & @ # . r & @ @ @ # & & & ; # o # # # # # # # @ O O O O O ",
"O @ # $ O : ;.%.# = o O @ O O O O O @ @ @ O O O O # # $ X $ o o @ @ @ O @ o # # O # @ # O O O O X O = ; 1 # = = o X / = @ O @ # = ; : ; # O O $ $ $ O & # O o @ O @ O ",
"O @ # @ = @ 6 1 1 & o O O O O O O # # O X @ # @ @ @ @ # c = X # O @ # o ; & $ = # o o # O # # = $ $ & # ; & $ # $ O o # O O # ; O / L : $ # @ @ # X # . r O = # O o 6 ",
"O @ # # = o = ; O @ # O O O O O @ # # ; = O # @ @ @ @ o o # O @ O @ # # ; s 1 ; # @ o o O O O $ $ $ $ $ $ $ $ $ O @ # o O @ # @ ; : > & # # O o X X @ X ; # X # # > &.",
"O @ # X ; @ # . $ # # # O O O @ # # $ # # = o O @ @ @ # # o X O O @ # = 7 ) 3 # # # # 1 O @ o + @ @ # $ # $ $ @ $ O o # O @ # # # ; ; # # @ O X X o @ @ X # O X & = > ",
"@ @ # O @ # # # ; # # @ O O O O $ @ 1 ^ : # & o @ # # X X = @ # @ @ @ ; ; ; = = @ o 1 U X $ # # @ @ @ @ $ ; X 3 O O # O X # # X # O o # # @ O O _ @ O o . O O = o O o ",
"@ @ @ = O . # # @ @ @ @ @ @ @ # # @ 1 w $ ; X # @ l 2 @ @ @ @ @ @ @ @ # # # # # @ O O O @ @ @ @ @ @ @ O @ @ . e X O # X O O 1 = @ @ @ @ @ @ @ # # # @ @ @ @ @ @ @ @ @ ",
"@ @ @   Q ; O # @ @ @ @ @ @ @ O O # @ & ; # # @ = . X @ @ @ @ @ @ @ @ O O O O # @ @ O O @ @ @ @ @ @ @ O X X # O . O @ X = O L 6 @ @ @ @ @ @ @ # # # @ @ @ @ @ @ @ @ @ "
};
