/* XPM */
static char *_25e1d0d98bb47d4def5755bf72c4bc08CJZqeh0D1V19XUc[] = {
/* columns rows colors chars-per-pixel */
"83 83 256 2 ",
"   c #18142E",
".  c #151334",
"X  c #1A1633",
"o  c #1D1936",
"O  c #17153A",
"+  c #1A163D",
"@  c #1D1A3C",
"#  c #211B3C",
"$  c #201A35",
"%  c #26213D",
"&  c #1C1642",
"*  c #1D1B44",
"=  c #1D1C4C",
"-  c #1F1749",
";  c #1D1E52",
":  c #1F1A56",
">  c #221D45",
",  c #221C4C",
"<  c #271D45",
"1  c #231D53",
"2  c #241D5B",
"3  c #271D55",
"4  c #1E2148",
"5  c #1E2154",
"6  c #1E245A",
"7  c #1E285F",
"8  c #24224B",
"9  c #2B234D",
"0  c #262146",
"q  c #31244C",
"w  c #302147",
"e  c #222155",
"r  c #2A2354",
"t  c #23235B",
"y  c #2A235C",
"u  c #23295D",
"i  c #2B2A59",
"p  c #332653",
"a  c #3C2B5B",
"s  c #372857",
"d  c #2E325A",
"f  c #251E63",
"g  c #281E6B",
"h  c #291F72",
"j  c #1F2962",
"k  c #1F2761",
"l  c #252662",
"z  c #2B2563",
"x  c #242964",
"c  c #2B2A65",
"v  c #2B266C",
"b  c #242C6A",
"n  c #2B2B6B",
"m  c #26236B",
"M  c #322965",
"N  c #332B6C",
"B  c #392C68",
"V  c #2A316B",
"C  c #363369",
"Z  c #2C2474",
"A  c #262F72",
"S  c #2C2C73",
"D  c #2D297B",
"F  c #332D73",
"G  c #352C78",
"H  c #2B3274",
"J  c #2C337B",
"K  c #273276",
"L  c #343174",
"P  c #3B3274",
"I  c #34337B",
"U  c #3C347C",
"Y  c #373A7D",
"T  c #432D5D",
"R  c #452D5A",
"E  c #432D63",
"W  c #482F63",
"Q  c #4C3263",
"!  c #473369",
"~  c #523466",
"^  c #56376C",
"/  c #473778",
"(  c #543A7B",
")  c #593A77",
"_  c #432F70",
"`  c #633E7C",
"'  c #663E7A",
"]  c #554477",
"[  c #69417C",
"{  c #77467E",
"}  c #3E4076",
"|  c #332887",
" . c #2D3A85",
".. c #343482",
"X. c #3C3583",
"o. c #343B84",
"O. c #3C3B83",
"+. c #353D8A",
"@. c #3C3C8C",
"#. c #36318E",
"$. c #392A97",
"%. c #3B3794",
"&. c #2F2C82",
"*. c #3E2CA5",
"=. c #433C8B",
"-. c #4A3D8D",
";. c #453A85",
":. c #543D83",
">. c #5A3D86",
",. c #473D93",
"<. c #533F95",
"1. c #633E83",
"2. c #4435A7",
"3. c #4B38B6",
"4. c #4935B0",
"5. c #3B418C",
"6. c #36428B",
"7. c #324394",
"8. c #3A4798",
"9. c #314694",
"0. c #394CA4",
"q. c #3B54A6",
"w. c #44428C",
"e. c #4A438C",
"r. c #5A438C",
"t. c #564389",
"y. c #434493",
"u. c #4C4493",
"i. c #4A4A95",
"p. c #4C459A",
"a. c #4D4A9A",
"s. c #44489A",
"d. c #534494",
"f. c #53459B",
"g. c #544B9C",
"h. c #594797",
"j. c #53529B",
"k. c #6B4284",
"l. c #68448A",
"z. c #764888",
"x. c #634493",
"c. c #6C4B9C",
"v. c #694898",
"b. c #744B9C",
"n. c #784A95",
"m. c #66519D",
"M. c #7A519A",
"N. c #7F518F",
"B. c #4A49A5",
"V. c #554CA2",
"C. c #5B4CA3",
"Z. c #5948A6",
"A. c #4758A9",
"S. c #5B52A5",
"D. c #5755A9",
"F. c #5758B5",
"G. c #4C51B3",
"H. c #644EA5",
"J. c #754EA2",
"K. c #6757A9",
"L. c #7C53A4",
"P. c #7657A9",
"I. c #695AB5",
"U. c #775CB3",
"Y. c #5764B6",
"T. c #5166B0",
"R. c #6865B7",
"E. c #7C64B4",
"W. c #7665B7",
"Q. c #7068AF",
"!. c #563DC8",
"~. c #5C46C8",
"^. c #5C54C5",
"/. c #6C53D5",
"(. c #6C54D3",
"). c #5564C1",
"_. c #7967C7",
"`. c #7974C6",
"'. c #716ED1",
"]. c #7959E4",
"[. c #6E50E1",
"{. c #7E63E0",
"}. c #844D89",
"|. c #824D96",
" X c #895598",
".X c #8F5795",
"XX c #A3689D",
"oX c #8658A8",
"OX c #945CA9",
"+X c #825EB5",
"@X c #965DB1",
"#X c #9962A8",
"$X c #8B65BB",
"%X c #846CBB",
"&X c #8B6BBC",
"*X c #8665B6",
"=X c #936CBC",
"-X c #9968B8",
";X c #8A73BD",
":X c #9C73BC",
">X c #9573BD",
",X c #8B65AD",
"<X c #A669AB",
"1X c #A76BB7",
"2X c #A875BD",
"3X c #B576B9",
"4X c #BB7AA9",
"5X c #9B6098",
"6X c #876BC3",
"7X c #966EC3",
"8X c #8776C6",
"9X c #9373C4",
"0X c #9C73C3",
"qX c #9878C9",
"wX c #977AD9",
"eX c #8771DA",
"rX c #A374C4",
"tX c #A47CCA",
"yX c #AC7DCB",
"uX c #A979C5",
"iX c #B67AC6",
"pX c #A578D0",
"aX c #9677E9",
"sX c #8F6EEC",
"dX c #C07FC7",
"fX c #C889B6",
"gX c #9881CD",
"hX c #8A88D3",
"jX c #9988D5",
"kX c #8888CC",
"lX c #AB83CB",
"zX c #B383CD",
"xX c #BA86CC",
"cX c #A786D7",
"vX c #BC8CD4",
"bX c #B587D4",
"nX c #AB97D9",
"mX c #AD90E9",
"MX c #B7AAE9",
"NX c #9D8DE3",
"BX c #C486CB",
"VX c #C38DD4",
"CX c #C895D7",
"ZX c #D399D5",
"AX c #D294CA",
"SX c #DBA7DB",
"DX c #DFACD3",
"FX c #E1ABDB",
"GX c #E6B7DE",
"HX c #CAAFEB",
"JX c #E7B9E1",
"KX c #C394E1",
"LX c #D5CAF5",
"PX c #E9D1EF",
"IX c #F4EFFC",
"UX c #AF81BD",
/* pixels */
"O = O O O O O & , & & & & & - - & , 1 1 1 , , , - i , > 1 , 8 , , 1 t t l l m v m m m z v N z 2 2 1 1 , ; e , - e , 1 1 y r 1 e t r 1 1 , > , - , 8 , - & & + + + @ + ",
"+ & 1 = & + + > - & & & & & & , , , , 1 1 1 1 1 , 8 & & , , , - - 1 t l t : t z l l l t l z z z t 1 1 1 1 1 , , e 1 1 1 y y t z y e 1 1 , , , , , , , , > + @ + @ @ + ",
"- = n = & + & - 1 , - - = , 1 2 1 1 , , 1 1 1 1 - - - & - , r , - 1 z Y c u t e 2 2 t t 2 t z c u 2 t 1 1 t 2 = e 1 , 1 y z y N c y y y y 1 , , 1 , , , - & + & = - + ",
"2 1 ; & & , , - - , , , 1 1 m Z 1 , 1 y y 1 2 y y & - & & - , r , , 1 t e 5 ; = e t 1 1 1 t 2 t t 1 2 1 1 1 1 1 e , t y z c z z z y y c c 1 , 1 , , , , * , > , , - & ",
"D 2 ; 1 1 = - - 2 2 2 1 2 1 2 z 1 1 1 1 1 t y 1 1 = , - & , - , = : = = = = = = = ; = ; ; : : ; : t t t 1 1 e t e e c z z c n c z z y y y y y y e , > - - , , 1 , , & ",
"Z 2 : 2 1 1 1 1 2 2 f 2 2 1 2 1 1 1 1 1 1 1 1 - - 1 - - * = - = = = = = 5 = * = = = - = ; ; ; ; 5 t 6 5 1 t e x e 1 y z z n N M c z y y y y t 1 1 , > - - - 1 r e - & ",
"v 2 1 : : 2 2 2 2 2 2 2 2 2 2 2 , 1 1 1 1 , , , - , - - - = = - = = = = = = = = = 5 5 5 5 ; : 6 t t t 5 t t e t t t M N N F F F M z y y z N N 1 , , , e , , , , > + + ",
"f : 2 2 2 2 2 2 f f 2 f f f 2 2 1 ; ; 1 1 1 - = - - ; - 1 5 = = = = = = * = = = = 5 5 5 5 e 5 6 6 t l 6 t t t t 2 y z N N N F F N c c z y z z 3 1 1 e 8 , , > - & + O ",
"f f f f f f v f f f f f f f 2 2 2 1 1 ; = , - = - - = * = x = = = * = = = 5 ; = = = = = 5 5 5 6 6 t l t t t u t m c c N F N N N N c z z z y y y 1 1 8 , 8 , - & + + O ",
"f g g g g h Z g g g g f f 2 2 z z 1 : ; = - - = = = = = - t t ; = = = = = e 5 6 5 5 5 5 5 6 5 t t t l l x 1 u m D n n N G M c z F M z c z y y 3 1 , 1 8 r = - & + X O ",
"g g Z D Z Z Z Z Z D Z g f f f l t : : : = = - = = = e t = ; e ; = = = t t e 5 t t 5 5 5 6 u 6 x t l t l l 2 t m S L ;.U F N c y z y z c z y 2 1 1 , 1 e e - & + o X . ",
"h Z | | | | | | | %.| Z m v m f t t t 2 ; ; = = = ; 5 u = ; = = 5 u 5 e e ; ; 5 t 6 = = 5 6 6 t t l t t t t t l m n ;.L c c z c z y y z c y t t t 1 , e - - & + . X . ",
"| | | | $.$.$.| | #.| D Z Z v v S m t t e ; = = ; u t t 5 m 5 = 5 t e 5 = = 5 5 6 5 = 5 6 6 6 6 6 t t t t t t z l z F n t y z M z z y t u t t u u ; = 1 , - + X . . . ",
"$.$.$.$.$.$.$.$.| | D D D Z m S G m t t e 5 ; ; 5 c l t u n 5 ; ; ; 5 5 = e e 5 6 6 6 6 6 u 7 7 7 6 6 t t t t m l c n n t z v M z y 2 1 1 2 t t 1 = = , , * O X X . . ",
"*.*.$.$.$.$.$.$.$.| &.D D Z m v v m t 6 5 5 5 ; ; u u t t t 5 ; 5 ; 5 5 5 5 5 5 6 u 6 6 6 7 l x l t 6 5 t 2 1 t l c n n t t c n z 3 y y t t t t 1 = - - * + O X . . . ",
"*.4.2.*.2.2.2.2.$.%.#.&.D Z m m m l t t 6 5 5 t 1 e 6 5 5 x t 6 6 6 6 6 6 6 5 5 6 6 6 7 6 6 7 l l t t 5 t t t t l l c l 1 2 2 z z 2 z c z t u t t 5 - - * * + O X . O ",
"3.3.3.4.4.4.4.2.2.%.%.#.&.S v m x x t t t 5 5 u e 5 5 5 6 V u t 7 u 6 7 l l u 6 6 7 j j 6 7 x x l b t e t t e 1 t t t x t t z z z l c c l t t t e e = - * = + O O O * ",
"!.!.!.3.3.3.3.4.4.2.%.#.&.J S b x x l 6 6 6 6 5 ; ; 5 t t x x t t x V H b j b x 7 j j 6 6 j b b b H l t l t t t t u t l t t c z t l c c l t t t 5 = = * & & + O . X * ",
"[./.~.~.~.~.~.3.3.4.2.#.&.S S n l l t t t t u t 5 5 t t x b x l x H 5.o.b x b j 7 j j 7 7 j j j b b x u u t t t u l t t e t 1 1 1 t l x l l t u t = = - & + + O . . . ",
"[.[././././.~.~.~.3.2.#...S S S n m l t l l c l l l b H b b b x b H 6.H x b x j j b x 7 7 7 x j x x x c t e t u l l l t e 1 1 ; 5 t t t t l t t e = = = * + @ + O . X ",
"[.[.].[.].[././.^.G.2.#...D D S S n b x l l l l b K o.s.J J A b x b b b j b b j j j 6 6 6 7 u 7 t t t 6 t t t t l l n t 1 ; e e t t 6 t t t t 5 = = e 1 * & * + + O . ",
"[.].].].].].].(.^.G.B.%.#...I G I I S b n m x n H I @.a. .o.A b b b b x j b b j k 7 7 k j j 7 7 k x x 6 x m t t m x n t t : t e t t : 5 t t t ; = = = = - & & + + & X ",
"sXsX].].sXsX{.(.^.G.G.B.%.%.........I L S n n S H L o.I o.o.H b A A b x x 7 l b j x x b A H j 7 k x 7 6 x n x l c z l c u t e e e e 5 ; ; t t e e e = = = * * * @ @ > ",
"aXsXsXaXaXaXeX{.(.^.F.G.B.,.,.=.;.O.;.w.U U O.@.Y I O.O.O.5.K H K b b b b k k b b j x b A K b x x x l k x l l x t m u u u c t e e ; ; ; ; z z ; ; = = , , 5 - * + & - ",
"sXaXmXmXmXmXNXeX'.(.'.).B.B.p.u.e.-.u.-.e.d.u.w.=.O.w.i.w.@.J K A  .J b b b b b b j b H o.Y V b x l x l t t u u t l t z n l t ; 5 5 t e 1 t t 1 , , = 8 > , - , & + * ",
"sXaXmXHXHXHXMXNXeX'.hX'.F.Z.V.V.f.g.g.h.h.m.g.g.u.w.i.w.y.@.o.J A K K K b b j b b b A A b b H b k l x t u u c u u t t m v t e ; e e u t e t e , , , , , = & & & + + & ",
"aXmXMXLXIXIXLXmXNXeX'.^.I.I.I.D.S.K.K.S.K.E.P.K.S.g.h.g.a.y.@. .J J K K A b b A A K K A A A b b b V x l n n I l u l l l l t t e e e r r e r e , , , 1 , , > > & + & + ",
"aXNXHXPXIXIXLXMXNXwXeXeX_.W.I.I.I.I.W.I.;X>X%X%XE.U.K.S.V.g.5.o. .J  .J K A K o.5.+.6.6.H H A A H V n b n H n c z n n b S I n t e u C C y y r r , , 1 , - + + + + + & ",
"aXNXMXLXPXPXHXMXmXcXwXwX9X6XU.U.U.U.I.W.%X>X&X&X9XqX9XQ.I.S.s.y.+. .J K K K J o.6.5.s.s.6.o.K J H b b H V n n H n n n n S n n c y c C c P C 1 r y r , , - & & + + & + ",
"aXaXmXHXHXHXHXMXmXbXbXcXpX7X6X6X6XW.U.U.&X>X=X9XlXvXvXcX6XI.V.y.+.o. . . . . . . .6.s.A.s.o.J J H H Y I I I I O.S L S F L M M c c c y y i c y y y 1 , , - & e + + * & ",
"sXsXaXNXmXmXmXmXmXvXKXvXzXyXyXpX0X7X6X0XyXlXrX0XxXCXCXHXgX6XK.a.8.+.7.7.7.7.+. . .8.R.kXY.5.o.Y Y I I Y i.T.a.@.O.I O.U F M M z M z y y y y y r r , 1 3 , > & + & > > ",
"eX{.eXaXjXNXmXmXKXSXSXSXZXVXVXVXxXyXyXxXVXBXyXrXzXCXSXZXbXqXW.V.B.B.8.8.9.8.7. . .8.A.T.A.+.o.o.o.Y O.O.@.a.D.y.O.L U U N M c z z z z y s y M M , e y e e , > > & @ # ",
"(._.eXwXwXwXcXbXCXSXFXSXSXSXSXZXVXxXBXZXCXxXrX0XpXzXCXCXvXqX6XI.G.B.0.0.0.0.9.7.+.6.7.8.7.o.o.o.Y O.w.e.5.u.i.O.U L L L M M M z M M M y y r r r 3 3 z M c , , , > > > ",
"^._.wXmXmXwXwXcXCXSXGXSXSXSXJXJXSXZXZXSXSXVXuXrXtXyXVXVXbXqX8X_.Y.G.A.0.0.8.7.7.7.+.+.+. . .o.o.Y O.w.e.u.e.e.U U L N N M M F F N P N M y y r r 1 y U h.v 1 , , > > < ",
"F._.cXLXHXmXwXpXCXSXGXFXSXGXPXPXGXDXDXFXSXCXzXzXbXzXvXvXbXqX8X'.`.'.).q.0.8.9.7.7.7.+.+.o.o.o.o.o.O.w.w.u.u.;.U U L M M L N N P N M M M M i r e 1 r M P y , , , > , < ",
"G._.jXHXHXcXwXpXvXSXFXFXJXPXJXSXZXAXZXFXSXCXvXvXvXvXVXVXzXqX8X8X`.'.).A.0.0.0.8.7.7.6.+.o.o.o.o.O.O.O.O.w.u.w.U U F M N U P N N M M M M M c y e 1 1 1 3 , , < > > 9 < ",
"Z.I.6XcXcXwXqXvXZXSXSXSXGXSXZXBXiXuXVXFXFXZXvXvXVXCXVXVXyX9XqX8X_.).Y.A.0.0.0.8.7.6.6.6.5.5.5.5.5.5.w.5.=.w.i.;.U P P P / P P P N N M M N F n y e , r , , < > > > < , ",
"2.Z.I._.6X6X6XCXCXvXxXVXZXVXBXiX:X:XxXCXSXZXCXVXCXCXCXVXlXqX9XqXW.Y.Y.A.q.0.q.0.9.7.6.6.8.s.8.8.y.y.y.O.O.w.i.u./ / / _ r.:./ P B B / ;.U X.L y r , r , , , > > > , 8 ",
",.p.H.I.I.U.7XzXlXrX7X0XiXiXiXrX-X$XrXxXCXCXCXvXVXCXCXVXbXtX9X6XW.Y.F.A.q.q.q.0.9.9.8.8.s.s.s.s.s.a.a.=.=.e.d.d.;./ / / r.r.:./ P / -.d.=.U L y r 9 8 , 9 9 < < , r , ",
"#.,.p.S.H.U.7XtX0X$X$X$X-X:X0X=X$X*X$X0XlXvXzXyXbXvXvXbXlXtXqX9XW.R.Y.A.A.q.q.0.0.8.8.A.A.D.D.D.D.V.g.u.w.d.h.t.;.;./ / t.r.r.>.:.:.-.h.C.h.;.N y r , , , r r 8 e r < ",
"&.X.=.i.f.C.U.=X$X+X+X+X*X$X&X&X$X*X+X$X9XtXrXrXlXyXtXrXtXlXtX0X%XQ.Y.T.T.T.A.q.q.q.A.A.Y.R.F.R.R.I.S.g.u.g.h.t.t.d./ :.t.r.x.x.v.r.d.H.8X8Xg.C y y , , > 8 y r r 9 8 ",
"D D ..X.=.u.g.P.P.P.P.P.U.*X9XqX9X6X*X*X$X0XtXtXyXtXqXqXtXtXuX>XE.R.T.Y.Y.T.T.A.A.A.T.Y.R.R.`.kXhX8XR.S.h.d.d.d.t.d.;.:.r.v.b.b.L.J.v.H.9X;Xd.N M y , , , 8 r r p 9 9 ",
"D Z S G ..@.-.f.g.H.H.H.P.*X9XqXqX9X6X*X6XtXbXyXyXlXlXqX0X0X:X&XQ.K.Y.Y.Y.T.T.T.A.T.Y.`.`.`.jXMXHXnX`.I.g.d.d.r.r.:.e.:.r.b.oXoXoXoXL.J.H.m.:.B y r e r 8 9 r p p r r ",
"D S S S I ..=.-.u.d.h.H.U.$X7XqX9X0X0X0XqXbXbXzXzXbXcX9X9X&X=X*XQ.K.F.Y.Y.T.T.T.F.Y.`.hXhX8XnXLXLXMX8XK.C.d.m.v.v.x.r.:.:.v.c.b.oXoX@XL.x.:./ B y r r y r 9 p p p 9 r ",
"Z S S S G I X.=.-.-.d.H.U.&X7X7X7X7XrXuXyXbXxXvXxXzXlX&X>X=X>X*XK.K.R.W.R.R.Y.Y.R.R.`.hX8X8XjXMXHXnX6XU.H.m.b.M.b.b.v.:./ :.:.r.oX-X-XoXx.( _ B s y r r r p p p q q p ",
"m S Z Z S I X.X.-.u.d.H.P.*X$X$X&X=X0XrXyXbXVXVXxXzX>X;X>X3X2X;XE.E.W.8X`.W.W.W.W.`.8X8X`.`.8XjXjXgX6XU.P.J.L.oXM.M.b.r.:.( ( :.b.@X@XL.x.:._ B B ! r 9 p s a s s s s ",
"v v S S S I U ;.e.d.d.h.H.P.+X$X$X$X=XrXuXxXVXVXxXzX:X=X:XUX>X>X;X&X;X;X;X8X8X8X8X8XgXqX6XW.6X8XgXjXqX%X*XoXoXoXoX XM.l.l.r.>.:.v.OX@XoXv.l.) E ! ] s p s a a T T R a ",
"v v S S n F I X.-.-.<.d.H.P.*X$X=X$X&X0XrXyXxXxXxXuX:X>X2X:X;X=X=X&X&X;X%X;X9XqXqXqX9X9X&X&X&X9XcXnXqX9X+XOXOXOX#X#XOXM.N.N.z.l.M.1X1XOXl.l.] W E E B s s a T E T R R ",
"Z v v v n n F U ;.e.d.h.K.U.+X*X*X*X$X=X0X:XrXrX2XuX:X:XlX2XrX:X>X&X%X%X%X&X9XqXqXqXtXrX=X=X=XrXuXuX=X$X,X-X<X<X<X<X#X#XXXXX.Xz. X3XiX@Xn.) ) ! W W E a a a E ~ Q ~ ^ ",
"Z Z v F G S F U X.-.f.C.I.W.U.I.P.U.&X=X=X$X$X$X:X2X2X>X:X:X>X&X*XE.%X&X*X*X9XqXlXbXxXiXuXrXuXiXiXiX1X-X-X1X1X3X3X1X<X<XfXfXXXN.n.1XiX@Xn.1.^ ^ ~ W E T a E ! ^ ~ ^ ~ ",
"Z F F G X.I X.X.=.-.f.S.K.K.K.K.I.U.=X=X&XE.E.*X:XlXuX=X*XE.Q.U.U.E.E.%XE.E.&XtXzXzXiXiXiXiXiXiXBXBXiXiXiXiX3X3X3X3XfXfXfX4X5Xz.n.@X1X@XM.k.` ` ) W W E E ! ~ ^ ~ Q ~ ",
"G G X.X.g.=.X.X.=.-.u.f.f.f.V.H.I.E.0X0X;XE.W.;XlXvXuX&XK.m.K.K.K.Q.W.Q.Q.P.&XtXzXyX2X1X1XuXiXBXZXZXBXBXBXiX<X1X3XAXDXAX4X#X}.z.M.@X@XOX|.z.k.1.` ) ^ ^ ) ) ) ] ~ Q Q ",
"G G ;.=.=.=.=.;.=.-.u.f.f.g.j.S.K.U.$X9X9XE.I.E.gXnXlX%XK.K.K.S.j.S.I.I.Q.E.&X:X2X2X1X1X1X2XBXZXFXFXBXdXiX1XoX@X3XAXfX3X<X Xz.` z.|.|.M.n.k.k.[ [ [ [ [ k.l.l.) E Q Q ",
"S F X.X.U U X.=.,.<.f.p.p.S.S.a.V.K.U.U.U.U.E.%X9XgXqXgXK.Q.R.S.a.S.S.S.K.U.&X=X1X2XiX3X1XrXiXBXZXZXdXiXrXoXb.oXOX1X3X<X<X.Xz.` k.z.n.n.z.[ [ [ ' { { z.z.z.l.^ a a T ",
"v F G G U U U ;.,.<.f.f.f.V.V.a.f.C.H.K.U.E.%XW.gXHXgX;XW.W.K.S.g.a.V.D.K.U.*X,X:X2XiX3X2XuXBXAXBXiXiXiX@XoXb.J.b.n. X X X}.z.` l.z.n.n.z.[ ` k.z.}.}.}.{ [ ~ E s q p ",
"F G G X.G G U ;.,.f.f.f.V.V.f.f.V.C.K.H.K.U.U.W.8XjX%XW.K.S.j.g.u.y.i.i.a.S.U.*X=X2X1X<X1X1X3XBX3X2XrX-XoXb.J.x.1.l.l.l.k.k.k.k.z.n.|.|.z.k.[ k.z.}..X.Xz.' Q a p s r ",
"F U U G F G U ;.,.f.Z.Z.C.Z.Z.V.C.C.H.K.K.K.K.S.K.R.I.S.S.V.i.a.i.y.i.i.i.S.K.P.*X-X1X#X#X1X3X1X1X1X@X@XoXb.c.1.>.>.>.>.) ` ` k.n.|.|.|.z.k.k.k.z.}..X.Xz.~ E a p p s ",
"z n n L N F ;.-.<.<.f.Z.Z.Z.Z.f.V.C.C.H.H.C.S.g.g.S.S.V.a.i.u.i.i.j.a.a.a.g.K.W.*X,X#X#XOX-X2XuX1X@XoXoXoXb.v.x.>.>.( ( ) ` 1.z.|. X|.|.z.k.l.l.z. X Xz.[ ~ T a p s p ",
"z z z F z v L =.<.<.Z.H.C.V.C.C.C.g.V.C.V.g.g.f.u.a.g.f.u.w.y.u.i.Q.K.j.i.i.h.m.K.oXoXoXoXoX#X-X@XoXL.oXoXb.v.x.:.:.( ( ( ` 1.z.|. X X XN.z.l.l.z.|.N.z.' ^ ] a s s s ",
"l l c l c c L u.g.h.<.f.Z.Z.C.K.C.g.g.g.a.g.g.V.S.p.u.,.=.y.y.=.y.i.j.u.u.d.d.m.L.oXoXoXL.L.L.oXoXL.L.b.b.b.c.c.v.:.( ( ( 1.k.z.z. XOX.X XoXoXoX X.X.X}.[ ^ ~ T B a p ",
"u l l t z z N j.g.-.j.g.f.V.V.V.V.V.V.a.a.g.a.a.V.p.s.=.@.s.a.p.p.i.g.i.i.i.h.m.P.oXL.L.J.J.oXoXL.b.b.v.b.b.b.c.J.>.( ( ` ` k.z.z.OX1X<X#X2XlX,X X.X.X}.[ ^ Q T T T p ",
"t l l t t z c 5.Y I O.=.,.p.D.F.D.D.V.a.a.a.=.=.y.,.y.@.5.s.s.a.a.s.i.y.g.f.d.h.c.P.P.J.b.J.L.L.b.c.x.v.v.b.J.J.v.>.( ) ( ` [ z.z. X5XOXOX#X,XM.N.N.N.z.[ ^ Q R E T a ",
"l t u t c n n L L F I O.w.p.V.D.D.V.a.p.y.y.@.@.@.@.8.T.s.8.8.s.s.y.y.w.u.i.d.m.P.P.J.J.c.b.J.b.b.c.c.c.c.b.+X$Xv.>.>.1.k.k.[ k.z.}. X X|.N.N.z.z.l.l.[ ' ~ Q Q Q T a ",
"t 1 t t z z n n F L I o.@.p.D.D.B.B.p.y.y.@.@.@.@.+.6.T.8.8.8.s.B.s.y.=.=.-.d.v.P.P.P.P.c.v.c.v.v.c.J.J.c.b.P.U.v.x.1.l.k.k.[ k.k.z.N.z.z.k.[ [ [ [ [ [ ^ ~ ~ ~ Q T a ",
"e e t t u z n N P I ..o.@.s.D.I.G.B.s.s.8.@.@.o.o. . .5.7.8.8.y.a.u.u.-.=.-.-.d.v.v.c.c.x.x.v.x.x.v.J.L.b.b.J.J.v.x.l.l.1.` ) ` ` ` [ [ [ ) ^ ^ ^ ^ ) ) ^ ~ ^ ~ R a a ",
"t e t t n U L P U U o.@.a.D.F.I.I.F.B.s.8.@.o.I Y J J J  .8.+.8.=.-.-.=.-.-.-.-.<.d.d.d.d.h.x.x.x.c.P.J.b.b.b.M.l.l.1.1.` ^ ^ ^ ) ^ ^ ^ ~ Q Q E T Q Q Q Q Q ~ Q R a a ",
"u ; e t z U P U Y X.O.@.R.`.R.`.hXhXR.B.8.+.o.J J K K J s.+.+.@.@.,.X.X.=.=.;.=.-.-.d.d.d.d.x.x.x.J.*Xb.b.b.b.b.l.l.( ( ( ! W E E T a a a a a a a a a E T R R R R a p ",
"e ; e t z F U U U O.@.y.F.R.R.hXMXMX`.B.@.o.J K K K A S 5...+...X.@.X.X.X.X.X.X.=.h.H.H.m.K.r.r.r.v.P.c.l.l.v.l.1.k.) ^ ! E a s p p q 9 9 q q p p q s a s s s s s p q ",
"= = t t z F U / U X.=.D.G.B.F.`.MXMX_.B.@...S S S S n S J I I I I ..I I Y X.X.X.=.h.K.H.m.m.>.:.r.r.r.l.>.>.r.) ) ( ) ! E a s p 9 9 0 0 8 0 < 0 9 9 q q q w w w q w < ",
"= 1 t t n N P / U U p.I.G.s.B.I.`.`.F.y...S S v S S O.H H H H L S S F F I I I X.O.i.K.Q.h.-.:.:.t.t.t.:.( ( ( ( / ( ! B a p p 9 8 0 0 > > > # # < < < < < < w w 0 < < ",
"; 1 t l c c L / U L =.B.s.@.y.B.D.D.s.@.J S n n S n w.H H c b H n n S S S S F L X.h.W.8XH.d.t.t.( ( ( / / / / / ! _ B a p 9 9 0 > * * * @ @ # # # # # # # # < % # # < ",
"1 1 t z y z P / U F I ........@.@.@.O.J S n m n H x L b x l l V n n n n n n n n I u.Q.Q.i.;.t./ / / / _ ! _ ! B B C s p 9 9 8 8 0 * & @ @ @ # @ @ o o o o $ # $ $ # # ",
"1 e t z y M / / / P L F F H S J J J S n b x l c V t t t t l l x n c n n n c c n F I X.;.U P P P B _ _ _ s s s p p r 9 9 8 8 i i 8 > * * @ @ @ o o o o o o o @ o # # o ",
"1 y y c y M / / P F n n n n n n b b b n n l u u u t t 6 t u u l x x t u c c l m n n F U U N N N M B B C i r r 9 9 9 8 8 8 r M C i r 8 e 8 * @ X X X o o o o o o # @ # ",
"y N M z y M B / P N N n l l l x l t t x c l u u t t t 6 u x c x l t t t l x u t u l c L P M z y y r i i r 8 9 0 8 8 8 > 8 i d C C C i t t , @ X X X o $   X X @ $ # # ",
"c e.P M y M M _ N N n c z t t t 6 6 5 6 6 5 6 : t 6 t 5 5 ; u t t e e t t t e 5 t t u z c z y r e r e r 0 , 0 * 8 * 8 8 > 8 r C j.e.C e 4 @ X X X X o % X X X o X o # ",
"z P N y y y N P M n n c t t t t 5 5 5 6 6 6 5 = ; 5 ; ; ; ; 1 e c e ; ; 5 5 : e e e e e 1 1 r i e r 8 , 8 8 > , * 4 * 4 * 8 i C Q.Q.C 9 0 @ .   X X X       X X X o # ",
"y z y 2 t y z c z z n n x u t ; ; e t 5 5 ; = = = ; ; ; : ; t e u t ; = ; t 5 = = ; 1 e e , , e r r 0 * * 8 0 * 4 * * * * * i d } C d 0 4 @ X X X X         X X o X # ",
"2 y t 2 1 e t y u u n n n n c ; 5 t 5 = 5 5 5 = = ; 1 e 6 1 6 e 5 = = = = e e ; ; e 1 d C 1 1 e 8 8 8 * * * 4 & u 4 * * * * 0 8 r 8 8 0 @ @ X . X       @ @ X o o o # ",
"3 3 e 1 e e t e e u x x l u 5 = ; e u = 6 6 u ; = 5 ; ; = d e e = = * 5 8 e e 1 1 e 1 , , , , , > , 8 * * * * 8 4 * * 0 4 4 4 * > 8 0 @ @ X . X o .   X o X X # @ # 0 ",
"z z c e e e e = ; e z l t 5 ; ; ; 5 5 5 e 5 = ; 5 t = = = = 6 5 5 5 = = 5 e e 1 e e 1 1 1 e = = = 8 = , * > 4 * * * * 8 8 * 4 8 > d 9 * @ o X X X o X   X X o # # @ # ",
"M z y 1 1 u ; = ; e l u 5 5 5 5 5 ; ; = = = 5 5 ; ; 5 ; = = 6 ; = = 1 1 ; 1 1 1 1 e e e e e , e e & * * @ * 4 * * * * * * * > 0 * @ @ @ @ @ @ @ @ @ X   X o o # o X o ",
"t 1 e 1 t e e 5 e e 5 ; = 5 e 6 6 5 ; ; = = = ; 6 ; 5 ; = e t 1 1 = 1 t u e e e 1 e e 1 1 e i y , , - @ @ * @ @ 4 * * * 8 > > > * @ @ * @ @ X X o @ o X o o o o o o X "
};
