/* XPM */
static char *result[] = {
/* columns rows colors chars-per-pixel */
"80 80 208 2 ",
"   c #2B130D",
".  c #2E1611",
"X  c #351914",
"o  c #3A1C16",
"O  c #3C1E19",
"+  c #371C18",
"@  c #3D2117",
"#  c #3D2219",
"$  c #411F1A",
"%  c #401D17",
"&  c #43241C",
"*  c #4B251E",
"=  c #4A281F",
"-  c #47281F",
";  c #462521",
":  c #4C2621",
">  c #462821",
",  c #4D2A22",
"<  c #512722",
"1  c #532B25",
"2  c #592C26",
"3  c #552E29",
"4  c #5B2E29",
"5  c #543126",
"6  c #5A3326",
"7  c #563129",
"8  c #5C332C",
"9  c #5D382F",
"0  c #5E3630",
"q  c #62332E",
"w  c #62392E",
"e  c #6C392D",
"r  c #673528",
"t  c #733A2E",
"y  c #643631",
"u  c #6A3632",
"i  c #653A33",
"p  c #6B3B34",
"a  c #6C3D39",
"s  c #733D35",
"d  c #793D36",
"f  c #733D3A",
"g  c #7C3E3A",
"h  c #6A4037",
"j  c #6D423A",
"k  c #754137",
"l  c #7B4236",
"z  c #74433B",
"x  c #7C433C",
"c  c #7D483E",
"v  c #763F40",
"b  c #754541",
"n  c #7C4542",
"m  c #774942",
"M  c #7C4B44",
"N  c #7E4D48",
"B  c #823F3B",
"V  c #83443D",
"C  c #89453E",
"Z  c #84493E",
"A  c #8A4A3E",
"S  c #834541",
"D  c #894441",
"F  c #844B43",
"G  c #8B4C44",
"H  c #844C49",
"J  c #8C4D49",
"K  c #924C45",
"L  c #934D4A",
"P  c #9B4D4A",
"I  c #944945",
"U  c #8D5046",
"Y  c #85514B",
"T  c #8C524C",
"R  c #865046",
"E  c #935246",
"W  c #995147",
"Q  c #95524B",
"!  c #9B544D",
"~  c #9B594D",
"^  c #8E5551",
"/  c #925651",
"(  c #9C5651",
")  c #955954",
"_  c #9D5A53",
"`  c #9C5E5A",
"'  c #975F59",
"]  c #A24E4A",
"[  c #A2554E",
"{  c #AA524C",
"}  c #A35652",
"|  c #A35B54",
" . c #AB5C55",
".. c #A55D59",
"X. c #AA5E5A",
"o. c #B25C55",
"O. c #9D615C",
"+. c #9F6050",
"@. c #A5625B",
"#. c #AB625C",
"$. c #AB685F",
"%. c #A46359",
"&. c #B1635D",
"*. c #B8655D",
"=. c #A56562",
"-. c #AC6562",
";. c #AC6A63",
":. c #AE6C69",
">. c #A66964",
",. c #B26663",
"<. c #B36A65",
"1. c #B36D6A",
"2. c #BA6F68",
"3. c #AD7066",
"4. c #AF716C",
"5. c #B4736C",
"6. c #B9716C",
"7. c #B5796E",
"8. c #B77469",
"9. c #B47573",
"0. c #BB7672",
"q. c #BB7A74",
"w. c #BC7D7A",
"e. c #B77C75",
"r. c #C17B76",
"t. c #C37D7A",
"y. c #BE837E",
"u. c #C3827D",
"i. c #C7817A",
"p. c #BE8482",
"a. c #C38582",
"s. c #C98582",
"d. c #C48983",
"f. c #CB8A85",
"g. c #C68B89",
"h. c #CC8E8A",
"j. c #CE938E",
"k. c #C5918C",
"l. c #D1928D",
"z. c #CC9491",
"x. c #CE9992",
"c. c #D39592",
"v. c #D39995",
"b. c #D99C95",
"n. c #D49C99",
"m. c #DA9E9A",
"M. c #DA9693",
"N. c #D08E89",
"B. c #DCA29D",
"V. c #D5A19C",
"C. c #E0A29C",
"Z. c #DDA6A2",
"A. c #DDA9A4",
"S. c #DDADA8",
"D. c #E2A5A3",
"F. c #E2ABA5",
"G. c #E4ACAA",
"H. c #EAADAA",
"J. c #E8ABA5",
"K. c #E5B1AD",
"L. c #EBB1AE",
"P. c #E6B3B1",
"I. c #EBB5B2",
"U. c #EBBAB5",
"Y. c #E7BEBC",
"T. c #EDBDBB",
"R. c #E7B9B5",
"E. c #F1B6B4",
"W. c #F2BBB6",
"Q. c #F3BEBB",
"!. c #ECC2BD",
"~. c #E5C0BE",
"^. c #F3C2BE",
"/. c #F7C4BC",
"(. c #EFBFC1",
"). c #EDC5C3",
"_. c #EDCAC5",
"`. c #EDCDCA",
"'. c #E8C6C5",
"]. c #F3C5C2",
"[. c #F3CAC5",
"{. c #F9CAC6",
"}. c #F3C7C8",
"|. c #F3CDCB",
" X c #F9CDCB",
".X c #FAC6C2",
"XX c #EED2CD",
"oX c #F4D2CD",
"OX c #F9D3CE",
"+X c #F6D4CB",
"@X c #F4CFD0",
"#X c #FBCFD0",
"$X c #EED4D1",
"%X c #EED8D3",
"&X c #F5D5D2",
"*X c #F9D5D3",
"=X c #F5D9D5",
"-X c #FADAD5",
";X c #F6DDD9",
":X c #FADDDA",
">X c #FAD6D9",
",X c #F7E1DC",
"<X c #FBE2DD",
"1X c #FBDFE0",
"2X c #F7E4E2",
"3X c #FCE5E2",
"4X c #FEE9E6",
"5X c #FEEBE9",
/* pixels */
"X X X X o # o o & & * * * * < 2 2 2 r r t t k k t t t l d d d g g B B g B g B g g g g f g g g s f f f f a p y y 4 4 3 3 1 2 < < : * $ $ $ O + + + . X .         ",
"o o o o o O & & * $ * * < 2 2 2 r r e e k l l l l Z l V B B B B B B D D D D D D D D D D D D D S V g x g k p a i y y q 4 4 4 4 2 < < < : : $ $ O + + + + X       ",
"o o o % O & O * * * * 2 2 q r r t t t t l Z Z Z A A A A C C D I I I I I L I I I L I L L G G L G D D D c x z z k a a u u u r q 4 2 1 1 , : ; $ O O O + + X X X X ",
"O O O & # O * * < < < 2 q u u s t l l V V Z A A A A A A I I P P ] P P ] P ( P P P ( P P ! P P L L J J D F F Z x z f s u u u u u q 2 2 < : * $ ; $ O + + o o o X ",
"# & # & # & * : < < 2 8 q p s d l V V A A A E W W W W A [ [ [ [ } } } ....................( ( ( ( ( P Q G G G G D B g v d u d u u q 4 2 1 : : $ ; $ $ O O O o % ",
"& o # & & & & : < 1 6 q u p l c Z A A A A W W [ { { [ [ [  . .%.=.=.,.:.1.1.1.1.1.1.1.:.-.=.=.=.O...` _ ! ! ! K L I B B B d v d p u q q 4 < < * ; ; * $ % O o o ",
"@ & & # - - : , 2 6 q u s k M F U U A E [ [ [  .o.%.o.o.%.&.3.0.w.p.s.h.c.c.n.c.v.c.z.g.g.g.p.w.9.:.=...| } ( ! P P D D B B g g f s u u q 4 1 : : $ $ $ * ; % % ",
"# & & - > > , 7 8 q i p k c F U E W ~ ~ [ {  .#.&.*.3.8.r.i.l.b.D.G.L.E.(.(.I.I.I.U.I.I.I.P.G.F.n.g.w.9.<.#. .} ( ( P I I D B v l d f f u q 4 1 : : * : : : $ $ ",
"# - > > , , 3 8 0 y p s x V G T Q ~ | | | #.&.*.2.r.f.M.D.H.I.U.(.(.(.(.[.^.T.U.T.].Q.T.T.T.Q.T.T.K.Z.c.s.r.1.&.X.| ( ( P J G S V V c l f u q 2 1 1 : : * , = = ",
"- > > > 7 3 7 0 y p f g c G E Q ~ [ | #.$.<.8.r.N.C.L.W.W.Q.Q.].(.(.).).!.~.Y.Y.!.].].).T.!.[.[.].T.W.U.L.D.N.t.1.-...( ( L P J G Z F c x f y q 4 2 3 : * * < 1 ",
"- : , 5 7 9 0 y p f x c Z G Q ~ | %.#.$.6.i.j.B.L.Q..X].].}.(.'.).}.).).~.).).).).).).).~.!.).].).~.].].(.(.U.Z.c.t.1.=.| ( ! P K G J F n f p i y 4 2 1 * * < = ",
", , , 7 0 0 0 a f f n D G Q } | #.&.2.q.f.B.K.!.).{.|.}.}.}.'.(.).).).).}.|.).[.).}.[.).).)._.[.).).'.).|.{.}.T.I.Z.h.q.-.#.| ( ! Q K J D c f f p y 6 2 < * * < ",
"5 1 5 9 i a a a f S F J ! _  .#.,.6.i.M.F.!./.!._.+XXX`.`.}.'.(.).`.|.|.*X|.}._.{.`.).).).}.)._.)._.oX_.`.@X`.).(.T.H.m.s.2.-. .} ! ~ U J H S v a i 0 4 1 < = = ",
"5 6 8 i a a v b S J J ~ _ | #.1.q.f.B.E./.+X+X_.XX+XXX`.`.|.|.'.`.|.oXOX*X|.`.`.}.'.[.'.[.).).).)._.`._.`.`.'.'.).T.Q.I.D.N.0.-...| ( Q T J J v f u y 4 5 , , , ",
"6 6 9 i j b b M H Q ~ _ @.#.1.w.j.G.T.].+X+X+X+XXX%XXXXX|.oX&X|.oXoX=X=X&X&X|.`.|.}.`.[.).'.}.].!.)._._.`.`.).'.).).}.T.I.D.c.w.-.@.| ~ ! Q T H v v u 0 6 5 5 , ",
"r w i h b b n H J ~ | @.$.3.w.v.P.].[.[.+XoX%X+X&X=XoXoX@X*X&XoXoX&X=X:X*X*X&X@X*X@X`.).).{.|.|.[._.[.oX`.&X|.`.}.).).(.(.R.P.v.w.;.$.%._ ) L H v v v y 9 5 , 5 ",
"w w h z m M H J Q ` %.;.3.y.v.I.}.#XOX|.oXoX*X*X-X-XoXoX&X*X&X@X&X=X*X&X@X&X>X@X*X&X|.`.|.+X+X-XoX[.|.oXoXoXoX`.`.|.|.}.).~.^.I.n.t.:.$.| _ / T H n b a i 8 7 6 ",
"h h j z M H H Q ~ %.%.3.e.v.I..X X*XoXoXoXoX%X*X>X-X+XoX&X&X&X@X*X*X@X'.'.@X@X&X*X&XoX&XoX[.+X-X-X-X*X+X%XoXXXXX&X+X+XoX}.[.[.^.P.c.w.1.$.| ( Q J H M b j i 9 9 ",
"h j j c F J Q / _ %.$.e.x.I.].{.|.oX|.oX+X+X&X-X-X-X>X&X&X&X&X|.}.'.'.}.'.|.|.|.@X&X*X*X*X`.`.+X-X,X=X*X%XoXXXXX$X&XoXoX|.|.|.}.].P.c.q.;.#.} / ^ Y N m j i i i ",
"h z z c F J Q } %.$.7.h.K.].|.oX&XoX`.XXoX+X-X-X-X-X>X*XoX|.`.`.'.'.@X&X&X@X@X@X`.`.*X+X%XoX`.XX+X=X=X=X%X%XXXXX&XXXXXoXoX|.|.{.}.Q.P.c.6.;.%.%.' ^ Y N b j a a ",
"z z b F G Q ( | $.8.u.A.!.+X+X=X=X+X`.`.XXoX=X-X*X&X&X&X@X&X`.`.|.|.>X;X*X*X=X&X`.`.$X@X=X=XXXXXXX%X=XXX+X%XXX%X=XXXoXoXXXoX|.|.@X}.(.G.h.0.<.$.%.) ^ Y M z j b ",
"m m M G Q ! } #.$.y.V.!.+X+X+X-X,X,XXXXXoX*X-X-X&X@X@X&X|.&XXX`.&X=X:X:X:X:X;X>X&X`.XX&X*X=X*X=X=X=X=XoXXX=X=X=X=XoX&X$X_.XX&XXX@X|.}.Q.B.u.7.3.#.O._ T N M m m ",
"m M Y U ~ _ %.#.7.j.I.[.+XoX=X,X,X%X+X+X&X-X*X*X|.`.@X`.`.=X=X&X=X,X:X>X<X3X;X>X=X$X`.$X=X*X=X=X<X*X=X=X,X-X*X*X*X=X=X@X'.`.&X@X`.@X+X+X!.B.u.8.<.#.%.~ H M N N ",
"N Y / / ~ | #.8.u.F.].+XXXXX%X=X=X=X%X,X-X,X=X*X=X`.`.|.&X:X:X=X%X,X,X,X<X3X3X;X>X;X&X&X*X-X-X*X-X+X=X:X<X<X%X+X*X&X&X@X`.XX>X@XoX*XOX%X/.!.v.r.8.#.| ~ T F M m ",
"Y Y ) ` +.$.3.y.k.!./.+XXXXX%X%X=X-X,X,X<X<X<X-X-X+X+X%X&X>X:X=X%X,X;X,X;X;X<X:X:X:X:X=X&X=X-X*X*X@X*X:X<X:X-XoX*X*XoX`.`.XX=X&X&X=X=X&X&X].F.d.8.*.&.| ) R M M ",
"^ ^ ) %.%.$.8.u.F.!.+X%X+X%X%X%X,X-X-X-X<X<X<X+X,X-XXX+X&X&X*X=X%X=X;X;X;X=X;X:X:X:X:X&X&X&X:X*X&X@X:X:X-X-X-XoX=X=X+X`.XX&X:X&X`.$X&X&X*XoX/.b.q.<.,.#.` T F M ",
"T ^ ` %.%.3.y.x.!._.XX%X+X=X<X<X<X=X-X<X<X,X,X%X=X%X%X+X&X|.@X|.oX=X=X&X=X:X:X;X=X>X;X=X&X=X:XXX|.@X-X*XOX|.oXoX&X-X-X%X&X-X<X<X&X$X&X=X=X*X XJ.i.8.2.$.+.Q G J ",
"J ) %.$.%.y.y.S.[.+X=X,X,X-X<X<X<X-X<X<X<X<X%X,X,X,X,X+X=X*X@X|.XXoX*XXX>X>X1X1X>X&X;X:X&X=X=X&XXX&X*X*X&XoX_.+X&X,X*X=X=X;X3X3X;X$X$X&X*X>X XW.l.q.8.$.| ) J L ",
"Q ` @.#.:.q.x.!.+X&X-X<X,X,X-X-X-X<X<X<X<X<X<X<X<X<X<X=X+X-X&X*X@X>X&X>X&X&X>X=X=X&X=X=X=X=X&X*X=X>X:X*X=X*X*X&X=X-X&X&X;X=X:X3X:X-X&X&X*XOX X^.B.i.8.$.| ~ W Q ",
"~ ` ..#.5.y.A./.-X-X,X<X<X,X<X-X-X-X<X<X<X<X,X<X<X4X<X-X=X&X&X=X>X1X;X=X@X'.`.@X|.&X@XoX=X*XXXoX*X*X*X&X+X*X=X<X,X=X=X-X-X=X-X<X:X:X=X&X|.|.[.].H.u.8.<.#.| ~ ~ ",
"_ %.X.,.7.k.R.XX+X*X-X<X<X<X<X,X<X<X<X<X<X<X<X<X4X<X<X-X&X-X+X=X;X2X1X:X=X@X'.|.oX=X*XoXoXoX|.oX+XoXoX*X-X*X-X,X,X-X-X:X*X*XOX>X:X=X=X&X@X{.[./.I.l.8.*. .~ +.+.",
"%.#.<.r.y.n.!.=X-X-X-X<X<X<X4X<X<X<X4X<X<X<X4X3X4X<X-X,X%X=X=X3X5X5X4X1X1X>X&X&XXX&X*X*XoXoXoX+X+XoX`.}.%X*X+XXXoX&X-X*XoX{.[. X*X&X&X>X=X|.[.[.^.C.r.<.#.~ ~ ~ ",
"%.$.8.y.i.F.+X<X-X<X<X<X<X<X3X3X<X<X<X<X<X<X<X<X<X:X;X:X$X%X;X4X3X1X1X1X2X3X:X>X=X*X=X=X*X*X*X*XoXXX&XoX:X>X}.Y.'.&X-X>X|._.!.'.|.@X&X:X>X X[.[.].L.i.,.X.| ~ ~ ",
"$.$.i.i.u.!.+X+X+X-X-X<X<X4X3X4X<X<X<X,X<X<X,X*X=X=X;X:X>X;X1X5X1X%X$X>X1X1X,X;X;X%X=X=X&X*X*X=X=XXX$X*X:X:X}.'.).oX:X*X[.].).~.'.|.&X:X-X*X|.[.].I.s.<.#.} ~ ~ ",
"$.8.i.i.b./.-X=X-X<X<X<X<X3X<X2X4X<X-X&X-XOX-X*X&X-X;X;X,X;X5X4X;X`.$X%X>X:X=X=X=X=X>X=X=X*X=X:X:X&XoX=X>X>X@X@X&X&X*X&X_.).).). X*X*X>X>X*XoX+X[.U.f.2.#. ./ Q ",
"%.i.i.i.b.+X+X,X=X<X<X<X<X,X,X<X<X-X=X&X+X-X-X+X&X:X>X;X;X2X2X5X;X$X;X1X,X:X=XXX=X:X,X*X&X=X&X:X:X=X*X=X:X*X*X>X>X*X*X|.).].].|.*X-X>X*X*X*XoXoX].U.c.2.X...! ( ",
"3.$.y.i.B./.,X+X=X-X<X,X,X,X<X<X-X<X-X-XoXoX|.oX|.=X*X>X;X;X2X2X;X=X;X>X*X*X&X|.=X=X=X&X&X$X&X:X:X&X&X@XXX&X>X3X:X-X>X*X[.}..X X*X*X*X*X|.XX`.`.|.^.m.r.,...( ( ",
"y.y.i.i.A.+X-X=X-X=X=X=X,X,X,X,X<X-X<X-XoX).).|.@X&X>X,X1X2X2X2X;X>X:X@XoX X|.|.#X*X&X&X$X=X&X=X&X@X@X|.&X;X;X;X:X:X:X-XOX].^.}. X*X|.|.&X|.oX&XoX].F.t.,...( ( ",
"$.y.y.i.B./.-X=X;X;X=X,X,X,X,X,X<X<X<X-XOXoX|.oX|.oX;X3X4X5X5X2X;X;X;X>X>X}.(.(.}.#X*X&X&X;X=X=X@X*X@X&X>X:X>X:X-X-X-X>X{.}.].[.|.|.|.@X*X&X&X+X+X{.L.s.1.X.( ( ",
"y.i.y.i.F.+X-X,X%X%X+X=X,X,X<X<X<X<X<X-X-X>X:X:X&X&X=X<X2X5X5X2X;X;X>X@X XT.P.R.].|.*X-X:X3X,X=X=X@X@X>X>X>X*X*XoX&X*X>X&XOXOX X|. X*X X#X*XoXoXoX].E.i.,.X.( ( ",
"y.+.i.y.C.+X,X,X=X=X+X%X,X<X3X3X<X<X<X-X-X<X<X<X-XoX=X<X4X4X5X1X,X;X>X&X}.(.T.(.{.#X*X>X*X;X:X=XXX`.*X>X1X>X@X).).'.oX*X-XOXOX+X+X+X*X|.*X*XoX`.[..XE.s.<...( ! ",
"%.i.y.i.A./.+X-X,X=X,X,X,X,X<X<X4X<X,X,X<X<X<X-X=X*X=X,X3X4X3X4X2X1X=X|.|.#X*X#X#X#X|.OX*X&X*X&X`.`.*X>X>X>X}.Y.Y.).oX-X-X-X-X:X-X*XOX*X*X*X|._._./.L.s.-. .! Q ",
"%.$.i.i.A.+X+X,X,X,X,X<X,X,X,X=X<X,X,X,X,X<X<X-X,X-X>X;X1X1X2X2X1X=X&X@X|.*X:X>X-X|.}.+X*X|.+X|.|._.[. X*X>X[.Y.'.|.*X-X-X-X<X<X-X+X XOX#X*X{.).].^.H.t.X. .! P ",
"%.y.$.i.V./.+X%X=X-X,X<X,X<X,X,X<X<X3X<X<X,X-X<X<X<X;X;X;X=X1X1X>X>X@X=X|.&X:X;X-XXXXX*XOX|.{. X X|.}.}.#X#X|.`.=X:X<X:X-X-X-XOXoXoX X X X X{.{./.^.H.t.#.| [ P ",
"O.;.5.y.b./.XX%X,X,X,X<X<X4X4X<X<X<X<X4X<X<X<X<X<X;X=X$X%X;X:X:X=X>X$X@X>X$X>X:X-XXXXX*XoX|.#X X[.|.OX[.OXOXOX*X-X<X<X-X+X+XOX+X+X+X+XOX X{.{. X!.!.C.i.,.o. .| ",
"O.@.:.e.b././.%X,X2X<X<X4X4X4X<X4X<X<X3X<X<X<X<X<X;X$X$X;X;X1X;X%X=X>X$X$X>X;X:X=X=X&X|.[.|.*X:X-X*XoX+X+X+X*X-X<X:X-X-X+X-X+X+X+XOXOX-X*XOX X{././.C.i.,.o. .o.",
"O.O.3.7.x./.!.%X%X%X,X<X<X<X<X<X<X<X=X-X<X-X<X<X:X$X$X>X1X2X4X3X1X1X1X=X>X;X1X;X;X=X&X`.|.*X>X:X3X<X=X=X-XOX-X<X<X-X-X+XOX+XOX+X+X+X:X-X*X*X+X/././.C.i.2.*.o.{ ",
"^ ' O.7.p.!.!.~.XX%X-X-X<X-X<X<X<X,X%X+X-X<X<X-X&X&X$X1X2X5X5X5X4X2X1X1X;X>X>X1X:X&X$X$X-X:X-X:X<X<X:X&X+XOX+X-XOX+X+X+X-XOX+X X-XOXOX*X*XOX/./././.l.y.,.o.{ { ",
"^ ' @.:.p.G.)._.XX$X;X=X$X$X;X,X;X=X$X=X<X<X-X=X=X=X=X3X4X4X5X5X3X3X1X1X:X1X1X1X:X;X$X=X,X;X;X,X3X3X:X&X+X+X-X+X+XOXOX-XOX+X+X+XOX[.oXoX*X|.].{..X/.N.8.,.o.] { ",
"T ) =.>.w.S.).}.XX$X%X=X;X&X=X,X,X;X=X;X<X:X=X=X=X:X>X:X3X2X3X3X:X1X1X;X;X>X>X3X3X,X,X<X,X=X=X3X3X2X=X&X+X+X+X-X:X-X-XOX-X-X-X+XOX[.+XoX|.[.[.OX{.W.i.r.,.{ ] ] ",
"^ / ` -.9.v.T.|.`.$X=X;X=X,X=X=X,X<X,X=X=X=X=X:X<X:X=X;X;X;X;X<X:X>X;X>X>X&X1X3X4X5X5X4X;X%X;X2X3X3X<X=X+XOX-X-X:X:X-X-X-X-XOX+X|.+X*X*X*XoX&XOX].J.i.*.X.} P P ",
"H / ` =.4.g.P.}.`.XX$X%X=X=X%X%X=X=X%X=X=X$X&X=X3X<X:X;X;X;X;X;X>X*X>X>X$X&X:X3X3X3X3X<X=X%X,X3X3X3X<X-X+X-XOX-X:X-X-X-X-X-XOX+X|.OX>X>X=X`.`.[./.b.q.&.X...P P ",
"H / ` =.:.9.Z.).|.XXXX=X,X,X,X,X,X;X=X;X=X$X$X;X<X:X:X:X>X,X<X,X=X&X&X=X$X&X:X3X:X&X=X=X=X>X;X;X,X,X,X-X+X-X+X-X-X-X-X-X+X-X+X+X|.oX*X>X&X`._.[.R.f.1.X.} ] P P ",
"J T ) O.>.9.z.(.|.XXXX=X,X<X<X3X3X;X;X;X;X;X;X1X:X<X:X=X=X=X:X:X=X&X$XXX&X=X>X;X&X@X|.@X=X*X;X=X=X*X,X+X+X+X-X&X-X,X-X+X-X-X-XOX|.}.{.@X`.`.`.[.A.w.-...} P L D ",
"H H / ) O.:.p.P.[. XoXoX,X<X<X<X<X3X3X<X;X:X:X:X:X:X<X:X&XXX&X=X:X=X=X&X&X&X&X&X@X}.}.}.#X>X:X:X,X=X=X&X-X-X-X&X-X<X<X<X<X<X-X+X&X`.).'.|.XX`.Y.x.5.#...( L D D ",
"S H ^ / O.>.w.V.].*X%XXX%X%X=X,X;X;X:X;X1X3X:X:X<X3X:X:X$XXX&X;X:X:X,X;X;X&X@X*X*X>X}.).#X:X:X:X=X*X=X-X-X-X+X-X:X<X<X<X<X-X+X+X|.}.).'.`.|.).K.p.>...( P J S S ",
"v N Y ^ ' =.9.g.W. X&XXXXXXX=X=X<X3X3X:X:X:X=X;X;X:X>X|.`.XX*X-X=X:X<X;X=X&X&X&X*X#X}.}.}.>X:X<X=X+X+X-X,X=X-X:X:X:X:X<X:X-XoX|.|.|.|.|.&X`.(.n.0.=...P J D S B ",
"v n H ^ ^ O.:.y.Z.}.oXoX$X&X*X:X;X,X;X;X;X>X>X=X:X=X=X&X&X&X*X*X=X:X3X,X;X=XoXoX X{.(.(.[.*X<X:X=X+X-X-X-X*X*X:X,X-X=X;X-X+X|.|.`.oX=X*X|.[.S.a.:.=.` L D S B v ",
"v n N H ^ ` >.9.h.R.'.XX+X%X=X=X=X;X>X&X=X$X=X>X>X*X&X&XoX*X-X>X*X:X:X:X=X=X|.oX|.}.].[.}.&X:X:XoX%X-X,XOX+X-X,X-X:X:X:X-X&X[.oX|.*X*X-X*X(.n.9.-...( J J n v g ",
"v n n H ^ ' =.:.p.V.(._.`.XX%X*X=X;X>X=X&X;X%X>X=X=X&X`._.=X-X*X=X>X:X;X,X=XoXoX|.|.{.|.oX*X=X=X=X*X+X-X-X-X:X:X,X<X<X:X,X+XoX|.|.*X*XoX[.G.g.1.X.} P J D v f g ",
"v v v m Y ^ ` >.9.p.S.~._.XX+X%X;X>X;X;X;X>X>X;X*X&X@X|._.-X*X|.@X*X:X:X=X=XoXoX|.oXoXOX*X=X,X*X=X:X-X+XoX=X:X,X:X3X<X:X:X=XoX|.}.|.|.[.R.n.0.1...( L S v g v f ",
"0 v b b H T ) ..>.4.x.K.!.XX%X+X&X;X<X3X:X>X>X>X;X*X&X|.[.OXOX[.|.@X*X:X-X&XoX`.}.|.*XoXoX*X=X-X<X:X-XOX*X=X=X=X;X<X:X>X-X*X&XoX}.[.[.T.Z.a.1.-.} P J S f f f f ",
"y a v b M Y ^ ) O.:.y.x.~./.+X+X&X&X;X<X3X>X&X=X:X*X&X{.[.[.[.[.|.}.|.&XoX}.|.&X&X&X&XoXXX=X-X-X,X=X*X*X*X*X=X=X=X:X:X=X>X&X&X|.|.}.(.D.f.0.-...( L S v v u u u ",
"0 i i a b H J ^ ) >.$.y.V.!.`.+X&X$X&X>X:X;X=X=X&X&X|.'.[.[.[.}.}.|.|.}.`.`.oX:X:X:X=X$XXX=X:X,X-XoX+X=X*X&X*X*X:X*X=X;X=X*X&X&X#X(.H.h.0.:.-. ./ J S v f u q y ",
"0 y i j b m H T ( ..=.:.p.Z.T.}.|.&X@X*X=X=X=X*X&X`.'.).).|. X{.[.|.oX&X+X&X*X-X=X:X=X*X$X=X=X<X-XoXoX*X*X*X*X*X*X*XoX=X=X&XoXoX].I.c.w.<.&...( Q F l f p i y y ",
"4 4 i h j b F H / ( ..=.9.s.Z.T..X|.|.*X*X*X=X=X&X`.`.|.}.|. X}.oXOX*X+X*X*X-X*X&X&X=X=X=X=X=X,X*XoX=X*X*X>X X X*X*XoXOX*X|.|.].K.c.t.1.=...( L G n f a u q 4 4 ",
"3 7 0 i j z c F J / ( ..-.1.s.m.E.].{.|.+XoXoXoXXXoX&X&X X|.|.|.+X|.|.|.OX-X+XoXoXoX%X&X*X-X-X*X-X*X*X*X-X*XoX|.*XOX X|.|.{.].G.l.q.1.-.X.| Q J H x f u y 4 4 4 ",
"3 3 0 i h j z n D L ( ( ..X.1.p.n.L.]..X]._._._.`.`.XX|.@XoX*X|.OX X|.|.OXOXoXOX+X+X-X&X=X=X*X*X&XoX*X*X*XoX|.oX|.[.[.{.{.^.F.z.q.<.,.#...! L J S f u i 0 4 1 < ",
"1 5 9 9 h h j z c J G P } | #.1.w.c.H.(.(..X).)._.oX|.XX&X&X&X|.oX X|.#X>XOXoX+XoXoXoXoX&X*X*X@X`.|.*X+XoXoXoX[.].].{..XQ.H.N.0.,.#...| ( ~ G F b a u 0 3 3 , , ",
": 5 8 9 9 h h j c c G G ~ _ | @.-.0.N.D.W..X^.!.!._._.*XoX`.|.|.OX|.|.*X*X|.|.XX|.|.`.$X*X*X&X|.).[.|.oX[.|.+X[.}..X^.E.m.s.6.,.#. .} ! Q Q Y F v a i 4 3 3 , ; ",
"= 1 7 7 9 9 h j k x c F G ~ _ _ X.&.1.u.m.H.W.U.!.!.[.+XoX_.|.`.oX`._.oXoX|._.'._.`.`.&X=X=X&X`.`.[._.).].[.].^.Q.E.D.l.t.6.,.&. .} ! Q Q T Y F v 0 0 3 : : > > ",
"* , 5 7 8 9 h h j h x c F G E ! } ..X.1.r.N.m.F.U.!.^.[.+X|.|._._.'.'._.|.|._.'.'.'.'.XX&X$XoX`.|.}.[.].^././.I.D.c.u.6.,.-.#.%. .! Q U U T Y M v y 0 3 3 > > > ",
"= = < 2 5 8 9 i a h z k c Z G Q ! } } @.-.3.y.f.B.I./././.^.[.[.)._._._._._._._.'._.`.`.`.`.`.`.`.+X/.^.Q.W.H.M.t.6.,.,.%.%.| _ ( Q U J ^ ^ N N h 9 5 , > > > > ",
"& - - , 1 7 0 i i i p k k n F G E ! ~ _ | @.$.8.y.N.B.L.T.Q./.[.].].!.!.).).).].).).).|.`.}.|.[.[.[.].^.H.M.t.r.*.o.X...~ ~ W ~ U J R R N N N m h 9 3 , > # # # ",
"& - - , < 2 6 q w q i p s l F A G Q Q ! } | %.#.$.*.0.u.c.B.L./.].].^.Q.!.^.T.^.^.^..X{.].].}.].!.L.B.x.a.0.<.,. . .| } ~ ~ E U R R M N m m b j y 4 , , # > # # ",
"& - - - , 1 6 6 8 9 e p s g l c Z F A E W ~ [  .#.#.$.<.0.0.y.f.b.D.G.L.E.W.E.E.I.I.E.E.I.F.n.z.u.w.e.8.<.-. .| } ! ! ! E E E U R M c M b b j i 4 3 , ; # # # # ",
"@ # & - - , 5 6 4 q q u p s s k l l Z U E ! ! [ }  . .#.#.-.<.1.9.0.q.w.s.f.f.f.f.u.u.u.w.q.9.1.3.:.$.%...| ~ ! P G K E E U U R c c k j j h i 9 3 3 : & # # # # ",
"@ # @ & = - = 5 6 9 9 9 w w p u k k x F G U E Q ! ~ ~ ~ | @.@.#.#.$.-.,.,.,.,.,.,.,.,.;.-.=.=.X.@.| | _ ! ~ Q K G A A Z Z Z c k k h j h h 9 6 5 , : > ; # # # # ",
"X @ @ @ - - = = 2 9 8 8 w y i e p s k c V F U E Q Q Q ! ! _ } |  .#...X.X.&.X.o.o.X.X.X. ...%.} } ~ ! W L G G A Z V l c c c l k h h e i 9 9 5 , > > & # # O o @ ",
"X @ @ @ @ & & = , 8 7 7 6 9 i i u p s k c Z Z A G K K K ! ! ~ ! ! [ [ [ } } [ } } [ ! ( ( ! Q ! ! K K K A C Z V V l l l l k s e r w w w 9 6 , > & > & # o o o + "
};
